<svg id="svg" version="1.1" xmlns="http://www.w3.org/2000/svg" xmlns:xlink="http://www.w3.org/1999/xlink" width="400" height="278.7018255578093" viewBox="0, 0, 400,278.7018255578093"><g id="svgg"><path id="path0" d="M207.805 61.342 C 192.253 62.855,181.535 71.936,177.847 86.723 C 176.631 91.596,176.446 94.217,176.446 106.529 C 176.446 112.942,176.415 118.215,176.376 118.248 C 176.338 118.280,172.418 118.375,167.666 118.457 L 159.024 118.606 159.024 133.937 L 159.024 149.268 167.735 149.342 L 176.446 149.416 176.446 193.593 L 176.446 237.770 194.704 237.770 L 212.962 237.770 212.962 193.592 L 212.962 149.413 225.294 149.341 L 237.626 149.268 237.816 147.875 C 237.920 147.108,238.150 145.038,238.327 143.275 C 238.503 141.512,238.825 138.314,239.042 136.167 C 239.258 134.021,239.562 130.885,239.718 129.199 C 239.873 127.512,240.120 125.192,240.268 124.042 C 240.416 122.892,240.610 121.168,240.700 120.212 L 240.863 118.472 226.982 118.400 L 213.101 118.328 213.101 107.456 L 213.101 96.585 213.937 95.074 C 215.952 91.432,217.124 91.150,230.217 91.150 L 240.557 91.150 240.557 76.273 L 240.557 61.397 239.512 61.224 C 238.027 60.979,210.488 61.081,207.805 61.342 " stroke="none" fill="#fbfbfb" fill-rule="evenodd"></path><path id="path1" d="M0.000 139.373 L 0.000 278.746 200.000 278.746 L 400.000 278.746 400.000 139.373 L 400.000 0.000 200.000 0.000 L 0.000 0.000 0.000 139.373 M240.769 76.152 L 240.841 91.398 230.177 91.494 C 213.040 91.648,213.465 91.244,213.299 107.526 L 213.194 117.909 227.154 117.909 L 241.115 117.909 241.113 119.373 C 241.112 120.178,240.980 121.902,240.821 123.206 C 240.440 126.309,239.782 132.840,239.443 136.864 C 239.295 138.627,239.051 140.697,238.902 141.463 C 238.753 142.230,238.546 144.266,238.444 145.988 C 238.330 147.885,238.123 149.230,237.919 149.400 C 237.707 149.576,233.074 149.707,225.480 149.753 L 213.380 149.826 213.240 194.007 L 213.101 238.188 194.874 238.260 C 181.643 238.312,176.543 238.245,176.268 238.017 C 175.951 237.753,175.889 230.478,175.889 193.694 L 175.889 149.686 167.247 149.686 L 158.606 149.686 158.606 133.798 L 158.606 117.909 167.247 117.909 L 175.889 117.909 175.889 106.846 C 175.889 100.704,176.012 95.093,176.167 94.233 C 176.320 93.380,176.561 91.742,176.702 90.592 C 177.073 87.583,178.011 83.896,178.936 81.812 C 184.551 69.171,192.319 63.305,206.411 61.064 C 207.178 60.943,215.206 60.857,224.251 60.874 L 240.697 60.906 240.769 76.152 " stroke="none" fill="#4464b4" fill-rule="evenodd"></path><path id="path2" d="M214.704 60.975 C 216.659 61.023,219.857 61.023,221.812 60.975 C 223.767 60.927,222.167 60.888,218.258 60.888 C 214.348 60.888,212.749 60.927,214.704 60.975 M208.435 61.242 C 208.782 61.309,209.284 61.307,209.550 61.237 C 209.817 61.167,209.533 61.112,208.920 61.116 C 208.307 61.119,208.089 61.176,208.435 61.242 M177.456 87.282 C 177.224 88.444,177.449 88.669,177.700 87.526 C 177.806 87.044,177.835 86.592,177.764 86.521 C 177.693 86.450,177.554 86.792,177.456 87.282 M224.599 91.359 C 227.551 91.404,232.380 91.404,235.331 91.359 C 238.282 91.313,235.868 91.276,229.965 91.276 C 224.063 91.276,221.648 91.313,224.599 91.359 M176.511 93.101 C 176.511 93.638,176.568 93.857,176.638 93.589 C 176.708 93.321,176.708 92.882,176.638 92.613 C 176.568 92.345,176.511 92.564,176.511 93.101 M176.294 107.456 C 176.294 113.436,176.331 115.842,176.376 112.804 C 176.421 109.766,176.421 104.874,176.376 101.933 C 176.331 98.992,176.294 101.477,176.294 107.456 M213.144 118.258 C 213.215 118.373,219.465 118.467,227.032 118.467 C 236.149 118.467,240.838 118.563,240.931 118.753 C 241.009 118.910,241.041 118.878,241.001 118.683 C 240.945 118.403,237.972 118.298,226.972 118.188 C 219.295 118.111,213.073 118.143,213.144 118.258 M158.885 118.397 C 158.885 118.512,161.425 118.574,164.529 118.535 C 175.078 118.402,176.049 118.307,167.456 118.247 C 162.742 118.215,158.885 118.282,158.885 118.397 M240.080 126.132 C 240.082 126.899,240.136 127.179,240.200 126.756 C 240.264 126.332,240.262 125.705,240.196 125.362 C 240.130 125.019,240.078 125.366,240.080 126.132 M239.240 134.355 C 239.240 135.045,239.294 135.328,239.360 134.983 C 239.427 134.638,239.427 134.073,239.360 133.728 C 239.294 133.383,239.240 133.666,239.240 134.355 M238.950 136.864 C 238.950 137.401,239.007 137.620,239.077 137.352 C 239.147 137.084,239.147 136.645,239.077 136.376 C 239.007 136.108,238.950 136.328,238.950 136.864 M238.403 142.718 C 238.403 143.408,238.458 143.690,238.524 143.345 C 238.591 143.000,238.591 142.436,238.524 142.091 C 238.458 141.746,238.403 142.028,238.403 142.718 M238.113 144.948 C 238.113 145.484,238.171 145.704,238.241 145.436 C 238.311 145.167,238.311 144.728,238.241 144.460 C 238.171 144.192,238.113 144.411,238.113 144.948 M176.303 193.589 C 176.303 217.965,176.336 227.896,176.376 215.657 C 176.416 203.419,176.416 183.475,176.376 171.337 C 176.336 159.199,176.303 169.213,176.303 193.589 " stroke="none" fill="#a4b4dc" fill-rule="evenodd"></path><path id="path3" d="M213.095 108.502 L 213.101 118.049 226.899 118.053 L 240.697 118.057 226.972 117.980 L 213.248 117.904 213.169 108.429 L 213.090 98.955 213.095 108.502 M163.275 118.118 C 165.613 118.165,169.439 118.165,171.777 118.118 C 174.115 118.071,172.202 118.033,167.526 118.033 C 162.850 118.033,160.937 118.071,163.275 118.118 M163.275 149.616 C 165.613 149.663,169.439 149.663,171.777 149.616 C 174.115 149.570,172.202 149.531,167.526 149.531 C 162.850 149.531,160.937 149.570,163.275 149.616 M213.090 149.756 C 213.018 149.948,212.990 169.861,213.030 194.007 L 213.103 237.909 213.172 193.801 L 213.240 149.692 225.436 149.617 L 237.631 149.541 225.427 149.474 C 215.871 149.422,213.194 149.483,213.090 149.756 " stroke="none" fill="#849bcc" fill-rule="evenodd"></path><path id="path4" d="M228.641 60.975 C 230.596 61.023,233.794 61.023,235.749 60.975 C 237.704 60.927,236.105 60.888,232.195 60.888 C 228.286 60.888,226.686 60.927,228.641 60.975 M158.736 133.798 C 158.736 142.307,158.772 145.787,158.815 141.533 C 158.858 137.279,158.858 130.317,158.815 126.063 C 158.772 121.808,158.736 125.289,158.736 133.798 M185.595 237.979 C 190.704 238.022,198.983 238.022,203.992 237.979 C 209.002 237.936,204.822 237.902,194.704 237.902 C 184.585 237.902,180.486 237.936,185.595 237.979 " stroke="none" fill="#8ea4d1" fill-rule="evenodd"></path><path id="path5" d="M205.648 61.242 C 205.995 61.309,206.496 61.307,206.763 61.237 C 207.029 61.167,206.746 61.112,206.132 61.116 C 205.519 61.119,205.301 61.176,205.648 61.242 M240.688 76.237 C 240.688 84.669,240.723 88.159,240.766 83.992 C 240.810 79.825,240.810 72.926,240.766 68.661 C 240.723 64.396,240.688 67.805,240.688 76.237 M176.016 106.481 C 176.016 112.843,176.053 115.446,176.097 112.265 C 176.142 109.084,176.142 103.878,176.097 100.697 C 176.053 97.516,176.016 100.118,176.016 106.481 M240.633 123.484 C 240.633 124.174,240.688 124.456,240.754 124.111 C 240.821 123.767,240.821 123.202,240.754 122.857 C 240.688 122.512,240.633 122.794,240.633 123.484 M239.801 131.707 C 239.803 132.474,239.857 132.754,239.921 132.331 C 239.985 131.907,239.984 131.280,239.917 130.937 C 239.851 130.594,239.799 130.941,239.801 131.707 M238.955 140.070 C 238.958 140.683,239.015 140.901,239.082 140.554 C 239.149 140.208,239.146 139.706,239.077 139.439 C 239.007 139.173,238.952 139.456,238.955 140.070 M238.091 148.167 C 238.068 148.635,237.893 149.199,237.702 149.422 C 237.511 149.645,237.584 149.624,237.864 149.376 C 238.206 149.072,238.333 148.663,238.252 148.121 L 238.132 147.317 238.091 148.167 M175.957 193.603 C 175.904 227.573,175.965 237.735,176.223 237.993 C 176.602 238.372,212.825 238.496,213.058 238.118 C 213.129 238.003,204.889 237.909,194.747 237.909 L 176.307 237.909 176.166 193.728 L 176.025 149.547 175.957 193.603 " stroke="none" fill="#6484c4" fill-rule="evenodd"></path></g></svg>