<svg id="svg" version="1.1" xmlns="http://www.w3.org/2000/svg" xmlns:xlink="http://www.w3.org/1999/xlink" width="400" height="278.7018255578093" viewBox="0, 0, 400,278.7018255578093"><g id="svgg"><path id="path0" d="M206.903 33.024 C 203.522 33.978,203.016 34.398,191.982 45.396 L 181.456 55.889 193.676 68.104 L 205.896 80.319 207.588 79.881 C 218.726 76.994,229.655 87.659,227.288 99.105 L 226.841 101.266 238.647 113.067 L 250.453 124.869 251.986 124.459 C 266.471 120.583,278.099 138.654,268.757 150.523 C 264.209 156.301,255.369 158.835,249.833 155.947 C 249.408 155.725,248.974 155.543,248.870 155.542 C 248.173 155.535,244.989 153.200,243.534 151.629 C 239.690 147.477,238.230 141.562,239.718 136.167 L 240.257 134.216 229.397 123.345 L 218.537 112.475 218.537 141.367 L 218.537 170.259 219.530 170.845 C 235.392 180.204,225.972 204.589,207.793 201.229 C 193.017 198.497,189.855 177.004,203.275 170.514 L 204.878 169.739 204.870 140.549 L 204.861 111.359 202.899 110.244 C 197.954 107.434,194.584 101.717,194.569 96.115 C 194.564 94.240,195.229 90.717,195.693 90.158 C 195.914 89.892,172.518 66.101,171.802 65.862 C 171.671 65.818,156.816 80.553,138.790 98.606 C 100.644 136.810,104.111 132.761,104.111 139.094 L 104.111 142.857 105.165 145.087 L 106.219 147.317 154.503 195.563 C 199.524 240.547,202.911 243.867,204.617 244.683 C 209.178 246.865,214.568 246.537,218.492 243.837 C 219.887 242.878,313.034 149.794,314.717 147.677 C 317.889 143.690,318.253 137.619,315.614 132.740 C 314.722 131.091,220.237 36.373,218.077 34.963 C 214.887 32.880,210.259 32.077,206.903 33.024 " stroke="none" fill="#fcfbfb" fill-rule="evenodd"></path><path id="path1" d="M0.000 139.373 L 0.000 278.746 200.000 278.746 L 400.000 278.746 400.000 139.373 L 400.000 0.000 200.000 0.000 L 0.000 0.000 0.000 139.373 M215.021 32.905 C 216.476 33.416,217.230 33.803,218.522 34.702 C 219.102 35.105,314.768 130.759,315.265 131.432 C 318.493 135.806,318.627 142.489,315.580 147.178 C 314.585 148.708,220.669 242.877,218.955 244.063 C 214.465 247.168,207.647 247.299,203.148 244.365 C 201.437 243.249,106.486 148.241,105.530 146.688 C 102.648 142.008,102.755 135.810,105.795 131.331 C 106.530 130.249,171.415 65.226,171.761 65.226 C 172.332 65.226,196.248 89.601,196.080 90.012 C 193.141 97.209,196.699 106.809,203.561 110.195 L 205.157 110.983 205.157 140.475 C 205.157 163.734,205.083 170.025,204.808 170.245 C 204.617 170.399,204.156 170.618,203.784 170.732 C 203.413 170.846,202.974 171.048,202.809 171.182 C 202.644 171.315,201.852 171.928,201.049 172.545 C 191.804 179.644,193.508 194.342,204.179 199.540 C 207.912 201.359,213.961 201.649,216.820 200.148 C 217.074 200.015,217.837 199.635,218.515 199.305 C 219.821 198.669,222.996 196.337,222.998 196.012 C 222.999 195.906,223.343 195.443,223.764 194.983 C 227.103 191.334,228.198 183.136,225.927 178.782 C 225.697 178.340,225.508 177.876,225.507 177.749 C 225.505 177.439,222.438 173.380,222.205 173.379 C 222.104 173.378,221.645 173.033,221.185 172.611 C 220.725 172.190,219.815 171.499,219.164 171.076 L 217.979 170.306 217.979 141.337 C 217.979 120.187,218.064 112.315,218.293 112.174 C 218.731 111.902,240.969 134.193,240.698 134.632 C 239.201 137.055,239.215 143.103,240.727 146.523 C 240.940 147.006,241.115 147.483,241.115 147.584 C 241.115 147.684,241.601 148.480,242.194 149.353 C 251.192 162.588,271.546 156.451,271.599 140.488 C 271.617 135.113,268.616 129.353,264.698 127.244 C 264.145 126.946,263.693 126.616,263.693 126.509 C 263.693 126.403,263.317 126.233,262.857 126.132 C 262.397 126.031,262.021 125.861,262.021 125.754 C 262.021 125.008,255.716 124.156,253.519 124.605 C 249.803 125.363,251.530 126.637,238.222 113.326 C 231.688 106.791,226.343 101.354,226.345 101.244 C 226.347 101.135,226.533 100.355,226.760 99.512 C 228.056 94.684,226.378 88.619,222.674 84.739 C 221.733 83.754,218.991 81.681,218.606 81.663 C 218.491 81.658,217.895 81.411,217.282 81.115 C 216.669 80.819,215.892 80.572,215.557 80.567 C 215.221 80.562,214.868 80.432,214.774 80.279 C 214.556 79.927,207.876 79.905,207.512 80.255 C 206.379 81.345,206.295 81.274,193.451 68.433 C 186.705 61.688,181.185 56.043,181.185 55.888 C 181.185 55.417,201.867 34.952,203.125 34.178 C 206.246 32.258,211.563 31.689,215.021 32.905 " stroke="none" fill="#f45434" fill-rule="evenodd"></path><path id="path2" d="M210.665 79.640 C 211.012 79.706,211.514 79.704,211.780 79.634 C 212.047 79.564,211.763 79.510,211.150 79.513 C 210.537 79.516,210.319 79.573,210.665 79.640 M254.983 124.239 C 255.328 124.305,255.892 124.305,256.237 124.239 C 256.582 124.172,256.300 124.118,255.610 124.118 C 254.920 124.118,254.638 124.172,254.983 124.239 M239.228 140.488 C 239.228 141.024,239.286 141.244,239.356 140.976 C 239.426 140.707,239.426 140.268,239.356 140.000 C 239.286 139.732,239.228 139.951,239.228 140.488 " stroke="none" fill="#f4a494" fill-rule="evenodd"></path><path id="path3" d="M182.857 76.516 C 189.065 82.725,194.206 87.805,194.283 87.805 C 194.360 87.805,189.344 82.725,183.136 76.516 C 176.928 70.307,171.787 65.226,171.710 65.226 C 171.633 65.226,176.650 70.307,182.857 76.516 M235.401 110.383 C 240.305 115.289,244.380 119.303,244.457 119.303 C 244.533 119.303,240.584 115.289,235.679 110.383 C 230.775 105.477,226.700 101.463,226.623 101.463 C 226.547 101.463,230.497 105.477,235.401 110.383 M247.382 122.300 C 248.912 123.871,250.354 125.147,250.587 125.135 C 250.960 125.115,250.960 125.095,250.592 124.964 C 250.362 124.882,248.920 123.606,247.387 122.129 L 244.599 119.443 247.382 122.300 M317.556 138.537 C 317.556 139.073,317.613 139.293,317.683 139.024 C 317.754 138.756,317.754 138.317,317.683 138.049 C 317.613 137.780,317.556 138.000,317.556 138.537 M103.494 139.233 C 103.496 140.000,103.551 140.281,103.615 139.857 C 103.679 139.433,103.677 138.806,103.611 138.463 C 103.545 138.120,103.492 138.467,103.494 139.233 M271.861 140.488 C 271.861 141.331,271.913 141.676,271.977 141.254 C 272.041 140.833,272.041 140.143,271.977 139.721 C 271.913 139.300,271.861 139.645,271.861 140.488 M266.899 196.028 L 219.791 243.206 266.969 196.098 C 310.831 152.301,314.271 148.850,314.076 148.850 C 314.038 148.850,292.808 170.080,266.899 196.028 M254.843 156.855 C 255.265 156.919,255.955 156.919,256.376 156.855 C 256.798 156.791,256.453 156.739,255.610 156.739 C 254.767 156.739,254.422 156.791,254.843 156.855 " stroke="none" fill="#f49786" fill-rule="evenodd"></path><path id="path4" d="M206.690 32.613 C 206.338 32.764,206.287 32.853,206.551 32.853 C 206.780 32.853,207.220 32.745,207.526 32.613 C 207.878 32.462,207.929 32.374,207.666 32.374 C 207.436 32.374,206.997 32.481,206.690 32.613 M213.380 32.613 C 213.686 32.745,214.125 32.853,214.355 32.853 C 214.619 32.853,214.567 32.764,214.216 32.613 C 213.909 32.481,213.470 32.374,213.240 32.374 C 212.977 32.374,213.028 32.462,213.380 32.613 M267.039 83.196 C 293.485 109.713,315.175 131.476,315.241 131.558 C 315.306 131.640,315.094 131.331,314.771 130.871 C 314.447 130.411,292.756 108.648,266.569 82.509 L 218.956 34.983 267.039 83.196 M193.449 68.432 C 200.270 75.254,205.914 80.836,205.991 80.836 C 206.067 80.836,200.549 75.254,193.728 68.432 C 186.907 61.610,181.264 56.028,181.187 56.028 C 181.110 56.028,186.628 61.610,193.449 68.432 M165.975 70.871 L 165.157 71.777 166.063 70.958 C 166.561 70.508,166.969 70.100,166.969 70.052 C 166.969 69.837,166.739 70.027,165.975 70.871 M161.516 75.331 L 160.697 76.237 161.603 75.418 C 162.101 74.968,162.509 74.560,162.509 74.512 C 162.509 74.297,162.279 74.487,161.516 75.331 M210.112 79.926 C 210.768 79.985,211.771 79.984,212.342 79.924 C 212.913 79.864,212.376 79.816,211.150 79.817 C 209.923 79.818,209.456 79.867,210.112 79.926 M195.296 91.857 C 195.200 92.107,195.135 92.582,195.150 92.915 C 195.169 93.297,195.263 93.161,195.408 92.545 C 195.651 91.510,195.585 91.103,195.296 91.857 M226.659 91.986 C 226.659 92.216,226.767 92.655,226.899 92.962 C 227.050 93.313,227.139 93.365,227.139 93.101 C 227.139 92.871,227.031 92.432,226.899 92.125 C 226.748 91.774,226.659 91.723,226.659 91.986 M138.380 98.467 L 137.561 99.373 138.467 98.554 C 138.965 98.104,139.373 97.696,139.373 97.648 C 139.373 97.433,139.143 97.622,138.380 98.467 M199.570 107.387 C 200.254 108.115,200.850 108.711,200.894 108.711 C 201.104 108.711,200.882 108.461,199.652 107.305 L 198.328 106.063 199.570 107.387 M204.812 140.305 C 204.880 167.900,204.852 169.919,204.410 170.244 C 204.149 170.436,204.060 170.592,204.212 170.592 C 205.147 170.592,205.157 170.283,205.157 140.449 C 205.157 124.237,205.063 110.916,204.948 110.844 C 204.833 110.773,204.771 124.031,204.812 140.305 M218.165 112.242 C 217.668 112.739,217.965 170.235,218.467 170.614 C 218.882 170.928,218.903 170.925,218.606 170.593 C 218.332 170.286,218.258 164.026,218.258 141.292 C 218.258 118.424,218.331 112.352,218.606 112.240 C 218.801 112.162,218.821 112.090,218.653 112.078 C 218.487 112.066,218.267 112.139,218.165 112.242 M229.686 123.345 C 235.587 129.247,240.478 134.077,240.555 134.077 C 240.631 134.077,235.866 129.247,229.965 123.345 C 224.064 117.443,219.173 112.613,219.097 112.613 C 219.020 112.613,223.785 117.443,229.686 123.345 M112.604 124.251 L 111.080 125.854 112.683 124.330 C 114.172 122.915,114.413 122.648,114.207 122.648 C 114.163 122.648,113.442 123.369,112.604 124.251 M251.289 124.878 C 250.938 125.029,250.886 125.118,251.150 125.118 C 251.380 125.118,251.819 125.010,252.125 124.878 C 252.477 124.727,252.528 124.638,252.265 124.638 C 252.035 124.638,251.596 124.746,251.289 124.878 M259.373 124.878 C 259.679 125.010,260.118 125.118,260.348 125.118 C 260.612 125.118,260.560 125.029,260.209 124.878 C 259.902 124.746,259.463 124.638,259.233 124.638 C 258.970 124.638,259.021 124.727,259.373 124.878 M267.027 129.129 C 267.710 129.857,268.306 130.453,268.351 130.453 C 268.560 130.453,268.339 130.203,267.108 129.048 L 265.784 127.805 267.027 129.129 M271.224 136.748 C 271.226 137.042,271.355 137.470,271.511 137.700 C 271.718 138.006,271.743 137.893,271.607 137.282 C 271.378 136.257,271.218 136.035,271.224 136.748 M317.292 142.607 C 317.120 143.357,317.024 144.016,317.078 144.070 C 317.233 144.224,317.814 141.874,317.703 141.542 C 317.648 141.377,317.463 141.857,317.292 142.607 M239.622 143.415 C 239.716 144.028,239.900 144.718,240.031 144.948 C 240.319 145.453,240.023 143.673,239.684 142.857 C 239.537 142.506,239.515 142.711,239.622 143.415 M271.410 143.382 C 271.305 143.655,271.227 144.088,271.237 144.343 C 271.249 144.651,271.346 144.581,271.524 144.135 C 271.672 143.765,271.750 143.333,271.697 143.174 C 271.644 143.015,271.515 143.109,271.410 143.382 M105.367 146.357 C 105.366 146.442,105.679 146.937,106.063 147.456 C 106.446 147.976,106.755 148.283,106.750 148.138 C 106.739 147.858,105.370 146.094,105.367 146.357 M154.146 195.819 C 180.132 221.805,201.456 243.066,201.532 243.066 C 201.609 243.066,180.411 221.805,154.425 195.819 C 128.439 169.833,107.116 148.571,107.039 148.571 C 106.962 148.571,128.161 169.833,154.146 195.819 M244.170 151.986 C 244.853 152.714,245.449 153.310,245.494 153.310 C 245.703 153.310,245.482 153.060,244.251 151.905 L 242.927 150.662 244.170 151.986 M253.175 156.576 C 253.598 156.640,254.225 156.639,254.568 156.573 C 254.911 156.506,254.564 156.454,253.798 156.456 C 253.031 156.458,252.751 156.512,253.175 156.576 M256.798 156.576 C 257.222 156.640,257.849 156.639,258.192 156.573 C 258.535 156.506,258.188 156.454,257.422 156.456 C 256.655 156.458,256.375 156.512,256.798 156.576 M303.676 159.512 L 302.857 160.418 303.763 159.599 C 304.608 158.836,304.797 158.606,304.582 158.606 C 304.534 158.606,304.126 159.014,303.676 159.512 M299.216 163.972 L 298.397 164.878 299.303 164.059 C 300.148 163.296,300.337 163.066,300.122 163.066 C 300.074 163.066,299.666 163.474,299.216 163.972 M294.756 168.432 L 293.937 169.338 294.843 168.519 C 295.688 167.756,295.877 167.526,295.662 167.526 C 295.614 167.526,295.206 167.934,294.756 168.432 M220.511 172.056 C 220.575 172.094,221.003 172.439,221.463 172.822 L 222.300 173.519 221.624 172.753 C 221.252 172.331,220.824 171.986,220.672 171.986 C 220.519 171.986,220.447 172.017,220.511 172.056 M290.296 172.892 L 289.477 173.798 290.383 172.979 C 291.228 172.216,291.417 171.986,291.202 171.986 C 291.154 171.986,290.746 172.394,290.296 172.892 M199.429 173.728 L 198.328 174.913 199.512 173.811 C 200.614 172.786,200.825 172.544,200.614 172.544 C 200.569 172.544,200.035 173.077,199.429 173.728 M223.550 174.915 C 224.660 176.252,224.753 176.338,224.450 175.746 C 224.292 175.438,223.869 174.937,223.510 174.633 C 222.880 174.100,222.882 174.110,223.550 174.915 M195.261 181.185 C 195.155 181.667,195.127 182.119,195.198 182.190 C 195.269 182.261,195.407 181.918,195.505 181.429 C 195.603 180.939,195.632 180.486,195.569 180.423 C 195.505 180.360,195.367 180.703,195.261 181.185 M226.668 180.906 C 226.682 181.630,227.121 182.820,227.130 182.160 C 227.135 181.854,227.031 181.352,226.899 181.045 C 226.752 180.704,226.663 180.650,226.668 180.906 M227.254 185.087 C 227.254 185.777,227.308 186.059,227.374 185.714 C 227.441 185.369,227.441 184.805,227.374 184.460 C 227.308 184.115,227.254 184.397,227.254 185.087 M195.126 188.177 C 195.129 188.547,195.254 189.038,195.405 189.268 C 195.597 189.562,195.626 189.397,195.500 188.711 C 195.279 187.509,195.121 187.282,195.126 188.177 M226.779 188.313 C 226.677 188.721,226.647 189.109,226.713 189.175 C 226.778 189.240,226.916 188.960,227.018 188.552 C 227.121 188.143,227.151 187.755,227.085 187.689 C 227.020 187.624,226.882 187.904,226.779 188.313 M271.620 191.568 L 270.801 192.474 271.707 191.655 C 272.206 191.205,272.613 190.797,272.613 190.749 C 272.613 190.534,272.383 190.723,271.620 191.568 M267.160 196.028 L 266.341 196.934 267.247 196.115 C 267.746 195.665,268.153 195.257,268.153 195.209 C 268.153 194.994,267.923 195.183,267.160 196.028 M204.599 200.000 C 204.983 200.219,205.422 200.398,205.575 200.398 C 205.728 200.398,205.540 200.219,205.157 200.000 C 204.774 199.781,204.334 199.602,204.181 199.602 C 204.028 199.602,204.216 199.781,204.599 200.000 M217.213 199.869 C 216.279 200.245,216.454 200.435,217.422 200.098 C 217.882 199.937,218.258 199.756,218.258 199.694 C 218.258 199.529,217.919 199.586,217.213 199.869 M262.700 200.488 L 261.882 201.394 262.787 200.575 C 263.286 200.125,263.693 199.717,263.693 199.669 C 263.693 199.454,263.463 199.643,262.700 200.488 M207.805 200.963 C 208.340 201.205,209.833 201.363,209.593 201.152 C 209.530 201.096,208.976 200.973,208.362 200.880 C 207.585 200.761,207.416 200.787,207.805 200.963 M258.240 204.948 L 257.422 205.854 258.328 205.035 C 258.826 204.585,259.233 204.177,259.233 204.129 C 259.233 203.914,259.003 204.103,258.240 204.948 M253.780 209.408 L 252.962 210.314 253.868 209.495 C 254.366 209.045,254.774 208.637,254.774 208.589 C 254.774 208.374,254.544 208.563,253.780 209.408 M249.320 213.868 L 248.502 214.774 249.408 213.955 C 249.906 213.505,250.314 213.097,250.314 213.049 C 250.314 212.834,250.084 213.023,249.320 213.868 M244.861 218.328 L 244.042 219.233 244.948 218.415 C 245.446 217.964,245.854 217.557,245.854 217.509 C 245.854 217.293,245.624 217.483,244.861 218.328 M235.104 228.084 L 234.286 228.990 235.192 228.171 C 235.690 227.721,236.098 227.313,236.098 227.265 C 236.098 227.050,235.868 227.239,235.104 228.084 M230.644 232.544 L 229.826 233.449 230.732 232.631 C 231.230 232.180,231.638 231.773,231.638 231.725 C 231.638 231.510,231.408 231.699,230.644 232.544 M226.185 237.003 L 225.366 237.909 226.272 237.091 C 226.770 236.640,227.178 236.233,227.178 236.185 C 227.178 235.969,226.948 236.159,226.185 237.003 M221.725 241.463 L 220.906 242.369 221.812 241.551 C 222.310 241.100,222.718 240.693,222.718 240.645 C 222.718 240.429,222.488 240.619,221.725 241.463 M202.648 244.042 C 203.168 244.425,203.662 244.738,203.748 244.737 C 204.011 244.735,202.247 243.366,201.967 243.355 C 201.822 243.349,202.129 243.659,202.648 244.042 " stroke="none" fill="#f46d55" fill-rule="evenodd"></path><path id="path5" d="M191.357 45.784 L 181.324 55.889 191.429 45.855 C 196.986 40.337,201.533 35.790,201.533 35.751 C 201.533 35.554,200.683 36.393,191.357 45.784 M221.045 37.439 C 221.045 37.487,221.453 37.895,221.951 38.345 L 222.857 39.164 222.038 38.258 C 221.275 37.413,221.045 37.224,221.045 37.439 M226.341 42.735 C 226.341 42.783,226.749 43.191,227.247 43.641 L 228.153 44.460 227.335 43.554 C 226.571 42.710,226.341 42.520,226.341 42.735 M229.129 45.523 C 229.129 45.571,229.537 45.978,230.035 46.429 L 230.941 47.247 230.122 46.341 C 229.359 45.497,229.129 45.307,229.129 45.523 M232.056 48.502 C 232.655 49.115,233.207 49.617,233.284 49.617 C 233.361 49.617,232.933 49.115,232.334 48.502 C 231.736 47.889,231.183 47.387,231.106 47.387 C 231.030 47.387,231.457 47.889,232.056 48.502 M234.692 51.080 C 235.376 51.808,235.971 52.404,236.016 52.404 C 236.226 52.404,236.004 52.154,234.774 50.999 L 233.449 49.756 234.692 51.080 M182.578 57.230 C 182.578 57.278,182.986 57.686,183.484 58.136 L 184.390 58.955 183.572 58.049 C 182.808 57.204,182.578 57.015,182.578 57.230 M188.142 62.787 C 189.297 64.018,189.547 64.239,189.547 64.030 C 189.547 63.985,188.951 63.390,188.223 62.706 L 186.899 61.463 188.142 62.787 M249.744 66.132 C 250.428 66.861,251.024 67.456,251.068 67.456 C 251.278 67.456,251.056 67.206,249.826 66.051 L 248.502 64.808 249.744 66.132 M139.094 98.049 L 106.620 130.592 139.150 98.133 L 171.680 65.673 172.321 66.216 L 172.962 66.760 172.431 66.132 C 172.139 65.787,171.825 65.505,171.733 65.505 C 171.642 65.505,156.954 80.150,139.094 98.049 M192.334 66.986 C 192.334 67.034,192.742 67.442,193.240 67.892 L 194.146 68.711 193.328 67.805 C 192.564 66.960,192.334 66.771,192.334 66.986 M252.404 68.850 C 253.003 69.463,253.556 69.965,253.632 69.965 C 253.709 69.965,253.282 69.463,252.683 68.850 C 252.084 68.237,251.531 67.735,251.455 67.735 C 251.378 67.735,251.805 68.237,252.404 68.850 M176.713 70.592 C 177.397 71.321,177.992 71.916,178.037 71.916 C 178.246 71.916,178.025 71.666,176.794 70.511 L 175.470 69.268 176.713 70.592 M253.937 70.331 C 253.937 70.379,254.345 70.787,254.843 71.237 L 255.749 72.056 254.930 71.150 C 254.167 70.305,253.937 70.116,253.937 70.331 M197.898 72.544 C 198.581 73.272,199.177 73.868,199.222 73.868 C 199.431 73.868,199.210 73.617,197.979 72.462 L 196.655 71.220 197.898 72.544 M180.767 74.704 C 182.140 76.084,183.326 77.213,183.403 77.213 C 183.480 77.213,182.419 76.084,181.045 74.704 C 179.672 73.324,178.485 72.195,178.409 72.195 C 178.332 72.195,179.393 73.324,180.767 74.704 M256.725 73.119 C 256.725 73.167,257.132 73.574,257.631 74.025 L 258.537 74.843 257.718 73.937 C 256.955 73.093,256.725 72.903,256.725 73.119 M183.693 77.568 C 183.693 77.610,184.666 78.582,185.854 79.728 L 188.014 81.812 185.930 79.652 C 183.995 77.645,183.693 77.364,183.693 77.568 M262.021 78.415 C 262.021 78.463,262.429 78.870,262.927 79.321 L 263.833 80.139 263.014 79.233 C 262.251 78.389,262.021 78.199,262.021 78.415 M264.948 81.394 C 265.547 82.007,266.099 82.509,266.176 82.509 C 266.253 82.509,265.825 82.007,265.226 81.394 C 264.628 80.780,264.075 80.279,263.998 80.279 C 263.922 80.279,264.349 80.780,264.948 81.394 M188.990 82.875 C 188.990 82.923,189.397 83.330,189.895 83.781 L 190.801 84.599 189.983 83.693 C 189.220 82.849,188.990 82.659,188.990 82.875 M266.481 82.875 C 266.481 82.923,266.889 83.330,267.387 83.781 L 268.293 84.599 267.474 83.693 C 266.711 82.849,266.481 82.659,266.481 82.875 M191.916 85.854 C 192.515 86.467,193.068 86.969,193.145 86.969 C 193.221 86.969,192.794 86.467,192.195 85.854 C 191.596 85.240,191.044 84.739,190.967 84.739 C 190.890 84.739,191.318 85.240,191.916 85.854 M269.268 85.662 C 269.268 85.710,269.676 86.118,270.174 86.568 L 271.080 87.387 270.261 86.481 C 269.498 85.636,269.268 85.447,269.268 85.662 M194.553 88.432 C 195.236 89.160,195.832 89.756,195.877 89.756 C 196.086 89.756,195.865 89.506,194.634 88.351 L 193.310 87.108 194.553 88.432 M194.663 96.028 C 194.663 97.408,194.710 98.007,194.768 97.360 C 194.827 96.713,194.827 95.584,194.770 94.852 C 194.712 94.119,194.664 94.648,194.663 96.028 M227.546 95.889 C 227.546 96.885,227.596 97.293,227.658 96.794 C 227.720 96.296,227.720 95.481,227.658 94.983 C 227.596 94.484,227.546 94.892,227.546 95.889 M226.642 100.907 C 226.630 101.138,231.983 106.657,238.537 113.172 L 250.453 125.017 238.706 113.171 C 232.246 106.655,226.893 101.136,226.812 100.906 C 226.681 100.535,226.662 100.535,226.642 100.907 M289.617 106.011 C 289.617 106.059,290.024 106.466,290.523 106.916 L 291.429 107.735 290.610 106.829 C 289.847 105.985,289.617 105.795,289.617 106.011 M295.180 111.568 C 296.335 112.799,296.585 113.020,296.585 112.811 C 296.585 112.766,295.990 112.170,295.261 111.487 L 293.937 110.244 295.180 111.568 M218.324 141.238 C 218.288 157.211,218.352 170.339,218.467 170.410 C 218.656 170.527,218.655 150.127,218.463 122.648 C 218.423 116.899,218.361 125.264,218.324 141.238 M297.840 114.286 C 298.439 114.899,298.991 115.401,299.068 115.401 C 299.145 115.401,298.717 114.899,298.118 114.286 C 297.520 113.672,296.967 113.171,296.890 113.171 C 296.814 113.171,297.241 113.672,297.840 114.286 M221.312 115.192 C 221.996 115.920,222.592 116.516,222.636 116.516 C 222.846 116.516,222.624 116.265,221.394 115.110 L 220.070 113.868 221.312 115.192 M299.373 115.767 C 299.373 115.815,299.780 116.222,300.279 116.673 L 301.185 117.491 300.366 116.585 C 299.603 115.741,299.373 115.551,299.373 115.767 M302.160 118.544 C 302.160 118.586,303.132 119.558,304.321 120.704 L 306.481 122.787 304.397 120.627 C 302.462 118.621,302.160 118.340,302.160 118.544 M225.505 119.390 C 225.505 119.438,225.913 119.846,226.411 120.296 L 227.317 121.115 226.498 120.209 C 225.735 119.365,225.505 119.175,225.505 119.390 M257.073 124.234 C 257.341 124.304,257.780 124.304,258.049 124.234 C 258.317 124.164,258.098 124.106,257.561 124.106 C 257.024 124.106,256.805 124.164,257.073 124.234 M103.789 139.233 C 103.790 140.460,103.839 140.927,103.898 140.271 C 103.957 139.616,103.956 138.612,103.896 138.041 C 103.836 137.471,103.788 138.007,103.789 139.233 M239.234 138.676 C 239.237 139.289,239.294 139.507,239.361 139.161 C 239.428 138.814,239.425 138.312,239.355 138.046 C 239.286 137.779,239.231 138.063,239.234 138.676 M272.132 140.488 C 272.132 141.178,272.186 141.460,272.252 141.115 C 272.319 140.770,272.319 140.206,272.252 139.861 C 272.186 139.516,272.132 139.798,272.132 140.488 M239.234 142.300 C 239.237 142.913,239.294 143.131,239.361 142.784 C 239.428 142.437,239.425 141.936,239.355 141.669 C 239.286 141.403,239.231 141.686,239.234 142.300 M309.962 152.683 L 305.366 157.352 310.035 152.756 C 314.373 148.486,314.830 148.014,314.631 148.014 C 314.591 148.014,312.490 150.115,309.962 152.683 M254.983 157.131 C 255.328 157.197,255.892 157.197,256.237 157.131 C 256.582 157.064,256.300 157.010,255.610 157.010 C 254.920 157.010,254.638 157.064,254.983 157.131 M219.652 170.972 C 219.652 171.049,220.028 171.380,220.488 171.707 C 220.948 172.035,221.324 172.240,221.324 172.163 C 221.324 172.087,220.948 171.756,220.488 171.429 C 220.028 171.101,219.652 170.896,219.652 170.972 M199.294 173.589 L 197.770 175.192 199.373 173.668 C 200.862 172.253,201.103 171.986,200.896 171.986 C 200.853 171.986,200.132 172.707,199.294 173.589 M279.859 182.787 L 270.801 191.916 279.930 182.859 C 288.414 174.441,289.185 173.659,288.988 173.659 C 288.949 173.659,284.841 177.767,279.859 182.787 M194.665 185.087 C 194.665 186.544,194.712 187.139,194.769 186.411 C 194.827 185.683,194.827 184.491,194.769 183.763 C 194.712 183.035,194.665 183.631,194.665 185.087 M227.548 184.948 C 227.549 186.021,227.600 186.426,227.660 185.847 C 227.720 185.269,227.719 184.391,227.658 183.896 C 227.596 183.401,227.547 183.875,227.548 184.948 M198.746 196.045 C 198.746 196.093,199.153 196.501,199.652 196.951 L 200.557 197.770 199.739 196.864 C 198.976 196.020,198.746 195.830,198.746 196.045 M240.139 222.439 C 237.844 224.739,236.028 226.620,236.105 226.620 C 236.181 226.620,238.122 224.739,240.418 222.439 C 242.714 220.139,244.530 218.258,244.453 218.258 C 244.376 218.258,242.435 220.139,240.139 222.439 M209.965 246.332 C 210.387 246.396,211.077 246.396,211.498 246.332 C 211.920 246.268,211.575 246.216,210.732 246.216 C 209.889 246.216,209.544 246.268,209.965 246.332 " stroke="none" fill="#f4a49c" fill-rule="evenodd"></path></g></svg>