<svg id="svg" version="1.1" xmlns="http://www.w3.org/2000/svg" xmlns:xlink="http://www.w3.org/1999/xlink" width="400" height="278.7018255578093" viewBox="0, 0, 400,278.7018255578093"><g id="svgg"><path id="path0" d="M145.923 70.985 C 129.414 72.840,127.910 96.613,144.076 100.174 C 155.333 102.654,164.739 96.198,164.739 85.990 C 164.739 75.936,156.974 69.744,145.923 70.985 M229.965 110.973 C 221.643 111.710,214.244 116.132,209.373 123.281 C 208.046 125.229,207.944 124.895,207.944 118.590 L 207.944 112.892 193.659 112.892 L 179.373 112.892 179.345 156.237 L 179.317 199.582 193.631 199.582 L 207.944 199.582 207.944 174.200 C 207.944 147.052,207.988 146.067,209.327 143.136 C 212.491 136.211,218.780 132.640,226.202 133.555 C 232.087 134.280,235.834 137.996,237.832 145.087 L 238.460 147.317 238.541 173.449 L 238.623 199.582 252.982 199.582 L 267.342 199.582 267.238 171.080 C 267.127 140.446,267.134 140.611,265.637 135.023 C 261.787 120.657,251.933 112.141,237.770 110.939 C 234.205 110.636,233.747 110.638,229.965 110.973 M134.355 156.237 L 134.355 199.582 148.711 199.582 L 163.066 199.582 163.066 156.237 L 163.066 112.892 148.711 112.892 L 134.355 112.892 134.355 156.237 " stroke="none" fill="#fafbfb" fill-rule="evenodd"></path><path id="path1" d="M0.000 139.373 L 0.000 278.746 200.000 278.746 L 400.000 278.746 400.000 139.373 L 400.000 0.000 200.000 0.000 L 0.000 0.000 0.000 139.373 M151.638 70.526 C 161.991 72.113,167.825 81.387,164.567 91.076 C 160.415 103.421,139.610 104.776,133.864 93.076 C 127.856 80.843,137.675 68.385,151.638 70.526 M238.776 110.551 C 240.906 110.796,242.836 111.095,243.066 111.215 C 243.296 111.335,244.017 111.522,244.668 111.630 C 245.318 111.737,245.922 111.940,246.008 112.080 C 246.095 112.220,246.389 112.334,246.663 112.334 C 249.723 112.334,258.022 118.901,261.351 123.955 C 267.370 133.095,267.735 135.858,267.735 172.265 L 267.735 200.000 252.962 200.000 L 238.188 200.000 238.049 173.519 C 237.972 158.955,237.814 146.891,237.697 146.711 C 237.581 146.532,237.359 145.722,237.206 144.913 C 234.646 131.417,217.110 129.818,210.244 142.455 C 208.618 145.448,208.679 144.371,208.515 173.240 L 208.362 200.000 193.746 200.072 C 183.562 200.123,179.074 200.054,178.945 199.845 C 178.843 199.681,178.807 180.080,178.864 156.289 C 178.921 132.497,178.965 112.873,178.961 112.680 C 178.956 112.402,181.985 112.344,193.659 112.402 L 208.362 112.474 208.438 118.021 L 208.514 123.569 209.553 122.178 C 212.542 118.177,217.196 114.283,220.773 112.789 C 221.459 112.502,222.272 112.160,222.578 112.027 C 223.136 111.787,224.658 111.394,226.760 110.947 C 227.373 110.817,228.878 110.622,230.105 110.515 C 231.331 110.408,232.387 110.272,232.451 110.212 C 232.687 109.993,235.012 110.117,238.776 110.551 M163.484 156.237 L 163.484 200.000 148.711 200.000 L 133.937 200.000 133.866 156.516 C 133.826 132.599,133.854 112.873,133.928 112.680 C 134.033 112.403,137.152 112.345,148.773 112.402 L 163.484 112.474 163.484 156.237 " stroke="none" fill="#047bb3" fill-rule="evenodd"></path><path id="path2" d="M132.201 85.575 C 132.201 86.265,132.256 86.547,132.322 86.202 C 132.389 85.857,132.389 85.293,132.322 84.948 C 132.256 84.603,132.201 84.885,132.201 85.575 M165.097 85.993 C 165.099 86.760,165.153 87.040,165.217 86.616 C 165.282 86.193,165.280 85.565,165.214 85.223 C 165.147 84.880,165.095 85.226,165.097 85.993 M160.958 96.237 L 160.139 97.143 161.045 96.324 C 161.544 95.874,161.951 95.466,161.951 95.418 C 161.951 95.203,161.721 95.392,160.958 96.237 M134.259 112.544 C 134.188 112.659,140.691 112.753,148.711 112.753 C 156.730 112.753,163.234 112.659,163.163 112.544 C 163.091 112.429,156.588 112.334,148.711 112.334 C 140.833 112.334,134.330 112.429,134.259 112.544 M184.530 112.536 C 197.803 112.730,208.158 112.734,208.041 112.544 C 207.970 112.429,201.490 112.363,193.642 112.398 C 185.794 112.432,181.693 112.495,184.530 112.536 M179.089 147.735 C 179.089 164.676,179.123 171.606,179.164 163.136 C 179.205 154.666,179.205 140.805,179.164 132.334 C 179.123 123.864,179.089 130.794,179.089 147.735 M257.282 119.443 C 258.115 120.286,258.859 120.976,258.936 120.976 C 259.012 120.976,258.394 120.286,257.561 119.443 C 256.728 118.599,255.984 117.909,255.908 117.909 C 255.831 117.909,256.449 118.599,257.282 119.443 M221.951 133.711 C 222.220 133.781,222.659 133.781,222.927 133.711 C 223.195 133.641,222.976 133.584,222.439 133.584 C 221.902 133.584,221.683 133.641,221.951 133.711 M212.947 138.188 L 211.986 139.233 213.031 138.273 C 214.004 137.379,214.205 137.143,213.992 137.143 C 213.945 137.143,213.475 137.613,212.947 138.188 M267.387 145.366 C 267.390 145.979,267.448 146.197,267.514 145.850 C 267.581 145.504,267.578 145.002,267.509 144.735 C 267.439 144.469,267.384 144.753,267.387 145.366 M134.316 199.933 C 134.433 200.049,140.918 200.112,148.727 200.072 L 162.927 200.000 148.516 199.861 C 140.589 199.784,134.200 199.816,134.316 199.933 M186.570 200.070 C 190.528 200.113,196.926 200.113,200.786 200.069 C 204.646 200.026,201.408 199.990,193.589 199.990 C 185.770 199.990,182.612 200.026,186.570 200.070 M245.943 200.070 C 249.901 200.113,256.298 200.113,260.159 200.069 C 264.019 200.026,260.780 199.990,252.962 199.990 C 245.143 199.990,241.984 200.026,245.943 200.070 " stroke="none" fill="#67b2d2" fill-rule="evenodd"></path><path id="path3" d="M233.659 110.575 C 233.927 110.646,234.366 110.646,234.634 110.575 C 234.902 110.505,234.683 110.448,234.146 110.448 C 233.610 110.448,233.390 110.505,233.659 110.575 M238.461 175.470 C 238.461 188.655,238.495 194.008,238.537 187.366 C 238.578 180.724,238.578 169.936,238.536 163.394 C 238.495 156.851,238.461 162.286,238.461 175.470 " stroke="none" fill="#78bcd8" fill-rule="evenodd"></path><path id="path4" d="M147.944 70.446 C 148.443 70.507,149.258 70.507,149.756 70.446 C 150.254 70.384,149.847 70.333,148.850 70.333 C 147.854 70.333,147.446 70.384,147.944 70.446 M143.275 71.093 C 142.970 71.300,143.083 71.325,143.693 71.189 C 144.718 70.960,144.941 70.800,144.228 70.806 C 143.934 70.808,143.505 70.937,143.275 71.093 M153.055 70.902 C 153.118 70.957,153.547 71.086,154.007 71.189 C 154.618 71.325,154.730 71.300,154.425 71.093 C 154.049 70.838,152.775 70.660,153.055 70.902 M155.261 71.452 C 155.261 71.524,155.666 71.724,156.161 71.897 C 156.656 72.069,156.938 72.096,156.788 71.955 C 156.471 71.658,155.261 71.260,155.261 71.452 M139.019 72.902 C 138.447 73.291,137.979 73.676,137.979 73.757 C 137.979 73.839,138.324 73.665,138.746 73.372 C 139.167 73.078,139.763 72.697,140.070 72.525 C 140.376 72.353,140.500 72.208,140.343 72.204 C 140.187 72.199,139.592 72.513,139.019 72.902 M136.068 75.384 C 135.280 76.218,134.634 76.992,134.634 77.103 C 134.634 77.214,134.673 77.253,134.720 77.189 C 134.768 77.125,135.476 76.352,136.294 75.470 C 137.112 74.589,137.718 73.868,137.642 73.868 C 137.565 73.868,136.857 74.550,136.068 75.384 M132.299 82.380 C 132.204 82.629,132.141 83.230,132.160 83.716 C 132.189 84.451,132.230 84.389,132.404 83.345 C 132.625 82.011,132.585 81.637,132.299 82.380 M165.082 83.902 C 165.082 84.439,165.139 84.659,165.210 84.390 C 165.280 84.122,165.280 83.683,165.210 83.415 C 165.139 83.146,165.082 83.366,165.082 83.902 M165.366 85.993 C 165.370 86.606,165.427 86.824,165.493 86.478 C 165.560 86.131,165.557 85.629,165.488 85.363 C 165.418 85.096,165.363 85.380,165.366 85.993 M132.130 87.689 C 132.132 88.289,132.244 88.954,132.378 89.167 C 132.528 89.403,132.566 89.023,132.476 88.191 C 132.294 86.493,132.124 86.247,132.130 87.689 M165.082 88.084 C 165.082 88.620,165.139 88.840,165.210 88.571 C 165.280 88.303,165.280 87.864,165.210 87.596 C 165.139 87.328,165.082 87.547,165.082 88.084 M132.964 91.111 C 132.961 91.648,134.523 94.475,135.374 95.470 C 136.188 96.423,135.964 95.890,135.021 94.632 C 134.675 94.171,134.072 93.105,133.680 92.263 C 133.288 91.421,132.966 90.902,132.964 91.111 M137.560 97.517 C 137.864 97.876,138.365 98.299,138.673 98.457 C 139.265 98.760,139.179 98.667,137.842 97.557 C 137.037 96.889,137.027 96.887,137.560 97.517 M159.164 97.882 C 158.627 98.352,158.440 98.610,158.749 98.454 C 159.258 98.196,160.520 96.988,160.252 97.015 C 160.190 97.021,159.700 97.411,159.164 97.882 M141.045 99.673 C 141.045 99.861,142.493 100.387,142.631 100.249 C 142.695 100.186,142.364 100.001,141.896 99.838 C 141.428 99.675,141.045 99.600,141.045 99.673 M143.693 100.614 C 144.228 100.857,145.721 101.015,145.482 100.804 C 145.418 100.747,144.864 100.625,144.251 100.531 C 143.474 100.413,143.305 100.438,143.693 100.614 M147.535 101.111 C 148.267 101.169,149.396 101.168,150.043 101.110 C 150.690 101.051,150.091 101.004,148.711 101.005 C 147.331 101.006,146.802 101.054,147.535 101.111 M233.234 110.306 C 233.729 110.367,234.607 110.368,235.185 110.308 C 235.764 110.248,235.359 110.197,234.286 110.196 C 233.213 110.195,232.739 110.244,233.234 110.306 M236.867 110.580 C 237.214 110.647,237.716 110.645,237.982 110.575 C 238.249 110.505,237.965 110.450,237.352 110.454 C 236.739 110.457,236.521 110.514,236.867 110.580 M241.417 111.040 C 241.481 111.095,241.972 111.220,242.509 111.318 C 243.195 111.444,243.360 111.416,243.066 111.223 C 242.688 110.976,241.141 110.804,241.417 111.040 M133.984 112.520 C 133.726 112.778,133.749 199.797,134.007 199.957 C 134.122 200.028,134.216 180.342,134.216 156.210 C 134.216 132.079,134.206 112.334,134.193 112.334 C 134.180 112.334,134.086 112.418,133.984 112.520 M163.277 156.024 C 163.334 190.817,163.277 199.737,162.998 199.934 C 162.738 200.119,162.755 200.153,163.066 200.068 C 163.522 199.943,163.869 113.026,163.416 112.572 C 163.300 112.457,163.238 132.010,163.277 156.024 M208.156 116.333 C 208.195 118.503,208.258 121.157,208.295 122.230 L 208.362 124.181 209.014 123.206 C 209.545 122.410,209.558 122.352,209.083 122.888 L 208.502 123.546 208.502 118.096 C 208.502 115.099,208.408 112.588,208.293 112.516 C 208.178 112.445,208.116 114.162,208.156 116.333 M220.488 112.892 C 219.951 113.186,219.638 113.426,219.791 113.426 C 219.944 113.426,220.509 113.186,221.045 112.892 C 221.582 112.598,221.895 112.358,221.742 112.358 C 221.589 112.358,221.024 112.598,220.488 112.892 M246.690 112.428 C 246.690 112.500,247.095 112.700,247.589 112.872 C 248.084 113.045,248.366 113.071,248.217 112.931 C 247.899 112.634,246.690 112.235,246.690 112.428 M178.773 115.122 C 178.773 116.425,178.821 116.958,178.880 116.307 C 178.939 115.655,178.939 114.589,178.880 113.937 C 178.821 113.286,178.773 113.819,178.773 115.122 M248.664 113.277 C 248.949 113.536,251.707 114.838,251.707 114.713 C 251.707 114.556,249.045 113.171,248.743 113.171 C 248.636 113.171,248.600 113.218,248.664 113.277 M213.504 117.840 L 212.544 118.885 213.589 117.924 C 214.562 117.030,214.762 116.794,214.549 116.794 C 214.503 116.794,214.032 117.265,213.504 117.840 M211.132 120.209 L 210.314 121.115 211.220 120.296 C 211.718 119.846,212.125 119.438,212.125 119.390 C 212.125 119.175,211.895 119.365,211.132 120.209 M262.913 126.963 C 263.247 127.649,263.568 128.163,263.626 128.105 C 263.752 127.978,262.626 125.714,262.437 125.714 C 262.365 125.714,262.580 126.276,262.913 126.963 M221.394 133.990 C 221.662 134.060,222.101 134.060,222.369 133.990 C 222.638 133.920,222.418 133.863,221.882 133.863 C 221.345 133.863,221.125 133.920,221.394 133.990 M225.439 133.995 C 225.786 134.062,226.287 134.059,226.554 133.989 C 226.820 133.920,226.537 133.865,225.923 133.868 C 225.310 133.871,225.092 133.928,225.439 133.995 M228.571 134.449 C 228.571 134.521,228.976 134.721,229.471 134.893 C 229.966 135.066,230.248 135.092,230.098 134.952 C 229.781 134.655,228.571 134.256,228.571 134.449 M215.261 136.288 C 214.640 136.738,214.044 137.249,213.936 137.423 C 213.785 137.668,215.967 136.135,216.562 135.579 C 216.994 135.175,216.200 135.608,215.261 136.288 M231.638 135.803 C 233.421 137.461,234.475 138.281,233.589 137.319 C 233.052 136.737,232.362 136.129,232.056 135.967 C 231.749 135.806,231.561 135.732,231.638 135.803 M266.670 138.118 C 266.759 138.885,266.878 139.564,266.935 139.628 C 267.131 139.848,266.983 138.118,266.746 137.422 C 266.586 136.952,266.561 137.179,266.670 138.118 M212.514 138.885 C 211.660 139.811,210.660 141.130,211.194 140.627 C 211.789 140.066,213.581 137.979,213.467 137.979 C 213.402 137.979,212.974 138.387,212.514 138.885 M235.325 140.116 C 235.826 141.061,236.277 141.794,236.326 141.745 C 236.449 141.623,235.404 139.636,234.859 138.955 C 234.613 138.648,234.823 139.170,235.325 140.116 M267.382 143.554 C 267.382 144.091,267.439 144.310,267.509 144.042 C 267.579 143.774,267.579 143.334,267.509 143.066 C 267.439 142.798,267.382 143.017,267.382 143.554 M237.260 145.087 C 237.255 145.394,237.360 145.895,237.491 146.202 C 237.797 146.912,237.797 146.180,237.491 145.226 C 237.312 144.666,237.267 144.639,237.260 145.087 M267.664 172.172 C 267.610 193.973,267.522 199.844,267.247 199.955 C 266.974 200.065,266.976 200.100,267.256 200.117 C 267.877 200.156,267.880 199.976,267.806 171.986 L 267.732 144.530 267.664 172.172 M208.291 173.705 C 208.237 194.280,208.149 199.844,207.875 199.955 C 207.602 200.065,207.604 200.100,207.883 200.117 C 208.503 200.156,208.508 199.954,208.433 173.519 L 208.359 147.596 208.291 173.705 M238.186 174.750 C 238.188 196.915,238.239 199.967,238.606 200.068 C 238.914 200.152,238.933 200.117,238.677 199.936 C 238.406 199.744,238.315 194.233,238.257 174.619 L 238.184 149.547 238.186 174.750 M178.803 188.990 C 178.803 194.892,178.840 197.307,178.885 194.355 C 178.930 191.404,178.930 186.575,178.885 183.624 C 178.840 180.672,178.803 183.087,178.803 188.990 " stroke="none" fill="#3498c4" fill-rule="evenodd"></path><path id="path5" d="M147.949 70.725 C 148.450 70.787,149.203 70.785,149.622 70.722 C 150.041 70.658,149.631 70.607,148.711 70.609 C 147.791 70.611,147.448 70.663,147.949 70.725 M150.871 70.994 C 151.139 71.064,151.578 71.064,151.847 70.994 C 152.115 70.923,151.895 70.866,151.359 70.866 C 150.822 70.866,150.603 70.923,150.871 70.994 M155.842 72.020 C 156.129 72.277,157.770 73.031,157.770 72.906 C 157.770 72.746,156.225 71.916,155.926 71.916 C 155.816 71.916,155.778 71.963,155.842 72.020 M160.973 75.610 C 161.723 76.491,162.386 77.213,162.446 77.213 C 162.636 77.213,160.926 75.147,160.254 74.564 C 159.900 74.258,160.224 74.728,160.973 75.610 M135.417 76.585 C 134.925 77.157,134.557 77.770,134.705 77.770 C 134.762 77.770,135.086 77.394,135.426 76.934 C 136.098 76.025,136.092 75.799,135.417 76.585 M133.843 79.036 C 133.376 80.061,133.465 80.280,133.970 79.348 C 134.206 78.913,134.347 78.505,134.283 78.441 C 134.219 78.377,134.021 78.645,133.843 79.036 M132.503 85.714 C 132.502 87.094,132.549 87.694,132.608 87.047 C 132.666 86.400,132.667 85.271,132.609 84.538 C 132.552 83.805,132.504 84.334,132.503 85.714 M164.838 85.993 C 164.837 87.373,164.884 87.972,164.942 87.325 C 165.001 86.679,165.002 85.550,164.944 84.817 C 164.886 84.084,164.838 84.613,164.838 85.993 M163.206 92.822 C 162.968 93.282,162.836 93.659,162.913 93.659 C 162.989 93.659,163.246 93.282,163.484 92.822 C 163.722 92.362,163.854 91.986,163.777 91.986 C 163.701 91.986,163.443 92.362,163.206 92.822 M160.836 96.028 C 160.159 96.718,159.668 97.282,159.745 97.282 C 159.821 97.282,160.438 96.718,161.115 96.028 C 161.792 95.338,162.283 94.774,162.207 94.774 C 162.130 94.774,161.513 95.338,160.836 96.028 M136.574 96.237 C 137.729 97.468,137.979 97.689,137.979 97.480 C 137.979 97.435,137.383 96.839,136.655 96.156 L 135.331 94.913 136.574 96.237 M138.955 98.233 C 139.415 98.629,139.906 98.953,140.046 98.953 C 140.349 98.955,140.346 98.952,139.094 98.145 L 138.118 97.515 138.955 98.233 M143.833 100.348 C 144.216 100.471,144.780 100.572,145.087 100.572 C 145.529 100.572,145.500 100.525,144.948 100.348 C 144.564 100.226,144.000 100.125,143.693 100.125 C 143.252 100.125,143.281 100.172,143.833 100.348 M147.666 100.829 C 148.164 100.891,148.979 100.891,149.477 100.829 C 149.976 100.767,149.568 100.716,148.571 100.716 C 147.575 100.716,147.167 100.767,147.666 100.829 M230.179 110.864 C 230.680 110.926,231.433 110.925,231.852 110.861 C 232.271 110.798,231.861 110.747,230.941 110.748 C 230.021 110.750,229.678 110.802,230.179 110.864 M236.590 110.864 C 237.091 110.926,237.844 110.925,238.263 110.861 C 238.682 110.798,238.272 110.747,237.352 110.748 C 236.432 110.750,236.089 110.802,236.590 110.864 M242.091 111.498 C 242.397 111.630,242.899 111.734,243.206 111.730 C 243.654 111.723,243.626 111.678,243.066 111.498 C 242.113 111.193,241.380 111.193,242.091 111.498 M134.206 112.959 C 134.133 113.152,134.105 132.753,134.144 156.516 L 134.216 199.721 148.711 199.721 L 163.206 199.721 163.206 156.237 L 163.206 112.753 148.773 112.680 C 137.375 112.623,134.312 112.682,134.206 112.959 M179.073 112.987 C 178.993 113.195,178.972 114.231,179.026 115.289 L 179.124 117.213 179.179 115.052 L 179.233 112.892 193.589 112.892 L 207.944 112.892 207.944 118.590 C 207.944 124.221,208.076 125.055,208.819 124.108 C 209.161 123.671,209.152 123.661,208.717 124.001 C 208.263 124.357,208.230 124.030,208.159 118.566 L 208.084 112.753 193.651 112.680 C 181.699 112.621,179.193 112.673,179.073 112.987 M163.066 156.237 L 163.066 199.582 148.711 199.582 L 134.355 199.582 134.355 156.237 L 134.355 112.892 148.711 112.892 L 163.066 112.892 163.066 156.237 M215.323 116.676 L 213.937 117.952 215.401 116.772 C 216.714 115.714,217.030 115.401,216.787 115.401 C 216.744 115.401,216.086 115.975,215.323 116.676 M179.368 147.875 C 179.368 164.739,179.402 171.597,179.442 163.114 C 179.483 154.632,179.483 140.834,179.442 132.452 C 179.401 124.071,179.368 131.010,179.368 147.875 M257.143 119.582 C 258.208 120.655,259.142 121.533,259.218 121.533 C 259.295 121.533,258.487 120.655,257.422 119.582 C 256.357 118.509,255.423 117.631,255.346 117.631 C 255.269 117.631,256.078 118.509,257.143 119.582 M212.526 119.094 L 211.707 120.000 212.613 119.181 C 213.111 118.731,213.519 118.323,213.519 118.275 C 213.519 118.060,213.289 118.250,212.526 119.094 M217.073 134.794 C 215.992 135.380,216.115 135.582,217.213 135.024 C 218.263 134.490,218.449 134.351,218.095 134.367 C 217.955 134.373,217.495 134.565,217.073 134.794 M212.805 138.049 L 211.986 138.955 212.892 138.136 C 213.390 137.686,213.798 137.278,213.798 137.230 C 213.798 137.015,213.568 137.204,212.805 138.049 M266.546 139.373 C 266.546 139.909,266.603 140.129,266.673 139.861 C 266.743 139.592,266.743 139.153,266.673 138.885 C 266.603 138.617,266.546 138.836,266.546 139.373 M267.109 143.972 C 267.112 144.585,267.169 144.803,267.235 144.457 C 267.302 144.110,267.300 143.608,267.230 143.342 C 267.160 143.075,267.106 143.359,267.109 143.972 M267.385 173.036 L 267.317 199.592 252.849 199.517 C 244.891 199.476,238.439 199.537,238.510 199.652 C 238.751 200.042,267.318 199.904,267.467 199.512 C 267.540 199.321,267.567 187.310,267.527 172.822 L 267.454 146.481 267.385 173.036 M208.012 173.728 L 207.944 199.582 193.592 199.582 L 179.240 199.582 179.162 189.199 L 179.084 178.815 179.089 189.268 L 179.094 199.721 193.527 199.793 C 204.925 199.850,207.988 199.792,208.094 199.515 C 208.167 199.322,208.194 187.624,208.154 173.519 L 208.081 147.875 208.012 173.728 M238.414 150.105 C 238.415 151.024,238.468 151.367,238.530 150.866 C 238.592 150.365,238.590 149.612,238.527 149.194 C 238.463 148.775,238.412 149.185,238.414 150.105 " stroke="none" fill="#84bcdc" fill-rule="evenodd"></path></g></svg>