<svg id="svg" version="1.1" xmlns="http://www.w3.org/2000/svg" xmlns:xlink="http://www.w3.org/1999/xlink" width="400" height="278.7018255578093" viewBox="0, 0, 400,278.7018255578093"><g id="svgg"><path id="path0" d="M128.758 81.742 C 128.746 81.780,128.702 82.489,128.660 83.317 L 128.585 84.822 131.526 88.334 C 133.143 90.266,135.728 93.336,137.268 95.156 C 138.809 96.976,140.874 99.421,141.857 100.589 L 143.644 102.714 143.460 122.344 C 143.358 133.140,143.275 148.585,143.275 156.666 L 143.275 171.358 140.552 174.947 C 131.100 187.403,129.090 190.084,128.812 190.603 C 128.401 191.371,128.416 193.252,128.836 193.672 C 129.191 194.027,168.683 194.187,169.594 193.838 C 170.638 193.437,170.164 191.091,168.711 189.468 C 167.983 188.655,166.620 187.117,165.683 186.051 C 164.747 184.984,161.815 181.666,159.170 178.676 C 156.524 175.686,153.948 172.739,153.446 172.125 L 152.533 171.010 152.767 150.523 C 152.897 139.254,153.009 126.930,153.017 123.136 C 153.029 117.196,153.089 116.237,153.449 116.237 C 153.679 116.237,153.868 116.350,153.868 116.488 C 153.868 116.626,154.871 118.833,156.098 121.394 C 157.324 123.954,158.328 126.083,158.328 126.124 C 158.328 126.165,159.126 127.878,160.102 129.929 C 161.078 131.980,162.914 135.854,164.181 138.537 C 165.449 141.220,167.284 145.093,168.260 147.144 C 169.236 149.196,170.035 150.915,170.035 150.965 C 170.035 151.015,170.771 152.598,171.671 154.482 C 172.571 156.367,173.685 158.725,174.146 159.721 C 175.406 162.441,181.572 175.545,183.445 179.479 C 184.348 181.377,185.087 182.964,185.087 183.005 C 185.087 183.100,189.411 192.232,189.900 193.171 C 190.229 193.802,190.452 193.875,192.273 193.949 L 194.283 194.031 194.699 193.113 C 195.081 192.270,201.506 176.595,205.039 167.889 C 207.173 162.628,207.934 160.774,208.220 160.139 C 208.359 159.833,209.689 156.571,211.176 152.892 C 212.664 149.213,216.303 140.277,219.264 133.034 C 222.226 125.792,225.119 118.672,225.695 117.212 C 226.271 115.753,226.871 114.602,227.029 114.654 C 227.224 114.719,227.340 125.107,227.388 146.879 L 227.459 179.008 226.550 179.887 C 225.513 180.890,220.469 185.540,216.653 189.012 C 214.072 191.359,214.072 191.359,214.144 192.613 L 214.216 193.868 242.369 193.868 L 270.523 193.868 270.595 192.334 L 270.666 190.801 265.577 186.143 C 262.778 183.581,259.829 180.872,259.024 180.124 L 257.561 178.763 257.568 137.256 L 257.575 95.749 264.118 90.330 L 270.662 84.910 270.662 83.291 L 270.662 81.672 251.020 81.672 C 232.309 81.672,231.366 81.697,231.107 82.180 C 230.957 82.459,229.750 85.375,228.423 88.661 C 227.096 91.946,225.844 95.010,225.640 95.470 C 225.259 96.331,217.158 116.150,212.538 127.526 C 205.512 144.826,203.298 150.074,202.981 150.179 C 202.775 150.248,202.288 149.527,201.772 148.388 C 200.846 146.342,200.276 145.115,196.937 137.979 C 195.753 135.449,194.467 132.690,194.078 131.847 C 193.689 131.003,192.636 128.762,191.738 126.866 C 190.840 124.969,190.105 123.372,190.105 123.317 C 190.105 123.261,189.352 121.633,188.432 119.698 C 187.512 117.764,186.760 116.144,186.760 116.098 C 186.760 116.053,186.064 114.541,185.214 112.739 C 184.364 110.937,183.407 108.886,183.086 108.181 C 182.765 107.476,181.944 105.707,181.261 104.251 C 179.998 101.556,173.905 88.427,172.270 84.878 C 171.776 83.805,171.262 82.645,171.128 82.300 L 170.885 81.672 149.833 81.672 C 138.254 81.672,128.770 81.704,128.758 81.742 " stroke="none" fill="#fafafa" fill-rule="evenodd"></path><path id="path1" d="M0.000 139.373 L 0.000 278.746 200.000 278.746 L 400.000 278.746 400.000 139.373 L 400.000 0.000 200.000 0.000 L 0.000 0.000 0.000 139.373 M171.718 82.648 C 172.107 83.415,172.783 84.857,173.220 85.854 C 173.656 86.850,174.686 89.090,175.508 90.830 C 176.331 92.570,177.003 94.028,177.003 94.069 C 177.003 94.110,177.819 95.855,178.815 97.947 C 179.812 100.040,180.627 101.796,180.627 101.850 C 180.627 101.903,181.364 103.501,182.264 105.399 C 185.537 112.302,186.760 114.912,186.760 114.999 C 186.760 115.048,187.307 116.256,187.977 117.684 C 188.647 119.111,189.512 120.969,189.899 121.812 C 190.287 122.655,191.071 124.348,191.642 125.575 C 192.213 126.801,193.027 128.557,193.452 129.477 C 193.876 130.397,194.814 132.404,195.535 133.937 C 198.704 140.668,202.091 148.046,202.097 148.231 C 202.108 148.596,203.193 149.833,203.199 149.488 C 203.205 149.207,206.855 140.085,208.083 137.282 C 208.428 136.497,210.583 131.208,214.219 122.230 C 215.088 120.084,215.964 117.951,216.165 117.491 C 216.366 117.031,217.371 114.585,218.398 112.056 C 219.424 109.526,220.428 107.080,220.629 106.620 C 220.829 106.160,223.026 100.767,225.511 94.634 C 227.996 88.502,230.259 82.951,230.539 82.300 L 231.049 81.115 250.965 81.115 C 268.869 81.115,270.898 81.160,271.050 81.556 C 271.143 81.798,271.220 82.667,271.220 83.485 L 271.220 84.973 264.669 90.444 L 258.118 95.915 258.132 137.365 L 258.146 178.815 262.801 183.063 C 265.362 185.400,268.310 188.116,269.353 189.099 L 271.249 190.886 271.165 192.516 L 271.080 194.146 242.369 194.146 L 213.659 194.146 213.576 192.730 L 213.493 191.313 220.188 185.204 L 226.883 179.094 226.872 147.456 C 226.864 123.845,226.782 115.996,226.549 116.516 C 225.723 118.356,225.125 119.790,223.410 124.042 C 222.390 126.571,221.389 129.017,221.186 129.477 C 220.983 129.937,219.602 133.324,218.117 137.003 C 216.632 140.683,215.247 144.070,215.038 144.530 C 214.830 144.990,214.393 146.056,214.068 146.899 C 213.742 147.742,213.309 148.808,213.104 149.268 C 212.900 149.728,211.514 153.115,210.024 156.794 C 204.796 169.706,204.619 170.139,200.426 180.348 C 199.638 182.265,198.104 186.028,197.015 188.711 C 194.544 194.799,194.957 194.324,192.222 194.227 L 189.965 194.146 188.986 192.195 C 188.448 191.122,187.420 188.990,186.702 187.456 C 185.984 185.923,184.687 183.164,183.821 181.324 C 182.954 179.484,181.832 177.101,181.328 176.028 C 180.823 174.955,179.819 172.822,179.095 171.289 C 178.371 169.756,177.368 167.624,176.865 166.551 C 176.362 165.477,175.358 163.345,174.634 161.812 C 173.910 160.279,172.970 158.272,172.545 157.352 C 171.640 155.392,169.936 151.760,168.321 148.347 C 166.427 144.346,164.865 141.035,163.757 138.676 C 163.181 137.449,161.787 134.523,160.658 132.172 C 159.530 129.821,158.606 127.839,158.606 127.767 C 158.606 127.695,157.612 125.576,156.397 123.058 C 155.182 120.539,154.107 118.225,154.009 117.915 C 153.412 116.033,153.310 118.733,153.310 136.516 C 153.309 147.056,153.234 159.129,153.142 163.345 L 152.975 171.010 154.569 172.822 C 155.446 173.819,156.557 175.073,157.038 175.610 C 157.519 176.146,159.289 178.153,160.971 180.070 C 162.653 181.986,164.102 183.617,164.191 183.693 C 168.101 187.074,171.129 192.006,170.423 193.845 C 170.234 194.339,128.691 194.539,128.387 194.047 C 128.306 193.916,128.217 193.101,128.188 192.236 L 128.137 190.663 135.567 180.821 L 142.997 170.979 142.997 136.762 L 142.997 102.546 137.762 96.360 C 134.883 92.958,131.559 89.024,130.375 87.618 L 128.223 85.062 128.223 83.274 C 128.223 82.291,128.307 81.402,128.411 81.299 C 128.514 81.196,138.141 81.144,149.804 81.183 L 171.010 81.254 171.718 82.648 " stroke="none" fill="#040404" fill-rule="evenodd"></path><path id="path2" d="M128.351 81.412 C 128.250 81.576,128.242 81.785,128.334 81.877 C 128.426 81.969,128.502 81.898,128.502 81.719 C 128.502 81.474,133.730 81.394,149.680 81.394 L 170.858 81.394 171.410 82.439 C 171.713 83.014,171.966 83.359,171.973 83.206 C 171.979 83.052,171.735 82.519,171.432 82.021 L 170.879 81.115 149.707 81.115 C 135.012 81.115,128.478 81.206,128.351 81.412 M230.649 81.977 C 230.403 82.451,230.258 82.894,230.325 82.962 C 230.393 83.029,230.605 82.705,230.797 82.241 L 231.146 81.397 251.113 81.324 L 271.080 81.251 251.087 81.183 L 231.094 81.115 230.649 81.977 M270.993 83.188 C 270.953 84.446,270.793 85.013,270.321 85.557 L 269.702 86.272 270.476 85.553 C 271.184 84.896,271.242 84.694,271.148 83.184 L 271.046 81.533 270.993 83.188 M128.223 84.922 C 128.223 85.075,128.568 85.503,128.990 85.875 L 129.756 86.551 129.059 85.714 C 128.676 85.254,128.331 84.826,128.293 84.762 C 128.254 84.698,128.223 84.770,128.223 84.922 M172.842 85.436 C 172.842 85.589,173.021 86.028,173.240 86.411 C 173.460 86.794,173.639 86.983,173.639 86.829 C 173.639 86.676,173.460 86.237,173.240 85.854 C 173.021 85.470,172.842 85.282,172.842 85.436 M268.554 87.038 L 267.735 87.944 268.641 87.126 C 269.139 86.675,269.547 86.268,269.547 86.220 C 269.547 86.004,269.317 86.194,268.554 87.038 M132.229 89.837 C 132.976 90.712,133.646 91.429,133.718 91.429 C 133.905 91.429,131.584 88.684,131.194 88.444 C 131.017 88.335,131.482 88.962,132.229 89.837 M133.798 91.795 C 133.798 91.843,134.206 92.250,134.704 92.700 L 135.610 93.519 134.791 92.613 C 134.028 91.769,133.798 91.579,133.798 91.795 M259.434 94.571 L 257.823 96.028 257.902 137.422 L 257.981 178.815 258.046 137.422 L 258.111 96.028 259.717 94.575 C 260.601 93.776,261.261 93.121,261.185 93.119 C 261.108 93.116,260.320 93.770,259.434 94.571 M136.689 95.133 C 137.436 96.009,138.106 96.725,138.178 96.725 C 138.365 96.725,136.044 93.980,135.654 93.740 C 135.476 93.631,135.942 94.258,136.689 95.133 M177.863 96.307 C 177.863 96.460,178.103 97.024,178.397 97.561 C 178.691 98.098,178.931 98.411,178.931 98.258 C 178.931 98.105,178.691 97.540,178.397 97.003 C 178.103 96.467,177.863 96.153,177.863 96.307 M179.811 100.488 C 179.811 100.641,179.990 101.080,180.209 101.463 C 180.428 101.847,180.607 102.035,180.607 101.882 C 180.607 101.728,180.428 101.289,180.209 100.906 C 179.990 100.523,179.811 100.334,179.811 100.488 M143.130 129.477 C 143.130 144.348,143.164 150.391,143.206 142.906 C 143.247 135.420,143.247 123.253,143.205 115.867 C 143.164 108.482,143.130 114.606,143.130 129.477 M181.487 104.111 C 181.487 104.265,181.727 104.829,182.021 105.366 C 182.315 105.902,182.555 106.216,182.555 106.063 C 182.555 105.909,182.315 105.345,182.021 104.808 C 181.727 104.272,181.487 103.958,181.487 104.111 M183.438 108.293 C 183.438 108.446,183.678 109.010,183.972 109.547 C 184.266 110.084,184.506 110.397,184.506 110.244 C 184.506 110.091,184.266 109.526,183.972 108.990 C 183.678 108.453,183.438 108.139,183.438 108.293 M185.391 112.474 C 185.391 112.627,185.693 113.317,186.063 114.007 C 186.432 114.697,186.734 115.136,186.734 114.983 C 186.734 114.829,186.432 114.139,186.063 113.449 C 185.693 112.760,185.391 112.321,185.391 112.474 M226.690 115.591 C 226.281 116.305,226.224 116.849,226.622 116.237 C 226.799 115.965,226.870 126.914,226.826 147.652 C 226.790 165.160,226.854 179.390,226.970 179.274 C 227.085 179.158,227.148 164.646,227.109 147.023 C 227.052 121.224,226.970 115.101,226.690 115.591 M187.058 116.098 C 187.058 116.251,187.237 116.690,187.456 117.073 C 187.676 117.456,187.855 117.645,187.855 117.491 C 187.855 117.338,187.676 116.899,187.456 116.516 C 187.237 116.132,187.058 115.944,187.058 116.098 M153.310 116.761 C 153.310 116.955,153.498 117.301,153.728 117.531 C 154.263 118.065,154.256 117.660,153.719 116.950 C 153.490 116.647,153.310 116.564,153.310 116.761 M154.170 118.328 C 154.170 118.481,154.410 119.045,154.704 119.582 C 154.998 120.118,155.238 120.432,155.238 120.279 C 155.238 120.125,154.998 119.561,154.704 119.024 C 154.410 118.488,154.170 118.174,154.170 118.328 M192.354 127.526 C 192.354 127.679,192.534 128.118,192.753 128.502 C 192.972 128.885,193.151 129.073,193.151 128.920 C 193.151 128.767,192.972 128.328,192.753 127.944 C 192.534 127.561,192.354 127.373,192.354 127.526 M158.633 127.805 C 158.633 127.958,158.997 128.774,159.443 129.617 C 159.888 130.460,160.252 131.024,160.252 130.871 C 160.252 130.718,159.888 129.902,159.443 129.059 C 158.997 128.216,158.633 127.652,158.633 127.805 M194.030 131.150 C 194.030 131.303,194.271 131.868,194.564 132.404 C 194.858 132.941,195.099 133.254,195.099 133.101 C 195.099 132.948,194.858 132.383,194.564 131.847 C 194.271 131.310,194.030 130.997,194.030 131.150 M161.115 133.068 C 161.115 133.368,161.944 134.913,162.105 134.913 C 162.182 134.913,162.037 134.505,161.784 134.007 C 161.266 132.990,161.115 132.777,161.115 133.068 M195.984 135.331 C 195.984 135.484,196.349 136.300,196.794 137.143 C 197.240 137.986,197.604 138.551,197.604 138.397 C 197.604 138.244,197.240 137.429,196.794 136.585 C 196.349 135.742,195.984 135.178,195.984 135.331 M153.159 149.686 C 153.159 155.895,153.195 158.436,153.240 155.331 C 153.285 152.226,153.285 147.146,153.240 144.042 C 153.195 140.937,153.159 143.477,153.159 149.686 M197.935 139.512 C 197.935 139.666,198.237 140.355,198.606 141.045 C 198.976 141.735,199.278 142.174,199.278 142.021 C 199.278 141.868,198.976 141.178,198.606 140.488 C 198.237 139.798,197.935 139.359,197.935 139.512 M200.163 144.251 C 200.163 144.404,200.403 144.969,200.697 145.505 C 200.991 146.042,201.231 146.355,201.231 146.202 C 201.231 146.049,200.991 145.484,200.697 144.948 C 200.403 144.411,200.163 144.098,200.163 144.251 M174.793 162.091 C 174.793 162.244,174.973 162.683,175.192 163.066 C 175.411 163.449,175.590 163.638,175.590 163.484 C 175.590 163.331,175.411 162.892,175.192 162.509 C 174.973 162.125,174.793 161.937,174.793 162.091 M204.923 168.792 C 204.456 169.817,204.545 170.036,205.050 169.104 C 205.286 168.669,205.427 168.261,205.363 168.197 C 205.300 168.133,205.102 168.401,204.923 168.792 M152.829 169.756 C 152.829 170.446,152.883 170.728,152.949 170.383 C 153.016 170.038,153.016 169.474,152.949 169.129 C 152.883 168.784,152.829 169.066,152.829 169.756 M179.257 171.568 C 179.257 171.721,179.497 172.286,179.791 172.822 C 180.085 173.359,180.325 173.672,180.325 173.519 C 180.325 173.366,180.085 172.801,179.791 172.265 C 179.497 171.728,179.257 171.415,179.257 171.568 M154.704 173.240 C 155.224 173.777,155.712 174.216,155.789 174.216 C 155.865 174.216,155.503 173.777,154.983 173.240 C 154.462 172.704,153.974 172.265,153.898 172.265 C 153.821 172.265,154.184 172.704,154.704 173.240 M181.766 176.864 C 181.766 177.017,182.006 177.582,182.300 178.118 C 182.593 178.655,182.834 178.969,182.834 178.815 C 182.834 178.662,182.593 178.098,182.300 177.561 C 182.006 177.024,181.766 176.711,181.766 176.864 M158.885 177.979 C 159.405 178.516,159.893 178.955,159.970 178.955 C 160.047 178.955,159.684 178.516,159.164 177.979 C 158.644 177.443,158.155 177.003,158.079 177.003 C 158.002 177.003,158.365 177.443,158.885 177.979 M260.209 180.906 C 261.119 181.826,261.927 182.578,262.003 182.578 C 262.080 182.578,261.398 181.826,260.488 180.906 C 259.578 179.986,258.770 179.233,258.693 179.233 C 258.617 179.233,259.299 179.986,260.209 180.906 M160.279 179.599 C 160.279 179.647,160.686 180.055,161.185 180.505 L 162.091 181.324 161.272 180.418 C 160.509 179.574,160.279 179.384,160.279 179.599 M224.519 181.254 L 223.136 182.718 224.599 181.335 C 225.404 180.574,226.063 179.915,226.063 179.871 C 226.063 179.663,225.804 179.895,224.519 181.254 M183.713 181.045 C 183.713 181.199,183.892 181.638,184.111 182.021 C 184.331 182.404,184.510 182.592,184.510 182.439 C 184.510 182.286,184.331 181.847,184.111 181.463 C 183.892 181.080,183.713 180.892,183.713 181.045 M162.230 181.829 C 162.230 181.877,162.638 182.285,163.136 182.735 L 164.042 183.554 163.223 182.648 C 162.460 181.804,162.230 181.614,162.230 181.829 M133.641 183.323 C 133.212 183.886,133.003 184.258,133.177 184.151 C 133.534 183.930,134.740 182.300,134.547 182.300 C 134.478 182.300,134.070 182.760,133.641 183.323 M263.554 183.972 C 264.309 184.739,264.989 185.366,265.066 185.366 C 265.143 185.366,264.588 184.739,263.833 183.972 C 263.078 183.206,262.397 182.578,262.321 182.578 C 262.244 182.578,262.799 183.206,263.554 183.972 M220.757 184.739 L 219.233 186.341 220.836 184.818 C 222.325 183.402,222.567 183.136,222.360 183.136 C 222.316 183.136,221.595 183.857,220.757 184.739 M164.181 183.869 C 164.181 184.017,164.714 184.634,165.366 185.240 L 166.551 186.341 165.436 185.091 C 164.822 184.404,164.289 183.787,164.251 183.721 C 164.213 183.655,164.181 183.721,164.181 183.869 M267.038 187.178 C 267.871 188.021,268.615 188.711,268.692 188.711 C 268.768 188.711,268.150 188.021,267.317 187.178 C 266.484 186.334,265.740 185.645,265.664 185.645 C 265.587 185.645,266.206 186.334,267.038 187.178 M186.222 186.341 C 186.222 186.495,186.401 186.934,186.620 187.317 C 186.839 187.700,187.019 187.889,187.019 187.735 C 187.019 187.582,186.839 187.143,186.620 186.760 C 186.401 186.376,186.222 186.188,186.222 186.341 M217.550 187.666 L 216.167 189.129 217.631 187.746 C 218.436 186.985,219.094 186.326,219.094 186.282 C 219.094 186.074,218.836 186.306,217.550 187.666 M167.247 187.456 C 167.767 187.993,168.256 188.432,168.332 188.432 C 168.409 188.432,168.046 187.993,167.526 187.456 C 167.006 186.920,166.518 186.481,166.441 186.481 C 166.365 186.481,166.727 186.920,167.247 187.456 M168.362 188.798 C 168.362 188.846,168.770 189.254,169.268 189.704 L 170.174 190.523 169.356 189.617 C 168.592 188.772,168.362 188.583,168.362 188.798 M214.675 190.202 C 213.559 191.339,213.491 191.499,213.572 192.780 L 213.659 194.146 242.369 194.146 L 271.080 194.146 271.105 192.474 L 271.130 190.801 271.021 192.404 L 270.913 194.007 242.355 194.007 L 213.798 194.007 213.798 192.693 C 213.798 191.525,213.928 191.248,214.971 190.185 C 215.616 189.527,216.081 188.990,216.005 188.990 C 215.928 188.990,215.330 189.535,214.675 190.202 M188.173 190.523 C 188.173 190.676,188.352 191.115,188.571 191.498 C 188.791 191.882,188.970 192.070,188.970 191.916 C 188.970 191.763,188.791 191.324,188.571 190.941 C 188.352 190.557,188.173 190.369,188.173 190.523 M170.397 192.334 C 170.397 193.178,170.449 193.523,170.513 193.101 C 170.577 192.679,170.577 191.990,170.513 191.568 C 170.449 191.146,170.397 191.491,170.397 192.334 M194.751 193.565 C 194.631 193.880,194.015 194.007,192.278 194.078 L 189.965 194.172 192.231 194.229 C 194.348 194.282,195.624 193.859,195.057 193.291 C 194.977 193.212,194.840 193.335,194.751 193.565 M139.422 194.216 C 145.045 194.258,154.327 194.258,160.049 194.216 C 165.771 194.174,161.171 194.139,149.826 194.139 C 138.481 194.139,133.799 194.174,139.422 194.216 " stroke="none" fill="#5a5a5a" fill-rule="evenodd"></path><path id="path3" d="M128.307 83.345 C 128.307 84.188,128.359 84.533,128.423 84.111 C 128.487 83.690,128.487 83.000,128.423 82.578 C 128.359 82.157,128.307 82.502,128.307 83.345 M257.655 98.118 C 257.655 99.268,257.704 99.739,257.764 99.164 C 257.824 98.589,257.824 97.648,257.764 97.073 C 257.704 96.498,257.655 96.969,257.655 98.118 M153.141 134.913 C 153.141 136.983,153.184 137.829,153.238 136.794 C 153.292 135.760,153.292 134.066,153.238 133.031 C 153.184 131.997,153.141 132.843,153.141 134.913 M143.118 163.624 C 143.118 167.686,143.157 169.348,143.205 167.317 C 143.252 165.286,143.252 161.962,143.205 159.930 C 143.157 157.899,143.118 159.561,143.118 163.624 M152.854 165.993 C 152.855 167.526,152.902 168.118,152.958 167.308 C 153.015 166.498,153.014 165.243,152.957 164.520 C 152.900 163.797,152.854 164.460,152.854 165.993 M128.288 192.613 C 128.288 193.150,128.345 193.369,128.415 193.101 C 128.485 192.833,128.485 192.394,128.415 192.125 C 128.345 191.857,128.288 192.077,128.288 192.613 " stroke="none" fill="#747474" fill-rule="evenodd"></path><path id="path4" d="M257.679 105.923 C 257.679 109.220,257.720 110.568,257.769 108.920 C 257.818 107.272,257.818 104.575,257.769 102.927 C 257.720 101.279,257.679 102.627,257.679 105.923 M153.118 129.756 C 153.119 130.676,153.171 131.019,153.233 130.518 C 153.295 130.017,153.294 129.264,153.231 128.845 C 153.167 128.426,153.116 128.836,153.118 129.756 M152.832 162.091 C 152.834 162.857,152.889 163.138,152.953 162.714 C 153.017 162.290,153.015 161.663,152.949 161.320 C 152.883 160.977,152.830 161.324,152.832 162.091 " stroke="none" fill="#7c7c7c" fill-rule="evenodd"></path><path id="path5" d="M128.684 81.603 C 128.567 81.792,143.602 81.790,163.206 81.598 C 167.345 81.557,161.300 81.495,149.773 81.459 C 138.245 81.423,128.755 81.488,128.684 81.603 M231.138 81.726 C 230.953 81.911,230.805 82.194,230.810 82.355 C 230.815 82.516,230.946 82.429,231.102 82.160 C 231.369 81.703,232.616 81.672,251.024 81.672 L 270.662 81.672 270.662 83.289 C 270.662 84.188,270.507 85.079,270.314 85.297 C 270.016 85.630,270.038 85.632,270.465 85.308 C 270.868 85.002,270.949 84.600,270.883 83.231 L 270.801 81.533 251.138 81.462 C 236.075 81.407,231.395 81.469,231.138 81.726 M173.682 87.944 C 173.682 88.098,173.922 88.662,174.216 89.199 C 174.510 89.735,174.750 90.049,174.750 89.895 C 174.750 89.742,174.510 89.178,174.216 88.641 C 173.922 88.105,173.682 87.791,173.682 87.944 M134.355 92.073 C 134.355 92.121,134.763 92.529,135.261 92.979 L 136.167 93.798 135.349 92.892 C 134.585 92.048,134.355 91.858,134.355 92.073 M175.633 92.125 C 175.633 92.279,175.873 92.843,176.167 93.380 C 176.461 93.916,176.701 94.230,176.701 94.077 C 176.701 93.923,176.461 93.359,176.167 92.822 C 175.873 92.286,175.633 91.972,175.633 92.125 M259.791 93.977 L 258.258 95.393 259.720 94.222 C 261.003 93.195,261.681 92.524,261.410 92.552 C 261.363 92.557,260.634 93.198,259.791 93.977 M177.586 96.307 C 177.586 96.460,177.888 97.150,178.258 97.840 C 178.627 98.530,178.930 98.969,178.930 98.815 C 178.930 98.662,178.627 97.972,178.258 97.282 C 177.888 96.592,177.586 96.153,177.586 96.307 M140.156 98.815 C 140.769 99.582,141.734 100.711,142.300 101.324 C 143.305 102.412,143.303 102.406,142.214 101.045 C 141.600 100.279,140.635 99.150,140.069 98.537 C 139.065 97.448,139.067 97.455,140.156 98.815 M179.257 99.930 C 179.257 100.084,179.497 100.648,179.791 101.185 C 180.085 101.721,180.325 102.035,180.325 101.882 C 180.325 101.728,180.085 101.164,179.791 100.627 C 179.497 100.091,179.257 99.777,179.257 99.930 M143.404 115.679 C 143.404 122.962,143.440 125.941,143.484 122.300 C 143.528 118.659,143.528 112.700,143.484 109.059 C 143.440 105.418,143.404 108.397,143.404 115.679 M183.434 108.850 C 183.434 109.003,183.614 109.443,183.833 109.826 C 184.052 110.209,184.231 110.397,184.231 110.244 C 184.231 110.091,184.052 109.652,183.833 109.268 C 183.614 108.885,183.434 108.697,183.434 108.850 M257.696 145.226 C 257.696 163.700,257.729 171.258,257.770 162.021 C 257.811 152.784,257.811 137.669,257.770 128.432 C 257.729 119.195,257.696 126.753,257.696 145.226 M226.515 114.994 C 226.235 115.724,226.331 115.864,226.698 115.261 C 226.968 114.820,227.068 121.404,227.180 146.899 L 227.322 179.094 227.319 146.922 C 227.317 115.582,227.254 113.069,226.515 114.994 M186.783 116.098 C 186.783 116.251,187.023 116.815,187.317 117.352 C 187.611 117.889,187.851 118.202,187.851 118.049 C 187.851 117.895,187.611 117.331,187.317 116.794 C 187.023 116.258,186.783 115.944,186.783 116.098 M153.095 122.300 L 153.159 128.362 153.240 122.426 C 153.292 118.641,153.420 116.551,153.594 116.659 C 153.745 116.751,153.868 116.694,153.868 116.532 C 153.868 116.370,153.679 116.237,153.449 116.237 C 153.089 116.237,153.040 117.068,153.095 122.300 M154.727 118.885 C 154.727 119.038,154.968 119.603,155.261 120.139 C 155.555 120.676,155.795 120.990,155.795 120.836 C 155.795 120.683,155.555 120.118,155.261 119.582 C 154.968 119.045,154.727 118.732,154.727 118.885 M189.009 120.836 C 189.009 120.990,189.189 121.429,189.408 121.812 C 189.627 122.195,189.806 122.383,189.806 122.230 C 189.806 122.077,189.627 121.638,189.408 121.254 C 189.189 120.871,189.009 120.683,189.009 120.836 M190.130 123.345 C 190.130 123.498,190.432 124.188,190.801 124.878 C 191.171 125.568,191.473 126.007,191.473 125.854 C 191.473 125.700,191.171 125.010,190.801 124.321 C 190.432 123.631,190.130 123.192,190.130 123.345 M157.236 124.181 C 157.236 124.334,157.476 124.899,157.770 125.436 C 158.064 125.972,158.304 126.286,158.304 126.132 C 158.304 125.979,158.064 125.415,157.770 124.878 C 157.476 124.341,157.236 124.028,157.236 124.181 M192.358 128.084 C 192.358 128.237,192.598 128.801,192.892 129.338 C 193.186 129.875,193.426 130.188,193.426 130.035 C 193.426 129.882,193.186 129.317,192.892 128.780 C 192.598 128.244,192.358 127.930,192.358 128.084 M159.462 128.920 C 159.462 129.073,159.642 129.512,159.861 129.895 C 160.080 130.279,160.259 130.467,160.259 130.314 C 160.259 130.160,160.080 129.721,159.861 129.338 C 159.642 128.955,159.462 128.767,159.462 128.920 M194.305 132.265 C 194.305 132.418,194.485 132.857,194.704 133.240 C 194.923 133.624,195.102 133.812,195.102 133.659 C 195.102 133.505,194.923 133.066,194.704 132.683 C 194.485 132.300,194.305 132.111,194.305 132.265 M161.971 134.216 C 161.971 134.369,162.150 134.808,162.369 135.192 C 162.588 135.575,162.768 135.763,162.768 135.610 C 162.768 135.456,162.588 135.017,162.369 134.634 C 162.150 134.251,161.971 134.063,161.971 134.216 M195.978 135.889 C 195.978 136.042,196.157 136.481,196.376 136.864 C 196.595 137.247,196.775 137.436,196.775 137.282 C 196.775 137.129,196.595 136.690,196.376 136.307 C 196.157 135.923,195.978 135.735,195.978 135.889 M152.881 148.711 C 152.881 155.456,152.917 158.176,152.961 154.755 C 153.006 151.333,153.006 145.814,152.961 142.490 C 152.917 139.166,152.881 141.965,152.881 148.711 M163.929 138.397 C 163.929 138.551,164.293 139.366,164.739 140.209 C 165.184 141.052,165.549 141.617,165.549 141.463 C 165.549 141.310,165.184 140.495,164.739 139.652 C 164.293 138.808,163.929 138.244,163.929 138.397 M166.435 143.693 C 166.435 143.847,166.675 144.411,166.969 144.948 C 167.262 145.484,167.503 145.798,167.503 145.645 C 167.503 145.491,167.262 144.927,166.969 144.390 C 166.675 143.854,166.435 143.540,166.435 143.693 M168.389 147.875 C 168.389 148.028,168.753 148.843,169.199 149.686 C 169.644 150.530,170.009 151.094,170.009 150.941 C 170.009 150.787,169.644 149.972,169.199 149.129 C 168.753 148.286,168.389 147.721,168.389 147.875 M201.553 147.875 C 201.553 148.028,201.732 148.467,201.951 148.850 C 202.170 149.233,202.350 149.422,202.350 149.268 C 202.350 149.115,202.170 148.676,201.951 148.293 C 201.732 147.909,201.553 147.721,201.553 147.875 M203.345 149.407 C 203.226 149.782,203.003 149.947,202.748 149.849 C 202.520 149.762,202.415 149.814,202.511 149.968 C 202.604 150.120,202.795 150.244,202.933 150.244 C 203.237 150.244,203.865 149.138,203.672 148.945 C 203.597 148.870,203.450 149.078,203.345 149.407 M171.344 154.282 C 171.599 154.817,171.857 155.205,171.917 155.144 C 172.045 155.017,171.199 153.310,171.008 153.310 C 170.938 153.310,171.089 153.748,171.344 154.282 M172.842 157.352 C 172.842 157.505,173.021 157.944,173.240 158.328 C 173.460 158.711,173.639 158.899,173.639 158.746 C 173.639 158.592,173.460 158.153,173.240 157.770 C 173.021 157.387,172.842 157.199,172.842 157.352 M175.351 162.648 C 175.351 162.801,175.530 163.240,175.749 163.624 C 175.968 164.007,176.147 164.195,176.147 164.042 C 176.147 163.889,175.968 163.449,175.749 163.066 C 175.530 162.683,175.351 162.495,175.351 162.648 M152.521 167.997 C 152.495 169.713,152.568 171.175,152.683 171.247 C 152.798 171.319,152.858 170.354,152.817 169.103 C 152.688 165.196,152.569 164.754,152.521 167.997 M177.307 166.829 C 177.307 166.983,177.610 167.672,177.979 168.362 C 178.349 169.052,178.651 169.491,178.651 169.338 C 178.651 169.185,178.349 168.495,177.979 167.805 C 177.610 167.115,177.307 166.676,177.307 166.829 M178.981 170.453 C 178.981 170.606,179.345 171.422,179.791 172.265 C 180.236 173.108,180.601 173.672,180.601 173.519 C 180.601 173.366,180.236 172.551,179.791 171.707 C 179.345 170.864,178.981 170.300,178.981 170.453 M141.246 173.659 C 140.212 175.038,139.425 176.167,139.497 176.167 C 139.623 176.167,142.686 172.200,143.102 171.498 C 143.657 170.561,142.945 171.390,141.246 173.659 M153.310 172.073 C 153.310 172.121,153.718 172.529,154.216 172.979 L 155.122 173.798 154.303 172.892 C 153.540 172.048,153.310 171.858,153.310 172.073 M157.038 176.252 C 158.245 177.585,159.293 178.676,159.367 178.676 C 159.548 178.676,155.558 174.259,155.158 174.018 C 154.985 173.913,155.831 174.918,157.038 176.252 M201.719 175.935 C 201.467 176.577,201.306 177.148,201.362 177.204 C 201.418 177.260,201.672 176.783,201.928 176.144 C 202.184 175.505,202.344 174.934,202.285 174.875 C 202.226 174.816,201.971 175.293,201.719 175.935 M181.487 175.749 C 181.487 175.902,181.727 176.467,182.021 177.003 C 182.315 177.540,182.555 177.854,182.555 177.700 C 182.555 177.547,182.315 176.983,182.021 176.446 C 181.727 175.909,181.487 175.596,181.487 175.749 M138.380 177.469 C 137.950 178.032,137.742 178.405,137.916 178.297 C 138.272 178.077,139.479 176.446,139.286 176.446 C 139.217 176.446,138.809 176.906,138.380 177.469 M160.279 179.930 C 160.799 180.467,161.287 180.906,161.364 180.906 C 161.440 180.906,161.078 180.467,160.557 179.930 C 160.037 179.394,159.549 178.955,159.473 178.955 C 159.396 178.955,159.759 179.394,160.279 179.930 M260.906 181.882 C 261.739 182.725,262.483 183.415,262.559 183.415 C 262.636 183.415,262.017 182.725,261.185 181.882 C 260.352 181.038,259.608 180.348,259.531 180.348 C 259.455 180.348,260.073 181.038,260.906 181.882 M223.962 182.091 L 222.578 183.554 224.042 182.171 C 225.402 180.885,225.633 180.627,225.425 180.627 C 225.381 180.627,224.722 181.286,223.962 182.091 M183.995 181.045 C 183.995 181.199,184.236 181.763,184.530 182.300 C 184.823 182.836,185.064 183.150,185.064 182.997 C 185.064 182.843,184.823 182.279,184.530 181.742 C 184.236 181.206,183.995 180.892,183.995 181.045 M162.230 182.160 C 162.750 182.697,163.238 183.136,163.315 183.136 C 163.392 183.136,163.029 182.697,162.509 182.160 C 161.989 181.624,161.500 181.185,161.424 181.185 C 161.347 181.185,161.710 181.624,162.230 182.160 M262.857 183.491 C 262.857 183.568,264.362 185.039,266.202 186.760 C 268.042 188.481,269.547 189.826,269.547 189.749 C 269.547 189.673,268.042 188.202,266.202 186.481 C 264.362 184.760,262.857 183.415,262.857 183.491 M164.477 184.690 C 165.004 185.315,165.492 185.782,165.561 185.726 C 165.630 185.671,165.199 185.160,164.603 184.590 L 163.519 183.554 164.477 184.690 M220.200 185.575 L 218.676 187.178 220.279 185.654 C 221.768 184.239,222.009 183.972,221.802 183.972 C 221.759 183.972,221.038 184.693,220.200 185.575 M185.947 185.226 C 185.947 185.380,186.187 185.944,186.481 186.481 C 186.775 187.017,187.015 187.331,187.015 187.178 C 187.015 187.024,186.775 186.460,186.481 185.923 C 186.187 185.387,185.947 185.073,185.947 185.226 M165.854 186.289 C 165.854 186.337,166.261 186.745,166.760 187.195 L 167.666 188.014 166.847 187.108 C 166.084 186.264,165.854 186.074,165.854 186.289 M216.098 189.227 C 213.839 191.350,212.998 193.201,214.007 193.825 C 214.122 193.896,214.172 193.397,214.117 192.716 C 214.020 191.487,214.035 191.463,216.347 189.271 C 217.628 188.057,218.613 187.064,218.537 187.065 C 218.460 187.065,217.362 188.038,216.098 189.227 M168.362 189.129 C 168.882 189.666,169.371 190.105,169.447 190.105 C 169.524 190.105,169.161 189.666,168.641 189.129 C 168.121 188.592,167.633 188.153,167.556 188.153 C 167.479 188.153,167.842 188.592,168.362 189.129 M188.455 190.523 C 188.455 190.676,188.696 191.240,188.990 191.777 C 189.283 192.314,189.524 192.627,189.524 192.474 C 189.524 192.321,189.283 191.756,188.990 191.220 C 188.696 190.683,188.455 190.369,188.455 190.523 M169.994 192.104 C 170.062 193.073,169.974 193.603,169.716 193.785 C 169.410 193.999,169.418 194.028,169.756 193.937 C 170.217 193.812,170.519 191.314,170.121 190.915 C 169.997 190.791,169.940 191.326,169.994 192.104 M270.618 192.474 C 270.566 193.318,270.617 194.008,270.732 194.007 C 270.847 194.007,270.941 193.317,270.941 192.474 C 270.941 190.495,270.741 190.495,270.618 192.474 " stroke="none" fill="#848484" fill-rule="evenodd"></path></g></svg>