<svg id="svg" version="1.1" xmlns="http://www.w3.org/2000/svg" xmlns:xlink="http://www.w3.org/1999/xlink" width="400" height="278.7018255578093" viewBox="0, 0, 400,278.7018255578093"><g id="svgg"><path id="path0" d="M191.359 83.198 C 179.165 85.290,169.385 90.095,161.003 98.114 C 132.633 125.254,139.319 171.297,174.314 189.789 C 176.843 191.125,176.689 191.285,176.846 187.149 C 177.061 181.519,176.903 182.322,182.299 159.443 C 185.426 146.184,185.210 147.732,184.322 144.957 C 181.009 134.609,186.209 123.630,194.425 123.628 C 201.668 123.627,204.232 131.163,200.408 141.212 C 195.568 153.924,196.295 160.208,202.875 162.557 C 211.235 165.541,219.892 157.141,222.710 143.312 C 225.635 128.959,222.215 118.746,212.956 114.187 C 204.377 109.964,192.482 110.699,184.487 115.948 C 173.365 123.249,169.100 139.894,176.025 148.967 C 177.605 151.037,177.626 151.209,176.725 154.750 C 175.624 159.078,174.940 159.699,172.472 158.608 C 160.712 153.406,157.722 133.929,166.484 119.604 C 178.670 99.680,210.219 95.068,227.306 110.712 C 238.813 121.247,241.199 138.916,233.341 155.409 C 225.392 172.094,205.676 178.732,195.075 168.294 C 194.154 167.387,193.376 166.687,193.346 166.737 C 193.316 166.788,192.434 170.279,191.386 174.495 C 189.323 182.801,188.123 186.219,185.771 190.501 C 184.935 192.022,184.251 193.360,184.251 193.476 C 184.251 194.286,197.918 196.421,200.836 196.067 C 201.296 196.011,203.491 195.769,205.714 195.530 C 242.963 191.518,265.945 153.109,252.106 117.997 C 242.662 94.037,216.279 78.923,191.359 83.198 " stroke="none" fill="#fbfafa" fill-rule="evenodd"></path><path id="path1" d="M0.000 139.373 L 0.000 278.746 200.000 278.746 L 400.000 278.746 400.000 139.373 L 400.000 0.000 200.000 0.000 L 0.000 0.000 0.000 139.373 M208.920 82.751 C 220.544 84.821,230.360 89.729,238.841 97.709 C 247.672 106.019,253.815 117.440,255.855 129.338 C 262.680 169.154,227.515 203.369,188.153 195.210 C 183.086 194.160,183.081 194.155,184.341 192.040 C 187.306 187.065,188.407 184.071,190.945 174.077 C 193.296 164.817,192.996 165.278,195.146 167.624 C 205.865 179.322,229.227 169.539,234.653 151.080 C 238.958 136.434,238.170 126.238,232.014 116.902 C 223.500 103.993,204.896 98.603,187.596 104.034 C 168.446 110.045,157.799 129.077,163.449 147.199 C 164.876 151.776,167.889 155.493,172.019 157.769 C 174.696 159.245,175.149 158.931,176.152 154.899 C 177.012 151.446,176.984 151.123,175.682 149.381 C 170.607 142.590,171.123 131.456,176.915 122.729 C 187.636 106.577,214.755 106.872,222.264 123.223 C 226.683 132.845,223.449 151.199,215.978 158.890 C 208.581 166.507,198.000 164.534,196.367 155.233 C 196.134 153.906,196.380 152.912,199.777 141.463 C 201.736 134.862,202.081 130.664,200.877 128.084 C 198.089 122.108,189.947 122.823,186.104 129.381 C 183.632 133.600,183.283 142.164,185.407 146.508 C 185.731 147.169,185.597 147.841,182.697 160.139 C 181.684 164.432,180.668 168.760,180.438 169.756 C 180.208 170.753,179.856 172.258,179.655 173.101 C 177.796 180.902,177.282 184.386,177.282 189.177 C 177.282 191.790,177.267 191.803,175.349 190.897 C 149.565 178.711,136.769 148.551,145.742 121.115 C 147.649 115.285,150.654 109.639,154.537 104.595 C 164.526 91.616,178.520 83.841,194.983 82.122 C 197.624 81.846,205.948 82.222,208.920 82.751 " stroke="none" fill="#cb2323" fill-rule="evenodd"></path><path id="path2" d="M192.962 82.701 C 193.230 82.771,193.669 82.771,193.937 82.701 C 194.206 82.631,193.986 82.573,193.449 82.573 C 192.913 82.573,192.693 82.631,192.962 82.701 M159.575 99.024 L 157.352 101.324 159.652 99.101 C 161.787 97.036,162.078 96.725,161.875 96.725 C 161.833 96.725,160.798 97.760,159.575 99.024 M228.153 112.056 C 229.064 112.976,229.871 113.728,229.948 113.728 C 230.024 113.728,229.342 112.976,228.432 112.056 C 227.522 111.136,226.714 110.383,226.638 110.383 C 226.561 110.383,227.243 111.136,228.153 112.056 M199.233 111.145 C 199.885 111.204,200.951 111.204,201.603 111.145 C 202.254 111.086,201.721 111.038,200.418 111.038 C 199.115 111.038,198.582 111.086,199.233 111.145 M217.422 116.882 C 217.422 116.930,217.829 117.337,218.328 117.788 L 219.233 118.606 218.415 117.700 C 217.652 116.856,217.422 116.666,217.422 116.882 M198.746 124.965 C 198.746 125.013,199.153 125.421,199.652 125.871 L 200.557 126.690 199.739 125.784 C 198.976 124.940,198.746 124.750,198.746 124.965 M223.897 130.732 C 223.897 131.268,223.955 131.488,224.025 131.220 C 224.095 130.951,224.095 130.512,224.025 130.244 C 223.955 129.976,223.897 130.195,223.897 130.732 M201.888 132.125 C 201.888 132.815,201.942 133.098,202.009 132.753 C 202.075 132.408,202.075 131.843,202.009 131.498 C 201.942 131.153,201.888 131.436,201.888 132.125 M237.589 134.355 C 237.589 135.659,237.637 136.192,237.695 135.540 C 237.754 134.889,237.754 133.822,237.695 133.171 C 237.637 132.519,237.589 133.052,237.589 134.355 M256.243 134.913 C 256.243 135.603,256.298 135.885,256.364 135.540 C 256.430 135.195,256.430 134.631,256.364 134.286 C 256.298 133.941,256.243 134.223,256.243 134.913 M143.111 139.373 C 143.111 142.056,143.153 143.153,143.204 141.812 C 143.255 140.470,143.255 138.275,143.204 136.934 C 143.153 135.592,143.111 136.690,143.111 139.373 M223.912 136.167 C 223.915 136.934,223.969 137.214,224.033 136.791 C 224.097 136.367,224.095 135.740,224.029 135.397 C 223.963 135.054,223.910 135.401,223.912 136.167 M172.356 138.397 C 172.358 139.470,172.408 139.875,172.468 139.297 C 172.529 138.719,172.528 137.841,172.466 137.346 C 172.404 136.851,172.355 137.324,172.356 138.397 M256.542 139.233 C 256.543 140.460,256.592 140.927,256.650 140.271 C 256.709 139.616,256.709 138.612,256.649 138.041 C 256.589 137.471,256.541 138.007,256.542 139.233 M256.243 143.554 C 256.243 144.244,256.298 144.526,256.364 144.181 C 256.430 143.836,256.430 143.272,256.364 142.927 C 256.298 142.582,256.243 142.864,256.243 143.554 M196.595 154.564 C 196.597 155.331,196.652 155.612,196.716 155.188 C 196.780 154.764,196.778 154.137,196.712 153.794 C 196.646 153.451,196.593 153.798,196.595 154.564 M167.805 155.122 C 168.325 155.659,168.813 156.098,168.890 156.098 C 168.967 156.098,168.604 155.659,168.084 155.122 C 167.564 154.585,167.075 154.146,166.999 154.146 C 166.922 154.146,167.285 154.585,167.805 155.122 M215.313 159.233 L 214.495 160.139 215.401 159.321 C 215.899 158.870,216.307 158.463,216.307 158.415 C 216.307 158.199,216.077 158.389,215.313 159.233 M226.332 164.948 L 224.808 166.551 226.411 165.027 C 227.900 163.611,228.142 163.345,227.935 163.345 C 227.891 163.345,227.170 164.066,226.332 164.948 M159.582 179.512 C 160.647 180.585,161.581 181.463,161.658 181.463 C 161.734 181.463,160.926 180.585,159.861 179.512 C 158.796 178.439,157.862 177.561,157.785 177.561 C 157.708 177.561,158.517 178.439,159.582 179.512 M177.104 188.711 C 177.104 190.167,177.151 190.763,177.208 190.035 C 177.266 189.307,177.266 188.115,177.208 187.387 C 177.151 186.659,177.104 187.254,177.104 188.711 " stroke="none" fill="#dd6f73" fill-rule="evenodd"></path><path id="path3" d="M195.892 82.427 C 196.238 82.494,196.740 82.491,197.007 82.421 C 197.273 82.352,196.990 82.297,196.376 82.300 C 195.763 82.303,195.545 82.360,195.892 82.427 M202.578 82.427 C 202.923 82.493,203.488 82.493,203.833 82.427 C 204.178 82.360,203.895 82.306,203.206 82.306 C 202.516 82.306,202.233 82.360,202.578 82.427 M200.488 101.668 C 201.216 101.726,202.408 101.726,203.136 101.668 C 203.864 101.611,203.268 101.564,201.812 101.564 C 200.355 101.564,199.760 101.611,200.488 101.668 M180.192 119.094 L 179.373 120.000 180.279 119.181 C 180.777 118.731,181.185 118.323,181.185 118.275 C 181.185 118.060,180.955 118.250,180.192 119.094 M223.922 133.240 C 223.922 134.237,223.973 134.645,224.034 134.146 C 224.096 133.648,224.096 132.833,224.034 132.334 C 223.973 131.836,223.922 132.244,223.922 133.240 M161.480 137.003 C 161.482 137.923,161.534 138.266,161.596 137.765 C 161.658 137.264,161.657 136.511,161.593 136.093 C 161.529 135.674,161.479 136.084,161.480 137.003 M205.509 163.266 C 205.933 163.330,206.560 163.329,206.903 163.262 C 207.246 163.196,206.899 163.144,206.132 163.146 C 205.366 163.148,205.085 163.202,205.509 163.266 M206.899 173.014 C 207.167 173.085,207.606 173.085,207.875 173.014 C 208.143 172.944,207.923 172.887,207.387 172.887 C 206.850 172.887,206.631 172.944,206.899 173.014 M239.571 179.582 L 238.188 181.045 239.652 179.662 C 241.011 178.377,241.243 178.118,241.035 178.118 C 240.991 178.118,240.332 178.777,239.571 179.582 M197.285 196.155 C 197.632 196.222,198.134 196.219,198.400 196.150 C 198.667 196.080,198.383 196.025,197.770 196.028 C 197.157 196.032,196.939 196.089,197.285 196.155 M201.467 196.155 C 201.813 196.222,202.315 196.219,202.582 196.150 C 202.848 196.080,202.564 196.025,201.951 196.028 C 201.338 196.032,201.120 196.089,201.467 196.155 " stroke="none" fill="#e48c94" fill-rule="evenodd"></path><path id="path4" d="M198.545 82.435 C 199.278 82.493,200.407 82.492,201.054 82.434 C 201.701 82.375,201.101 82.328,199.721 82.329 C 198.341 82.330,197.812 82.378,198.545 82.435 M175.889 87.666 C 175.505 87.885,175.317 88.064,175.470 88.064 C 175.624 88.064,176.063 87.885,176.446 87.666 C 176.829 87.446,177.017 87.267,176.864 87.267 C 176.711 87.267,176.272 87.446,175.889 87.666 M237.213 96.864 C 237.733 97.401,238.221 97.840,238.298 97.840 C 238.374 97.840,238.011 97.401,237.491 96.864 C 236.971 96.328,236.483 95.889,236.406 95.889 C 236.330 95.889,236.692 96.328,237.213 96.864 M159.716 99.164 L 157.073 101.882 159.791 99.239 C 161.286 97.786,162.509 96.563,162.509 96.521 C 162.509 96.319,162.170 96.640,159.716 99.164 M241.533 101.185 C 242.132 101.798,242.685 102.300,242.761 102.300 C 242.838 102.300,242.411 101.798,241.812 101.185 C 241.213 100.571,240.660 100.070,240.584 100.070 C 240.507 100.070,240.934 100.571,241.533 101.185 M197.561 101.660 C 197.906 101.727,198.470 101.727,198.815 101.660 C 199.160 101.594,198.878 101.539,198.188 101.539 C 197.498 101.539,197.216 101.594,197.561 101.660 M204.812 101.661 C 205.158 101.727,205.660 101.725,205.927 101.655 C 206.193 101.585,205.909 101.531,205.296 101.534 C 204.683 101.537,204.465 101.594,204.812 101.661 M194.634 101.934 C 194.902 102.004,195.341 102.004,195.610 101.934 C 195.878 101.864,195.659 101.807,195.122 101.807 C 194.585 101.807,194.366 101.864,194.634 101.934 M222.439 107.125 C 222.439 107.190,222.972 107.595,223.624 108.024 C 224.275 108.454,224.661 108.627,224.481 108.410 C 224.136 107.991,222.439 106.924,222.439 107.125 M176.929 108.581 C 176.357 108.970,175.889 109.348,175.889 109.422 C 175.889 109.495,176.390 109.223,177.003 108.817 C 177.977 108.173,178.306 107.875,178.044 107.875 C 178.003 107.875,177.501 108.193,176.929 108.581 M228.153 111.777 C 229.218 112.850,230.152 113.728,230.229 113.728 C 230.306 113.728,229.497 112.850,228.432 111.777 C 227.367 110.704,226.433 109.826,226.356 109.826 C 226.280 109.826,227.088 110.704,228.153 111.777 M171.701 113.101 L 169.338 115.540 171.777 113.177 C 173.118 111.877,174.216 110.780,174.216 110.738 C 174.216 110.535,173.896 110.836,171.701 113.101 M198.537 111.426 C 199.571 111.480,201.265 111.480,202.300 111.426 C 203.334 111.373,202.488 111.329,200.418 111.329 C 198.348 111.329,197.502 111.373,198.537 111.426 M149.826 112.334 C 149.588 112.794,149.456 113.171,149.533 113.171 C 149.609 113.171,149.867 112.794,150.105 112.334 C 150.342 111.875,150.474 111.498,150.398 111.498 C 150.321 111.498,150.064 111.875,149.826 112.334 M211.312 113.276 C 211.598 113.534,213.798 114.561,213.798 114.436 C 213.798 114.278,211.694 113.171,211.393 113.171 C 211.285 113.171,211.249 113.218,211.312 113.276 M148.624 114.717 C 147.784 116.446,147.878 116.688,148.743 115.025 C 149.130 114.282,149.398 113.626,149.340 113.568 C 149.282 113.509,148.960 114.027,148.624 114.717 M217.840 117.631 C 218.439 118.244,218.991 118.746,219.068 118.746 C 219.145 118.746,218.717 118.244,218.118 117.631 C 217.520 117.017,216.967 116.516,216.890 116.516 C 216.814 116.516,217.241 117.017,217.840 117.631 M167.591 117.840 C 166.869 118.882,166.635 119.303,166.776 119.303 C 166.841 119.303,167.227 118.801,167.632 118.188 C 168.457 116.942,168.421 116.640,167.591 117.840 M234.203 119.994 C 234.536 120.680,234.857 121.194,234.915 121.136 C 235.041 121.010,233.915 118.746,233.726 118.746 C 233.655 118.746,233.869 119.307,234.203 119.994 M146.372 120.170 C 146.201 120.663,146.109 121.115,146.169 121.174 C 146.228 121.234,146.418 120.880,146.589 120.387 C 146.761 119.895,146.853 119.443,146.793 119.383 C 146.733 119.323,146.544 119.678,146.372 120.170 M253.140 120.697 C 253.140 120.927,253.248 121.366,253.380 121.672 C 253.531 122.024,253.619 122.075,253.619 121.812 C 253.619 121.582,253.512 121.143,253.380 120.836 C 253.229 120.485,253.140 120.433,253.140 120.697 M177.561 122.369 C 177.233 122.829,177.028 123.206,177.105 123.206 C 177.182 123.206,177.512 122.829,177.840 122.369 C 178.167 121.909,178.372 121.533,178.296 121.533 C 178.219 121.533,177.888 121.909,177.561 122.369 M199.582 125.575 C 200.102 126.111,200.590 126.551,200.667 126.551 C 200.744 126.551,200.381 126.111,199.861 125.575 C 199.341 125.038,198.852 124.599,198.776 124.599 C 198.699 124.599,199.062 125.038,199.582 125.575 M162.389 128.940 C 162.287 129.348,162.257 129.736,162.322 129.802 C 162.388 129.868,162.526 129.587,162.628 129.179 C 162.731 128.770,162.761 128.382,162.695 128.316 C 162.629 128.251,162.492 128.531,162.389 128.940 M223.624 130.314 C 223.627 130.927,223.684 131.145,223.751 130.798 C 223.818 130.451,223.815 129.950,223.746 129.683 C 223.676 129.417,223.621 129.700,223.624 130.314 M143.624 132.265 C 143.627 132.878,143.684 133.096,143.751 132.749 C 143.818 132.403,143.815 131.901,143.746 131.634 C 143.676 131.368,143.621 131.652,143.624 132.265 M255.975 134.495 C 255.976 135.415,256.028 135.757,256.091 135.256 C 256.153 134.755,256.151 134.003,256.088 133.584 C 256.024 133.165,255.973 133.575,255.975 134.495 M161.470 134.355 C 161.470 135.045,161.524 135.328,161.590 134.983 C 161.657 134.638,161.657 134.073,161.590 133.728 C 161.524 133.383,161.470 133.666,161.470 134.355 M237.835 134.355 C 237.835 134.892,237.892 135.111,237.962 134.843 C 238.032 134.575,238.032 134.136,237.962 133.868 C 237.892 133.599,237.835 133.819,237.835 134.355 M223.640 136.725 C 223.642 137.645,223.694 137.987,223.756 137.486 C 223.818 136.985,223.817 136.233,223.753 135.814 C 223.690 135.395,223.639 135.805,223.640 136.725 M172.623 136.725 C 172.625 137.491,172.680 137.772,172.744 137.348 C 172.808 136.924,172.806 136.297,172.740 135.954 C 172.674 135.612,172.621 135.958,172.623 136.725 M183.485 136.446 C 183.488 137.059,183.545 137.277,183.612 136.931 C 183.678 136.584,183.676 136.082,183.606 135.816 C 183.536 135.549,183.482 135.833,183.485 136.446 M237.562 138.676 C 237.565 139.289,237.622 139.507,237.688 139.161 C 237.755 138.814,237.753 138.312,237.683 138.046 C 237.613 137.779,237.558 138.063,237.562 138.676 M256.265 139.930 C 256.265 141.233,256.313 141.767,256.371 141.115 C 256.430 140.463,256.430 139.397,256.371 138.746 C 256.313 138.094,256.265 138.627,256.265 139.930 M161.473 139.791 C 161.476 140.557,161.530 140.838,161.594 140.414 C 161.658 139.991,161.656 139.363,161.590 139.021 C 161.524 138.678,161.471 139.024,161.473 139.791 M172.619 139.930 C 172.619 140.620,172.674 140.902,172.740 140.557 C 172.807 140.213,172.807 139.648,172.740 139.303 C 172.674 138.958,172.619 139.240,172.619 139.930 M183.491 140.209 C 183.491 140.899,183.545 141.181,183.611 140.836 C 183.678 140.491,183.678 139.927,183.611 139.582 C 183.545 139.237,183.491 139.519,183.491 140.209 M237.277 141.324 C 237.277 141.861,237.335 142.080,237.405 141.812 C 237.475 141.544,237.475 141.105,237.405 140.836 C 237.335 140.568,237.277 140.787,237.277 141.324 M172.870 142.300 C 172.865 142.606,172.969 143.108,173.101 143.415 C 173.406 144.125,173.406 143.392,173.101 142.439 C 172.922 141.879,172.876 141.851,172.870 142.300 M255.972 143.833 C 255.972 144.676,256.024 145.021,256.088 144.599 C 256.152 144.178,256.152 143.488,256.088 143.066 C 256.024 142.645,255.972 142.990,255.972 143.833 M143.630 146.063 C 143.630 146.753,143.684 147.035,143.751 146.690 C 143.817 146.345,143.817 145.780,143.751 145.436 C 143.684 145.091,143.630 145.373,143.630 146.063 M198.069 148.173 C 197.966 148.582,197.936 148.970,198.002 149.035 C 198.067 149.101,198.205 148.821,198.308 148.412 C 198.410 148.004,198.440 147.616,198.375 147.550 C 198.309 147.484,198.171 147.765,198.069 148.173 M176.445 149.895 C 176.810 150.394,177.152 150.801,177.205 150.801 C 177.417 150.801,176.726 149.756,176.269 149.385 C 175.967 149.140,176.035 149.335,176.445 149.895 M196.886 154.564 C 196.887 155.638,196.938 156.042,196.998 155.464 C 197.058 154.886,197.057 154.008,196.996 153.513 C 196.934 153.018,196.885 153.491,196.886 154.564 M176.605 154.306 C 176.503 154.714,176.473 155.102,176.538 155.168 C 176.604 155.234,176.742 154.953,176.844 154.545 C 176.947 154.136,176.977 153.748,176.911 153.682 C 176.845 153.617,176.708 153.897,176.605 154.306 M167.666 155.261 C 168.264 155.875,168.817 156.376,168.894 156.376 C 168.970 156.376,168.543 155.875,167.944 155.261 C 167.345 154.648,166.793 154.146,166.716 154.146 C 166.639 154.146,167.067 154.648,167.666 155.261 M253.436 156.571 C 253.262 157.138,253.165 157.648,253.222 157.705 C 253.278 157.761,253.475 157.352,253.659 156.794 C 253.842 156.237,253.939 155.727,253.872 155.661 C 253.806 155.595,253.610 156.004,253.436 156.571 M146.222 157.770 C 146.325 158.153,146.525 158.655,146.667 158.885 C 146.847 159.176,146.869 159.091,146.739 158.606 C 146.637 158.223,146.437 157.721,146.294 157.491 C 146.115 157.201,146.093 157.286,146.222 157.770 M215.192 159.024 C 214.515 159.714,214.023 160.279,214.100 160.279 C 214.177 160.279,214.793 159.714,215.470 159.024 C 216.147 158.334,216.639 157.770,216.562 157.770 C 216.485 157.770,215.869 158.334,215.192 159.024 M148.293 162.888 C 148.293 163.191,149.956 166.411,150.113 166.411 C 150.189 166.411,149.859 165.627,149.379 164.669 C 148.468 162.853,148.293 162.565,148.293 162.888 M226.612 164.948 L 224.808 166.829 226.690 165.025 C 227.725 164.033,228.571 163.187,228.571 163.144 C 228.571 162.939,228.288 163.200,226.612 164.948 M180.209 168.084 C 180.103 168.565,180.075 169.018,180.146 169.089 C 180.217 169.160,180.355 168.817,180.453 168.328 C 180.551 167.838,180.579 167.385,180.516 167.322 C 180.453 167.259,180.315 167.602,180.209 168.084 M205.090 173.019 C 205.437 173.086,205.939 173.084,206.205 173.014 C 206.472 172.944,206.188 172.890,205.575 172.893 C 204.962 172.896,204.744 172.953,205.090 173.019 M208.854 173.022 C 209.278 173.086,209.905 173.085,210.248 173.019 C 210.591 172.952,210.244 172.900,209.477 172.902 C 208.711 172.904,208.430 172.958,208.854 173.022 M155.819 175.139 C 155.819 175.187,156.226 175.595,156.725 176.045 L 157.631 176.864 156.812 175.958 C 156.049 175.114,155.819 174.924,155.819 175.139 M241.394 177.422 C 240.717 178.111,240.225 178.676,240.302 178.676 C 240.379 178.676,240.995 178.111,241.672 177.422 C 242.350 176.732,242.841 176.167,242.764 176.167 C 242.688 176.167,242.071 176.732,241.394 177.422 M159.721 179.373 C 161.018 180.676,162.141 181.742,162.218 181.742 C 162.294 181.742,161.296 180.676,160.000 179.373 C 158.704 178.070,157.580 177.003,157.504 177.003 C 157.427 177.003,158.425 178.070,159.721 179.373 M237.339 181.533 L 236.237 182.718 237.422 181.616 C 238.523 180.591,238.734 180.348,238.523 180.348 C 238.478 180.348,237.945 180.882,237.339 181.533 M189.149 182.180 C 189.046 182.589,189.016 182.977,189.082 183.042 C 189.148 183.108,189.285 182.828,189.388 182.419 C 189.490 182.011,189.520 181.623,189.455 181.557 C 189.389 181.491,189.251 181.772,189.149 182.180 M177.083 183.833 C 177.085 184.599,177.139 184.880,177.204 184.456 C 177.268 184.032,177.266 183.405,177.200 183.062 C 177.134 182.720,177.081 183.066,177.083 183.833 M232.334 185.530 L 231.498 186.248 232.404 185.649 C 232.902 185.319,233.310 184.995,233.310 184.929 C 233.310 184.720,233.192 184.793,232.334 185.530 M176.820 188.293 C 176.821 189.519,176.870 189.986,176.929 189.331 C 176.988 188.675,176.987 187.672,176.927 187.101 C 176.867 186.530,176.819 187.066,176.820 188.293 M186.539 188.580 C 186.050 189.572,185.710 190.383,185.783 190.383 C 185.969 190.383,187.655 187.004,187.530 186.880 C 187.474 186.823,187.028 187.589,186.539 188.580 M222.439 191.080 C 222.056 191.299,221.868 191.479,222.021 191.479 C 222.174 191.479,222.613 191.299,222.997 191.080 C 223.380 190.861,223.568 190.682,223.415 190.682 C 223.261 190.682,222.822 190.861,222.439 191.080 M214.216 194.007 C 213.865 194.158,213.813 194.247,214.077 194.247 C 214.307 194.247,214.746 194.139,215.052 194.007 C 215.404 193.856,215.455 193.767,215.192 193.767 C 214.962 193.767,214.523 193.875,214.216 194.007 M192.125 195.593 C 192.394 195.663,192.833 195.663,193.101 195.593 C 193.369 195.523,193.150 195.465,192.613 195.465 C 192.077 195.465,191.857 195.523,192.125 195.593 M206.341 195.593 C 206.610 195.663,207.049 195.663,207.317 195.593 C 207.585 195.523,207.366 195.465,206.829 195.465 C 206.293 195.465,206.073 195.523,206.341 195.593 M195.056 195.877 C 195.402 195.943,195.904 195.941,196.170 195.871 C 196.437 195.801,196.153 195.747,195.540 195.750 C 194.927 195.753,194.709 195.810,195.056 195.877 M203.697 195.877 C 204.043 195.943,204.545 195.941,204.812 195.871 C 205.078 195.801,204.794 195.747,204.181 195.750 C 203.568 195.753,203.350 195.810,203.697 195.877 " stroke="none" fill="#e49494" fill-rule="evenodd"></path><path id="path5" d="M197.688 82.158 C 198.716 82.211,200.472 82.211,201.591 82.158 C 202.709 82.105,201.868 82.062,199.721 82.061 C 197.575 82.061,196.660 82.104,197.688 82.158 M193.240 82.422 C 193.509 82.492,193.948 82.492,194.216 82.422 C 194.484 82.352,194.265 82.295,193.728 82.295 C 193.192 82.295,192.972 82.352,193.240 82.422 M205.226 82.422 C 205.495 82.492,205.934 82.492,206.202 82.422 C 206.470 82.352,206.251 82.295,205.714 82.295 C 205.178 82.295,204.958 82.352,205.226 82.422 M184.111 84.181 C 183.760 84.332,183.709 84.421,183.972 84.421 C 184.202 84.421,184.641 84.313,184.948 84.181 C 185.299 84.030,185.351 83.942,185.087 83.942 C 184.857 83.942,184.418 84.049,184.111 84.181 M181.045 85.147 C 179.969 85.640,180.469 85.647,181.742 85.157 C 182.279 84.950,182.530 84.777,182.300 84.772 C 182.070 84.768,181.505 84.936,181.045 85.147 M175.331 87.526 C 174.488 87.972,173.923 88.336,174.077 88.336 C 174.230 88.336,175.045 87.972,175.889 87.526 C 176.732 87.081,177.296 86.716,177.143 86.716 C 176.990 86.716,176.174 87.081,175.331 87.526 M222.718 87.108 C 223.101 87.327,223.540 87.506,223.693 87.506 C 223.847 87.506,223.659 87.327,223.275 87.108 C 222.892 86.889,222.453 86.710,222.300 86.710 C 222.146 86.710,222.334 86.889,222.718 87.108 M239.721 98.815 C 241.018 100.118,242.141 101.185,242.218 101.185 C 242.294 101.185,241.296 100.118,240.000 98.815 C 238.704 97.512,237.580 96.446,237.504 96.446 C 237.427 96.446,238.425 97.512,239.721 98.815 M199.639 101.949 C 200.668 102.002,202.424 102.002,203.542 101.949 C 204.660 101.896,203.819 101.853,201.672 101.852 C 199.526 101.852,198.611 101.895,199.639 101.949 M209.338 102.578 C 209.721 102.701,210.286 102.802,210.592 102.802 C 211.034 102.802,211.005 102.755,210.453 102.578 C 210.070 102.456,209.505 102.355,209.199 102.355 C 208.757 102.355,208.786 102.402,209.338 102.578 M218.537 105.505 C 218.920 105.724,219.359 105.904,219.512 105.904 C 219.666 105.904,219.477 105.724,219.094 105.505 C 218.711 105.286,218.272 105.107,218.118 105.107 C 217.965 105.107,218.153 105.286,218.537 105.505 M199.930 110.854 C 200.199 110.924,200.638 110.924,200.906 110.854 C 201.174 110.784,200.955 110.727,200.418 110.727 C 199.882 110.727,199.662 110.784,199.930 110.854 M196.864 111.133 C 197.132 111.203,197.571 111.203,197.840 111.133 C 198.108 111.063,197.889 111.005,197.352 111.005 C 196.815 111.005,196.596 111.063,196.864 111.133 M202.997 111.133 C 203.265 111.203,203.704 111.203,203.972 111.133 C 204.240 111.063,204.021 111.005,203.484 111.005 C 202.948 111.005,202.728 111.063,202.997 111.133 M207.387 111.777 C 208.340 112.082,209.073 112.082,208.362 111.777 C 208.056 111.645,207.554 111.541,207.247 111.546 C 206.799 111.552,206.827 111.598,207.387 111.777 M171.834 113.240 L 170.732 114.425 171.916 113.323 C 173.018 112.298,173.229 112.056,173.018 112.056 C 172.973 112.056,172.440 112.589,171.834 113.240 M180.062 118.955 L 178.258 120.836 180.139 119.032 C 181.174 118.040,182.021 117.194,182.021 117.151 C 182.021 116.946,181.737 117.207,180.062 118.955 M234.445 121.115 C 234.445 121.268,234.624 121.707,234.843 122.091 C 235.062 122.474,235.242 122.662,235.242 122.509 C 235.242 122.355,235.062 121.916,234.843 121.533 C 234.624 121.150,234.445 120.962,234.445 121.115 M165.063 122.799 C 164.596 123.824,164.685 124.043,165.190 123.111 C 165.426 122.676,165.566 122.268,165.503 122.204 C 165.439 122.140,165.241 122.408,165.063 122.799 M192.474 124.028 C 192.155 124.157,192.751 124.192,193.868 124.111 C 194.941 124.032,195.871 123.922,195.935 123.866 C 196.167 123.661,193.016 123.808,192.474 124.028 M199.303 125.854 C 199.823 126.390,200.311 126.829,200.388 126.829 C 200.465 126.829,200.102 126.390,199.582 125.854 C 199.062 125.317,198.574 124.878,198.497 124.878 C 198.420 124.878,198.783 125.317,199.303 125.854 M254.821 125.157 C 254.835 125.881,255.274 127.071,255.284 126.411 C 255.288 126.105,255.184 125.603,255.052 125.296 C 254.905 124.955,254.816 124.901,254.821 125.157 M187.860 126.760 L 186.899 127.805 187.944 126.844 C 188.917 125.950,189.118 125.714,188.905 125.714 C 188.858 125.714,188.388 126.185,187.860 126.760 M236.415 126.829 C 236.415 127.059,236.523 127.498,236.655 127.805 C 236.806 128.156,236.895 128.208,236.895 127.944 C 236.895 127.714,236.787 127.275,236.655 126.969 C 236.504 126.617,236.415 126.566,236.415 126.829 M201.632 132.265 C 201.631 133.645,201.678 134.244,201.737 133.597 C 201.795 132.950,201.796 131.821,201.738 131.089 C 201.681 130.356,201.633 130.885,201.632 132.265 M237.292 132.265 C 237.294 133.031,237.348 133.312,237.413 132.888 C 237.477 132.464,237.475 131.837,237.409 131.494 C 237.343 131.152,237.290 131.498,237.292 132.265 M224.205 133.240 C 224.205 134.390,224.254 134.861,224.315 134.286 C 224.375 133.711,224.375 132.770,224.315 132.195 C 224.254 131.620,224.205 132.091,224.205 133.240 M256.232 132.962 C 256.232 133.498,256.289 133.718,256.359 133.449 C 256.430 133.181,256.430 132.742,256.359 132.474 C 256.289 132.206,256.232 132.425,256.232 132.962 M161.773 137.143 C 161.773 138.599,161.820 139.195,161.877 138.467 C 161.935 137.739,161.935 136.547,161.877 135.819 C 161.820 135.091,161.773 135.686,161.773 137.143 M172.335 135.610 C 172.338 136.223,172.395 136.441,172.462 136.094 C 172.529 135.748,172.526 135.246,172.456 134.979 C 172.387 134.713,172.332 134.997,172.335 135.610 M237.302 136.864 C 237.302 137.861,237.352 138.268,237.414 137.770 C 237.476 137.272,237.476 136.456,237.414 135.958 C 237.352 135.460,237.302 135.868,237.302 136.864 M183.792 138.397 C 183.791 139.777,183.839 140.377,183.897 139.730 C 183.956 139.083,183.956 137.954,183.899 137.221 C 183.841 136.488,183.793 137.017,183.792 138.397 M200.856 137.302 C 200.754 137.711,200.723 138.099,200.789 138.164 C 200.855 138.230,200.993 137.950,201.095 137.541 C 201.198 137.133,201.228 136.745,201.162 136.679 C 201.096 136.613,200.959 136.894,200.856 137.302 M223.897 138.258 C 223.897 138.794,223.955 139.014,224.025 138.746 C 224.095 138.477,224.095 138.038,224.025 137.770 C 223.955 137.502,223.897 137.721,223.897 138.258 M172.329 141.045 C 172.329 141.582,172.387 141.801,172.457 141.533 C 172.527 141.265,172.527 140.826,172.457 140.557 C 172.387 140.289,172.329 140.509,172.329 141.045 M184.290 143.554 C 184.290 143.784,184.398 144.223,184.530 144.530 C 184.681 144.881,184.769 144.933,184.769 144.669 C 184.769 144.439,184.661 144.000,184.530 143.693 C 184.379 143.342,184.290 143.290,184.290 143.554 M256.232 145.505 C 256.232 146.042,256.289 146.261,256.359 145.993 C 256.430 145.725,256.430 145.286,256.359 145.017 C 256.289 144.749,256.232 144.969,256.232 145.505 M198.347 145.943 C 198.245 146.352,198.215 146.740,198.280 146.805 C 198.346 146.871,198.484 146.591,198.586 146.182 C 198.689 145.774,198.719 145.386,198.653 145.320 C 198.588 145.254,198.450 145.535,198.347 145.943 M185.333 147.239 C 185.461 148.013,185.500 148.052,185.588 147.494 C 185.645 147.131,185.577 146.720,185.436 146.579 C 185.282 146.425,185.241 146.685,185.333 147.239 M235.699 147.337 C 235.597 147.745,235.567 148.133,235.632 148.199 C 235.698 148.265,235.836 147.984,235.938 147.576 C 236.041 147.167,236.071 146.779,236.005 146.714 C 235.940 146.648,235.802 146.928,235.699 147.337 M255.777 148.321 C 255.675 148.959,255.646 149.537,255.712 149.603 C 255.779 149.670,255.921 149.205,256.028 148.571 C 256.135 147.938,256.164 147.360,256.093 147.289 C 256.021 147.217,255.879 147.682,255.777 148.321 M184.425 151.672 C 184.327 152.162,184.299 152.615,184.362 152.678 C 184.425 152.741,184.563 152.398,184.669 151.916 C 184.775 151.435,184.803 150.982,184.732 150.911 C 184.661 150.840,184.523 151.183,184.425 151.672 M219.848 152.900 C 219.437 153.739,219.159 154.425,219.232 154.425 C 219.419 154.425,220.825 151.604,220.700 151.478 C 220.643 151.421,220.260 152.061,219.848 152.900 M254.948 152.509 C 254.850 152.998,254.821 153.451,254.884 153.514 C 254.948 153.577,255.086 153.234,255.192 152.753 C 255.297 152.271,255.326 151.818,255.255 151.747 C 255.184 151.676,255.046 152.019,254.948 152.509 M166.411 153.397 C 166.411 153.445,166.819 153.853,167.317 154.303 L 168.223 155.122 167.404 154.216 C 166.641 153.372,166.411 153.182,166.411 153.397 M196.302 154.425 C 196.302 154.962,196.359 155.181,196.429 154.913 C 196.499 154.645,196.499 154.206,196.429 153.937 C 196.359 153.669,196.302 153.889,196.302 154.425 M232.946 155.125 C 232.691 155.660,232.540 156.098,232.611 156.098 C 232.801 156.098,233.648 154.391,233.520 154.263 C 233.460 154.203,233.201 154.591,232.946 155.125 M253.993 156.014 C 253.819 156.581,253.723 157.091,253.779 157.147 C 253.836 157.204,254.032 156.794,254.216 156.237 C 254.400 155.680,254.496 155.170,254.430 155.104 C 254.364 155.037,254.167 155.447,253.993 156.014 M217.131 157.282 C 216.613 157.934,216.410 158.290,216.679 158.074 C 217.186 157.666,218.381 156.098,218.184 156.098 C 218.123 156.098,217.649 156.631,217.131 157.282 M169.996 156.747 C 170.441 157.284,173.108 158.692,173.306 158.495 C 173.398 158.403,173.350 158.328,173.201 158.328 C 173.051 158.328,172.199 157.888,171.308 157.351 C 170.417 156.815,169.826 156.543,169.996 156.747 M147.197 161.254 C 147.197 161.408,147.377 161.847,147.596 162.230 C 147.815 162.613,147.994 162.801,147.994 162.648 C 147.994 162.495,147.815 162.056,147.596 161.672 C 147.377 161.289,147.197 161.101,147.197 161.254 M227.441 163.554 L 226.481 164.599 227.526 163.639 C 228.499 162.745,228.700 162.509,228.487 162.509 C 228.440 162.509,227.970 162.979,227.441 163.554 M202.648 163.053 C 202.878 163.209,203.307 163.338,203.600 163.341 C 204.314 163.346,204.091 163.187,203.066 162.958 C 202.455 162.821,202.343 162.847,202.648 163.053 M208.780 163.066 C 208.206 163.250,208.182 163.294,208.641 163.313 C 208.948 163.326,209.387 163.215,209.617 163.066 C 210.105 162.751,209.766 162.751,208.780 163.066 M205.087 163.547 C 205.585 163.608,206.401 163.608,206.899 163.547 C 207.397 163.485,206.990 163.434,205.993 163.434 C 204.997 163.434,204.589 163.485,205.087 163.547 M223.972 166.860 L 222.857 167.858 224.042 166.972 C 225.061 166.209,225.429 165.842,225.157 165.858 C 225.118 165.860,224.585 166.311,223.972 166.860 M195.261 168.084 C 195.860 168.697,196.413 169.199,196.489 169.199 C 196.566 169.199,196.139 168.697,195.540 168.084 C 194.941 167.470,194.389 166.969,194.312 166.969 C 194.235 166.969,194.663 167.470,195.261 168.084 M191.936 169.915 C 191.834 170.324,191.804 170.712,191.869 170.778 C 191.935 170.843,192.073 170.563,192.175 170.154 C 192.278 169.746,192.308 169.358,192.242 169.292 C 192.176 169.226,192.039 169.507,191.936 169.915 M219.373 169.756 C 218.836 170.050,218.498 170.295,218.620 170.302 C 218.916 170.317,220.488 169.500,220.488 169.331 C 220.488 169.148,220.471 169.155,219.373 169.756 M179.950 170.752 C 179.848 171.160,179.818 171.548,179.883 171.614 C 179.949 171.680,180.087 171.399,180.189 170.991 C 180.292 170.582,180.322 170.194,180.256 170.128 C 180.190 170.063,180.053 170.343,179.950 170.752 M191.100 173.260 C 190.998 173.669,190.967 174.057,191.033 174.123 C 191.099 174.188,191.236 173.908,191.339 173.499 C 191.442 173.091,191.472 172.703,191.406 172.637 C 191.340 172.571,191.203 172.852,191.100 173.260 M206.350 172.749 C 207.083 172.806,208.212 172.806,208.859 172.747 C 209.506 172.689,208.906 172.642,207.526 172.642 C 206.146 172.643,205.617 172.691,206.350 172.749 M179.129 174.251 C 179.031 174.741,179.002 175.193,179.066 175.256 C 179.129 175.319,179.267 174.977,179.373 174.495 C 179.479 174.013,179.507 173.561,179.436 173.490 C 179.365 173.419,179.227 173.761,179.129 174.251 M156.098 175.976 C 156.098 176.024,156.505 176.431,157.003 176.882 L 157.909 177.700 157.091 176.794 C 156.328 175.950,156.098 175.760,156.098 175.976 M239.576 179.861 L 237.073 182.439 239.652 179.936 C 241.070 178.560,242.230 177.399,242.230 177.358 C 242.230 177.155,241.901 177.466,239.576 179.861 M159.152 179.303 C 159.836 180.031,160.431 180.627,160.476 180.627 C 160.685 180.627,160.464 180.377,159.233 179.222 L 157.909 177.979 159.152 179.303 M161.672 181.551 C 161.672 181.599,162.080 182.006,162.578 182.457 L 163.484 183.275 162.666 182.369 C 161.902 181.525,161.672 181.335,161.672 181.551 M188.463 183.167 C 188.291 183.659,188.200 184.111,188.259 184.171 C 188.319 184.231,188.508 183.876,188.680 183.384 C 188.852 182.891,188.943 182.439,188.884 182.380 C 188.824 182.320,188.635 182.674,188.463 183.167 M177.358 184.530 C 177.358 185.220,177.413 185.502,177.479 185.157 C 177.545 184.812,177.545 184.247,177.479 183.902 C 177.413 183.557,177.358 183.840,177.358 184.530 M222.160 191.638 C 221.777 191.857,221.589 192.036,221.742 192.036 C 221.895 192.036,222.334 191.857,222.718 191.638 C 223.101 191.419,223.289 191.239,223.136 191.239 C 222.983 191.239,222.544 191.419,222.160 191.638 M193.802 196.158 C 194.225 196.222,194.853 196.221,195.195 196.154 C 195.538 196.088,195.192 196.036,194.425 196.038 C 193.659 196.040,193.378 196.094,193.802 196.158 M204.530 196.155 C 204.875 196.221,205.439 196.221,205.784 196.155 C 206.129 196.088,205.847 196.034,205.157 196.034 C 204.467 196.034,204.185 196.088,204.530 196.155 M196.864 196.437 C 197.286 196.500,197.976 196.500,198.397 196.437 C 198.819 196.373,198.474 196.320,197.631 196.320 C 196.787 196.320,196.443 196.373,196.864 196.437 M201.328 196.437 C 201.752 196.501,202.379 196.499,202.722 196.433 C 203.064 196.367,202.718 196.315,201.951 196.317 C 201.185 196.319,200.904 196.373,201.328 196.437 " stroke="none" fill="#d4484c" fill-rule="evenodd"></path></g></svg>