<svg id="svg" version="1.1" xmlns="http://www.w3.org/2000/svg" xmlns:xlink="http://www.w3.org/1999/xlink" width="400" height="278.7018255578093" viewBox="0, 0, 400,278.7018255578093"><g id="svgg"><path id="path0" d="M241.951 84.600 C 238.189 85.445,235.038 87.609,232.334 91.206 L 231.777 91.948 228.850 91.403 C 205.153 86.991,200.524 90.188,198.540 112.334 L 198.328 114.704 197.073 114.777 C 183.763 115.553,172.524 118.247,163.639 122.792 C 160.049 124.628,160.610 124.614,158.521 122.921 C 149.410 115.536,136.196 117.090,131.134 126.142 C 126.694 134.081,129.971 145.377,138.432 151.295 L 139.302 151.904 139.447 155.882 C 140.663 189.387,199.904 207.032,239.024 185.541 C 252.570 178.100,260.092 167.738,260.550 155.884 L 260.704 151.907 262.042 150.925 C 267.315 147.055,270.941 140.165,270.941 134.016 C 270.941 119.694,254.010 113.172,241.745 122.769 C 239.374 124.624,239.858 124.591,236.949 123.091 C 228.196 118.580,217.913 115.911,205.640 114.965 C 202.686 114.737,202.928 115.142,203.227 110.940 C 204.282 96.132,206.671 93.521,218.327 94.438 C 227.783 95.182,230.676 95.933,230.414 97.573 C 228.760 107.912,241.542 116.256,251.518 111.350 C 266.322 104.070,258.065 80.982,241.951 84.600 M148.986 123.484 C 151.070 124.016,153.777 125.339,155.261 126.548 L 155.958 127.116 155.261 127.683 C 154.878 127.995,153.453 129.154,152.094 130.258 C 147.273 134.175,142.810 140.145,141.165 144.878 C 140.571 146.587,140.310 146.657,139.096 145.436 C 128.699 134.980,135.440 120.019,148.986 123.484 M257.650 123.344 C 267.117 125.809,268.952 137.029,261.219 145.157 C 259.700 146.754,259.521 146.682,258.418 144.035 C 256.034 138.308,251.685 132.985,245.695 128.463 C 243.844 127.065,243.845 127.105,245.645 125.918 C 249.692 123.250,253.858 122.356,257.650 123.344 M180.016 144.288 C 185.293 145.822,187.363 152.734,183.794 156.903 C 178.837 162.695,169.491 159.387,169.480 151.838 C 169.472 146.302,174.515 142.689,180.016 144.288 M224.890 144.671 C 228.538 146.240,230.468 150.558,229.169 154.243 C 226.530 161.729,216.314 161.688,213.670 154.181 C 211.428 147.814,218.420 141.887,224.890 144.671 M176.631 172.921 C 189.674 177.875,208.932 177.875,221.975 172.921 C 225.590 171.549,225.988 171.871,224.535 174.993 C 218.425 188.116,180.755 188.328,174.232 175.275 C 172.551 171.911,172.947 171.522,176.631 172.921 " stroke="none" fill="#fcfaf9" fill-rule="evenodd"></path><path id="path1" d="M0.000 139.373 L 0.000 278.746 200.000 278.746 L 400.000 278.746 400.000 139.373 L 400.000 0.000 200.000 0.000 L 0.000 0.000 0.000 139.373 M249.591 84.521 C 259.158 87.831,262.910 98.504,257.414 106.772 C 249.438 118.769,230.267 113.425,229.891 99.100 L 229.826 96.597 228.293 96.282 C 220.987 94.777,211.034 94.383,208.920 95.515 C 206.004 97.075,204.080 103.230,203.694 112.232 L 203.609 114.219 205.986 114.404 C 218.233 115.359,227.793 117.894,237.430 122.741 C 238.893 123.477,239.812 123.797,239.939 123.614 C 242.013 120.632,249.204 117.776,254.634 117.780 C 272.230 117.791,277.646 139.144,263.008 150.792 L 261.122 152.293 261.295 153.553 C 261.677 156.341,260.395 162.814,258.743 166.437 C 247.836 190.363,207.749 202.241,173.937 191.566 C 171.714 190.864,169.331 190.052,168.641 189.761 C 167.951 189.470,167.136 189.128,166.829 189.000 C 153.799 183.575,141.667 171.939,140.027 163.293 C 139.931 162.785,139.747 162.164,139.620 161.914 C 139.236 161.161,138.568 154.935,138.726 153.583 L 138.873 152.322 136.823 150.640 C 130.422 145.384,127.227 136.930,129.026 130.007 C 132.235 117.652,147.326 113.688,158.517 122.259 L 160.522 123.795 162.700 122.681 C 163.898 122.069,165.443 121.320,166.132 121.018 C 166.822 120.716,167.860 120.262,168.438 120.010 C 174.743 117.254,185.693 114.913,194.744 114.385 L 197.850 114.204 198.035 111.806 C 199.717 89.928,204.617 86.691,229.661 90.914 C 231.718 91.261,231.728 91.260,232.169 90.579 C 235.752 85.044,243.408 82.382,249.591 84.521 M142.212 123.920 C 135.217 125.802,132.564 133.182,136.201 140.642 C 137.460 143.222,140.069 146.180,140.369 145.366 C 142.538 139.467,148.859 131.412,153.981 128.020 C 155.459 127.040,155.402 126.928,152.684 125.468 C 149.389 123.698,145.290 123.091,142.212 123.920 M251.150 124.012 C 249.107 124.569,246.552 125.722,245.464 126.578 L 244.736 127.151 246.479 128.431 C 251.514 132.126,256.779 138.584,258.949 143.726 C 259.931 146.054,259.805 146.020,261.297 144.361 C 270.324 134.322,263.503 120.643,251.150 124.012 M175.277 144.780 C 173.895 145.152,173.520 145.380,172.039 146.745 C 166.579 151.778,172.571 161.381,179.672 158.977 C 189.184 155.757,184.978 142.169,175.277 144.780 M219.573 144.679 C 213.826 146.115,211.948 152.917,216.151 157.074 C 221.858 162.718,231.360 156.785,228.567 149.321 C 227.270 145.853,223.226 143.767,219.573 144.679 M174.079 173.408 C 176.361 183.996,203.110 188.278,218.026 180.443 C 221.414 178.664,224.669 175.006,224.669 172.979 C 224.669 172.514,223.968 172.378,223.711 172.793 C 223.350 173.377,216.020 175.408,210.592 176.428 C 205.308 177.421,193.353 177.423,188.014 176.432 C 182.927 175.488,177.626 174.026,174.394 172.677 C 173.927 172.482,173.895 172.555,174.079 173.408 " stroke="none" fill="#fc4304" fill-rule="evenodd"></path><path id="path2" d="M211.777 89.674 C 212.122 89.741,212.686 89.741,213.031 89.674 C 213.376 89.608,213.094 89.553,212.404 89.553 C 211.714 89.553,211.432 89.608,211.777 89.674 M216.380 89.677 C 216.804 89.741,217.431 89.740,217.774 89.674 C 218.117 89.607,217.770 89.555,217.003 89.557 C 216.237 89.559,215.956 89.613,216.380 89.677 M211.359 94.687 C 211.627 94.757,212.066 94.757,212.334 94.687 C 212.603 94.617,212.383 94.559,211.847 94.559 C 211.310 94.559,211.091 94.617,211.359 94.687 M217.076 94.692 C 217.423 94.759,217.925 94.756,218.191 94.686 C 218.458 94.617,218.174 94.562,217.561 94.565 C 216.948 94.568,216.730 94.625,217.076 94.692 M229.584 96.355 C 229.758 96.482,229.970 96.836,230.054 97.143 C 230.175 97.582,230.197 97.558,230.156 97.025 C 230.128 96.654,229.916 96.300,229.686 96.238 C 229.410 96.163,229.376 96.203,229.584 96.355 M255.179 109.059 L 254.077 110.244 255.261 109.142 C 256.363 108.117,256.574 107.875,256.363 107.875 C 256.318 107.875,255.785 108.408,255.179 109.059 M203.549 110.105 C 203.549 110.641,203.606 110.861,203.676 110.592 C 203.747 110.324,203.747 109.885,203.676 109.617 C 203.606 109.348,203.549 109.568,203.549 110.105 M198.258 111.638 C 198.262 112.251,198.319 112.469,198.385 112.122 C 198.452 111.775,198.449 111.274,198.380 111.007 C 198.310 110.741,198.255 111.024,198.258 111.638 M203.270 113.449 C 203.270 113.986,203.328 114.206,203.398 113.937 C 203.468 113.669,203.468 113.230,203.398 112.962 C 203.328 112.693,203.270 112.913,203.270 113.449 M193.662 114.762 C 194.009 114.828,194.510 114.826,194.777 114.756 C 195.043 114.686,194.760 114.632,194.146 114.635 C 193.533 114.638,193.315 114.695,193.662 114.762 M205.369 114.762 C 205.716 114.828,206.218 114.826,206.484 114.756 C 206.751 114.686,206.467 114.632,205.854 114.635 C 205.240 114.638,205.022 114.695,205.369 114.762 M144.314 123.407 C 144.809 123.468,145.687 123.469,146.266 123.409 C 146.844 123.349,146.439 123.298,145.366 123.297 C 144.293 123.296,143.820 123.345,144.314 123.407 M253.583 123.407 C 254.077 123.468,254.956 123.469,255.534 123.409 C 256.112 123.349,255.707 123.298,254.634 123.297 C 253.561 123.296,253.088 123.345,253.583 123.407 M265.715 134.216 C 265.718 134.829,265.775 135.047,265.842 134.701 C 265.908 134.354,265.906 133.852,265.836 133.586 C 265.766 133.319,265.712 133.603,265.715 134.216 M215.592 146.690 L 214.774 147.596 215.679 146.777 C 216.178 146.327,216.585 145.919,216.585 145.871 C 216.585 145.656,216.355 145.845,215.592 146.690 M135.052 148.850 C 135.807 149.617,136.488 150.244,136.564 150.244 C 136.641 150.244,136.086 149.617,135.331 148.850 C 134.576 148.084,133.896 147.456,133.819 147.456 C 133.742 147.456,134.297 148.084,135.052 148.850 M264.520 149.059 L 262.997 150.662 264.599 149.138 C 266.088 147.723,266.330 147.456,266.123 147.456 C 266.079 147.456,265.358 148.178,264.520 149.059 M213.603 151.916 C 213.603 152.760,213.655 153.105,213.719 152.683 C 213.783 152.261,213.783 151.571,213.719 151.150 C 213.655 150.728,213.603 151.073,213.603 151.916 M229.205 151.916 C 229.205 152.606,229.259 152.889,229.326 152.544 C 229.392 152.199,229.392 151.634,229.326 151.289 C 229.259 150.944,229.205 151.226,229.205 151.916 M138.902 154.843 C 138.903 155.763,138.955 156.106,139.017 155.605 C 139.079 155.104,139.078 154.351,139.015 153.932 C 138.951 153.513,138.900 153.923,138.902 154.843 M260.986 154.843 C 260.988 155.610,261.042 155.890,261.106 155.467 C 261.170 155.043,261.168 154.416,261.102 154.073 C 261.036 153.730,260.984 154.077,260.986 154.843 M177.073 159.635 C 177.341 159.705,177.780 159.705,178.049 159.635 C 178.317 159.565,178.098 159.507,177.561 159.507 C 177.024 159.507,176.805 159.565,177.073 159.635 M148.293 176.533 C 148.293 176.581,148.700 176.989,149.199 177.439 L 150.105 178.258 149.286 177.352 C 148.523 176.507,148.293 176.318,148.293 176.533 M194.077 176.917 C 194.345 176.987,194.784 176.987,195.052 176.917 C 195.321 176.847,195.101 176.789,194.564 176.789 C 194.028 176.789,193.808 176.847,194.077 176.917 M203.554 176.917 C 203.822 176.987,204.261 176.987,204.530 176.917 C 204.798 176.847,204.578 176.789,204.042 176.789 C 203.505 176.789,203.286 176.847,203.554 176.917 M197.156 184.737 C 198.351 184.789,200.232 184.789,201.337 184.736 C 202.441 184.684,201.463 184.641,199.164 184.641 C 196.864 184.641,195.960 184.685,197.156 184.737 M197.408 195.329 C 198.741 195.380,200.999 195.381,202.425 195.330 C 203.851 195.279,202.760 195.237,200.000 195.237 C 197.240 195.237,196.074 195.278,197.408 195.329 " stroke="none" fill="#fc815c" fill-rule="evenodd"></path><path id="path3" d="M214.007 89.674 C 214.352 89.741,214.916 89.741,215.261 89.674 C 215.606 89.608,215.324 89.553,214.634 89.553 C 213.944 89.553,213.662 89.608,214.007 89.674 M230.035 98.537 C 230.039 99.150,230.096 99.368,230.162 99.021 C 230.229 98.674,230.226 98.173,230.157 97.906 C 230.087 97.640,230.032 97.923,230.035 98.537 M259.592 98.815 C 259.594 99.582,259.648 99.862,259.712 99.439 C 259.776 99.015,259.775 98.388,259.708 98.045 C 259.642 97.702,259.590 98.049,259.592 98.815 M133.362 122.718 L 132.544 123.624 133.449 122.805 C 133.948 122.355,134.355 121.947,134.355 121.899 C 134.355 121.684,134.125 121.873,133.362 122.718 M250.592 132.544 C 251.425 133.387,252.169 134.077,252.246 134.077 C 252.322 134.077,251.704 133.387,250.871 132.544 C 250.038 131.700,249.294 131.010,249.218 131.010 C 249.141 131.010,249.760 131.700,250.592 132.544 M128.845 132.962 C 128.845 133.498,128.903 133.718,128.973 133.449 C 129.043 133.181,129.043 132.742,128.973 132.474 C 128.903 132.206,128.845 132.425,128.845 132.962 M260.749 145.296 L 259.930 146.202 260.836 145.383 C 261.334 144.933,261.742 144.525,261.742 144.477 C 261.742 144.262,261.512 144.452,260.749 145.296 M169.553 151.916 C 169.553 152.606,169.608 152.889,169.674 152.544 C 169.741 152.199,169.741 151.634,169.674 151.289 C 169.608 150.944,169.553 151.226,169.553 151.916 M196.032 176.925 C 196.455 176.989,197.083 176.987,197.425 176.921 C 197.768 176.855,197.422 176.802,196.655 176.804 C 195.889 176.807,195.608 176.861,196.032 176.925 M201.328 176.925 C 201.752 176.989,202.379 176.987,202.722 176.921 C 203.064 176.855,202.718 176.802,201.951 176.804 C 201.185 176.807,200.904 176.861,201.328 176.925 " stroke="none" fill="#fc9c7c" fill-rule="evenodd"></path><path id="path4" d="M244.255 83.824 C 244.678 83.888,245.306 83.886,245.648 83.820 C 245.991 83.754,245.645 83.701,244.878 83.703 C 244.111 83.706,243.831 83.760,244.255 83.824 M255.140 88.153 C 256.092 89.111,257.158 90.272,257.507 90.732 C 257.857 91.192,257.777 91.003,257.329 90.314 C 256.605 89.199,253.902 86.411,253.545 86.411 C 253.470 86.411,254.187 87.195,255.140 88.153 M233.951 88.439 C 233.186 89.248,232.415 90.181,232.238 90.511 C 232.061 90.842,231.572 91.165,231.150 91.229 L 230.383 91.345 231.131 91.387 C 231.687 91.418,232.037 91.196,232.498 90.523 C 232.839 90.024,233.689 89.021,234.388 88.293 C 235.087 87.564,235.587 86.969,235.500 86.969 C 235.413 86.969,234.716 87.630,233.951 88.439 M213.310 89.403 C 214.038 89.461,215.230 89.461,215.958 89.403 C 216.686 89.346,216.091 89.299,214.634 89.299 C 213.178 89.299,212.582 89.346,213.310 89.403 M209.965 89.669 C 210.233 89.740,210.672 89.740,210.941 89.669 C 211.209 89.599,210.990 89.542,210.453 89.542 C 209.916 89.542,209.697 89.599,209.965 89.669 M218.889 89.677 C 219.313 89.741,219.940 89.740,220.283 89.674 C 220.625 89.607,220.279 89.555,219.512 89.557 C 218.746 89.559,218.465 89.613,218.889 89.677 M225.528 90.417 C 225.592 90.474,226.272 90.593,227.038 90.682 C 227.978 90.790,228.205 90.766,227.735 90.606 C 227.039 90.369,225.309 90.221,225.528 90.417 M204.091 92.383 C 203.221 93.214,202.284 94.312,202.009 94.822 C 201.575 95.627,201.572 95.657,201.991 95.052 C 202.257 94.669,203.259 93.571,204.219 92.613 C 206.362 90.475,206.267 90.304,204.091 92.383 M258.138 91.847 C 258.138 92.000,258.317 92.439,258.537 92.822 C 258.756 93.206,258.935 93.394,258.935 93.240 C 258.935 93.087,258.756 92.648,258.537 92.265 C 258.317 91.882,258.138 91.693,258.138 91.847 M213.589 94.698 C 214.164 94.758,215.105 94.758,215.679 94.698 C 216.254 94.638,215.784 94.588,214.634 94.588 C 213.484 94.588,213.014 94.638,213.589 94.698 M218.188 94.970 C 218.533 95.037,219.098 95.037,219.443 94.970 C 219.787 94.904,219.505 94.849,218.815 94.849 C 218.125 94.849,217.843 94.904,218.188 94.970 M259.880 98.676 C 259.880 99.672,259.931 100.080,259.993 99.582 C 260.054 99.084,260.054 98.268,259.993 97.770 C 259.931 97.272,259.880 97.679,259.880 98.676 M205.760 99.106 C 205.293 100.131,205.382 100.350,205.887 99.418 C 206.122 98.983,206.263 98.575,206.199 98.511 C 206.136 98.447,205.938 98.715,205.760 99.106 M230.013 101.324 C 230.008 101.631,230.112 102.132,230.244 102.439 C 230.549 103.149,230.549 102.416,230.244 101.463 C 230.064 100.903,230.019 100.876,230.013 101.324 M199.164 102.300 C 199.058 102.782,199.029 103.234,199.100 103.305 C 199.171 103.376,199.310 103.033,199.408 102.544 C 199.640 101.382,199.415 101.156,199.164 102.300 M204.106 106.202 C 204.106 106.739,204.164 106.958,204.234 106.690 C 204.304 106.422,204.304 105.983,204.234 105.714 C 204.164 105.446,204.106 105.666,204.106 106.202 M198.537 107.178 C 198.540 107.791,198.597 108.009,198.664 107.662 C 198.731 107.316,198.728 106.814,198.658 106.547 C 198.589 106.281,198.534 106.564,198.537 107.178 M255.316 109.199 L 254.355 110.244 255.401 109.283 C 256.374 108.389,256.574 108.153,256.361 108.153 C 256.315 108.153,255.844 108.624,255.316 109.199 M198.264 109.547 C 198.264 110.237,198.318 110.519,198.385 110.174 C 198.451 109.829,198.451 109.265,198.385 108.920 C 198.318 108.575,198.264 108.857,198.264 109.547 M233.843 108.805 C 234.250 109.312,235.819 110.506,235.819 110.310 C 235.819 110.248,235.286 109.774,234.634 109.256 C 233.983 108.739,233.626 108.535,233.843 108.805 M203.568 112.334 C 203.568 113.178,203.620 113.523,203.684 113.101 C 203.748 112.679,203.748 111.990,203.684 111.568 C 203.620 111.146,203.568 111.491,203.568 112.334 M197.956 112.950 L 197.909 114.262 195.749 114.357 L 193.589 114.452 195.758 114.508 C 198.185 114.571,198.298 114.486,198.114 112.712 C 198.008 111.682,198.001 111.692,197.956 112.950 M243.702 113.376 C 244.435 113.434,245.564 113.433,246.211 113.374 C 246.857 113.316,246.258 113.269,244.878 113.270 C 243.498 113.271,242.969 113.318,243.702 113.376 M204.111 114.485 C 204.533 114.549,205.223 114.549,205.645 114.485 C 206.066 114.421,205.721 114.369,204.878 114.369 C 204.035 114.369,203.690 114.421,204.111 114.485 M191.293 114.764 C 191.717 114.829,192.344 114.827,192.687 114.761 C 193.030 114.695,192.683 114.642,191.916 114.644 C 191.150 114.646,190.869 114.700,191.293 114.764 M207.460 114.764 C 207.884 114.829,208.511 114.827,208.854 114.761 C 209.197 114.695,208.850 114.642,208.084 114.644 C 207.317 114.646,207.037 114.700,207.460 114.764 M176.307 117.352 C 175.955 117.503,175.904 117.591,176.167 117.591 C 176.397 117.591,176.836 117.484,177.143 117.352 C 177.494 117.201,177.546 117.112,177.282 117.112 C 177.052 117.112,176.613 117.220,176.307 117.352 M144.181 117.836 C 144.909 117.893,146.101 117.893,146.829 117.836 C 147.557 117.778,146.962 117.731,145.505 117.731 C 144.049 117.731,143.453 117.778,144.181 117.836 M253.171 117.836 C 253.899 117.893,255.091 117.893,255.819 117.836 C 256.547 117.778,255.951 117.731,254.495 117.731 C 253.038 117.731,252.443 117.778,253.171 117.836 M149.129 118.188 C 150.082 118.493,150.815 118.493,150.105 118.188 C 149.798 118.056,149.296 117.952,148.990 117.957 C 148.541 117.963,148.569 118.009,149.129 118.188 M249.895 118.188 C 249.185 118.493,249.918 118.493,250.871 118.188 C 251.431 118.009,251.459 117.963,251.010 117.957 C 250.704 117.952,250.202 118.056,249.895 118.188 M258.397 118.188 C 259.350 118.493,260.083 118.493,259.373 118.188 C 259.066 118.056,258.564 117.952,258.258 117.957 C 257.810 117.963,257.837 118.009,258.397 118.188 M137.979 119.164 C 137.596 119.383,137.408 119.562,137.561 119.562 C 137.714 119.562,138.153 119.383,138.537 119.164 C 138.920 118.945,139.108 118.765,138.955 118.765 C 138.801 118.765,138.362 118.945,137.979 119.164 M170.732 119.174 C 170.035 119.509,170.011 119.548,170.592 119.406 C 171.382 119.213,172.270 118.760,171.847 118.767 C 171.693 118.769,171.192 118.952,170.732 119.174 M228.293 118.977 C 228.523 119.119,229.024 119.320,229.408 119.422 C 229.892 119.552,229.977 119.530,229.686 119.350 C 229.456 119.208,228.955 119.008,228.571 118.905 C 228.087 118.776,228.002 118.798,228.293 118.977 M154.425 120.000 C 154.808 120.219,155.247 120.398,155.401 120.398 C 155.554 120.398,155.366 120.219,154.983 120.000 C 154.599 119.781,154.160 119.602,154.007 119.602 C 153.854 119.602,154.042 119.781,154.425 120.000 M133.240 122.509 C 132.563 123.199,132.072 123.763,132.149 123.763 C 132.225 123.763,132.842 123.199,133.519 122.509 C 134.196 121.819,134.688 121.254,134.611 121.254 C 134.534 121.254,133.917 121.819,133.240 122.509 M266.620 122.648 C 267.375 123.415,268.056 124.042,268.132 124.042 C 268.209 124.042,267.654 123.415,266.899 122.648 C 266.144 121.882,265.463 121.254,265.387 121.254 C 265.310 121.254,265.865 121.882,266.620 122.648 M148.990 124.042 C 149.296 124.174,149.735 124.281,149.965 124.281 C 150.229 124.281,150.177 124.193,149.826 124.042 C 149.519 123.910,149.080 123.802,148.850 123.802 C 148.587 123.802,148.638 123.891,148.990 124.042 M250.174 124.042 C 249.823 124.193,249.771 124.281,250.035 124.281 C 250.265 124.281,250.704 124.174,251.010 124.042 C 251.362 123.891,251.413 123.802,251.150 123.802 C 250.920 123.802,250.481 123.910,250.174 124.042 M268.737 125.157 C 269.545 126.408,269.547 126.412,269.546 126.109 C 269.545 125.969,269.221 125.477,268.826 125.017 L 268.107 124.181 268.737 125.157 M137.269 126.620 L 136.167 127.805 137.352 126.703 C 138.454 125.678,138.665 125.436,138.454 125.436 C 138.408 125.436,137.875 125.969,137.269 126.620 M262.439 126.551 C 263.038 127.164,263.590 127.666,263.667 127.666 C 263.744 127.666,263.317 127.164,262.718 126.551 C 262.119 125.937,261.566 125.436,261.490 125.436 C 261.413 125.436,261.840 125.937,262.439 126.551 M270.151 127.958 C 270.314 128.426,270.499 128.757,270.563 128.694 C 270.701 128.556,270.175 127.108,269.987 127.108 C 269.914 127.108,269.988 127.491,270.151 127.958 M135.610 128.780 C 135.372 129.240,135.240 129.617,135.317 129.617 C 135.393 129.617,135.651 129.240,135.889 128.780 C 136.126 128.321,136.258 127.944,136.182 127.944 C 136.105 127.944,135.848 128.321,135.610 128.780 M264.848 130.174 C 264.848 130.404,264.955 130.843,265.087 131.150 C 265.238 131.501,265.327 131.553,265.327 131.289 C 265.327 131.059,265.219 130.620,265.087 130.314 C 264.936 129.962,264.848 129.911,264.848 130.174 M149.129 132.265 C 147.987 133.415,147.115 134.355,147.192 134.355 C 147.268 134.355,148.266 133.415,149.408 132.265 C 150.550 131.115,151.422 130.174,151.345 130.174 C 151.268 130.174,150.271 131.115,149.129 132.265 M248.641 130.251 C 248.641 130.293,249.613 131.265,250.801 132.411 L 252.962 134.495 250.878 132.334 C 248.943 130.328,248.641 130.047,248.641 130.251 M128.602 134.077 C 128.602 135.533,128.649 136.129,128.707 135.401 C 128.764 134.672,128.764 133.481,128.707 132.753 C 128.649 132.024,128.602 132.620,128.602 134.077 M271.299 132.822 C 271.301 133.589,271.355 133.869,271.420 133.446 C 271.484 133.022,271.482 132.395,271.416 132.052 C 271.350 131.709,271.297 132.056,271.299 132.822 M271.290 135.610 C 271.293 136.223,271.350 136.441,271.417 136.094 C 271.483 135.748,271.481 135.246,271.411 134.979 C 271.341 134.713,271.287 134.997,271.290 135.610 M265.431 135.749 C 265.431 136.286,265.488 136.505,265.558 136.237 C 265.628 135.969,265.628 135.530,265.558 135.261 C 265.488 134.993,265.431 135.213,265.431 135.749 M144.455 137.631 C 143.733 138.673,143.499 139.094,143.640 139.094 C 143.705 139.094,144.091 138.592,144.497 137.979 C 145.321 136.733,145.285 136.431,144.455 137.631 M264.968 137.581 C 264.865 137.989,264.835 138.377,264.901 138.443 C 264.966 138.509,265.104 138.228,265.207 137.820 C 265.309 137.411,265.339 137.023,265.274 136.958 C 265.208 136.892,265.070 137.172,264.968 137.581 M135.211 138.955 C 135.211 139.108,135.391 139.547,135.610 139.930 C 135.829 140.314,136.008 140.502,136.008 140.348 C 136.008 140.195,135.829 139.756,135.610 139.373 C 135.391 138.990,135.211 138.801,135.211 138.955 M258.036 142.292 C 258.448 143.131,258.831 143.770,258.888 143.713 C 259.014 143.588,257.608 140.767,257.420 140.767 C 257.348 140.767,257.625 141.453,258.036 142.292 M269.183 142.861 C 268.928 143.395,268.777 143.833,268.848 143.833 C 269.038 143.833,269.884 142.126,269.757 141.999 C 269.696 141.938,269.438 142.326,269.183 142.861 M138.258 144.047 C 138.258 144.571,140.145 146.113,140.360 145.765 C 140.491 145.554,140.460 145.490,140.280 145.601 C 140.119 145.700,139.598 145.339,139.122 144.798 C 138.647 144.256,138.258 143.919,138.258 144.047 M260.916 144.798 C 260.402 145.328,259.856 145.685,259.704 145.591 C 259.540 145.490,259.514 145.562,259.641 145.766 C 259.817 146.052,262.021 144.338,262.021 143.916 C 262.021 143.712,261.790 143.896,260.916 144.798 M178.420 144.490 C 178.484 144.544,178.976 144.669,179.512 144.768 C 180.199 144.894,180.364 144.866,180.070 144.673 C 179.692 144.425,178.144 144.253,178.420 144.490 M225.226 145.304 C 225.226 145.357,225.634 145.699,226.132 146.064 C 226.693 146.474,226.888 146.541,226.643 146.240 C 226.272 145.783,225.226 145.092,225.226 145.304 M171.829 146.690 L 171.010 147.596 171.916 146.777 C 172.415 146.327,172.822 145.919,172.822 145.871 C 172.822 145.656,172.592 145.845,171.829 146.690 M135.052 149.129 C 135.651 149.742,136.204 150.244,136.280 150.244 C 136.357 150.244,135.930 149.742,135.331 149.129 C 134.732 148.516,134.180 148.014,134.103 148.014 C 134.026 148.014,134.453 148.516,135.052 149.129 M170.359 148.723 C 169.892 149.748,169.981 149.966,170.486 149.035 C 170.722 148.599,170.863 148.191,170.799 148.127 C 170.735 148.064,170.537 148.332,170.359 148.723 M264.656 149.199 L 263.554 150.383 264.739 149.281 C 265.390 148.675,265.923 148.142,265.923 148.097 C 265.923 147.886,265.681 148.097,264.656 149.199 M169.842 151.777 C 169.844 152.697,169.896 153.040,169.958 152.539 C 170.020 152.038,170.019 151.285,169.955 150.866 C 169.892 150.447,169.841 150.857,169.842 151.777 M185.163 151.916 C 185.163 152.606,185.217 152.889,185.284 152.544 C 185.350 152.199,185.350 151.634,185.284 151.289 C 185.217 150.944,185.163 151.226,185.163 151.916 M138.299 151.777 C 138.551 152.084,138.819 152.585,138.894 152.892 C 139.024 153.428,139.031 153.427,139.062 152.866 C 139.080 152.544,138.812 152.043,138.467 151.751 C 137.845 151.224,137.843 151.224,138.299 151.777 M261.345 151.893 C 261.065 152.203,260.913 152.701,260.985 153.078 L 261.109 153.728 261.147 153.053 C 261.168 152.682,261.392 152.149,261.646 151.869 C 261.900 151.588,262.045 151.359,261.968 151.359 C 261.891 151.359,261.611 151.599,261.345 151.893 M228.602 154.177 C 228.431 154.670,228.339 155.122,228.399 155.181 C 228.458 155.241,228.647 154.887,228.819 154.394 C 228.991 153.901,229.083 153.450,229.023 153.390 C 228.963 153.330,228.774 153.685,228.602 154.177 M261.255 154.843 C 261.258 155.456,261.315 155.674,261.382 155.328 C 261.448 154.981,261.446 154.479,261.376 154.213 C 261.306 153.946,261.252 154.230,261.255 154.843 M260.971 156.934 C 260.971 157.470,261.028 157.690,261.098 157.422 C 261.168 157.153,261.168 156.714,261.098 156.446 C 261.028 156.178,260.971 156.397,260.971 156.934 M138.880 157.213 C 138.880 157.749,138.937 157.969,139.007 157.700 C 139.078 157.432,139.078 156.993,139.007 156.725 C 138.937 156.456,138.880 156.676,138.880 157.213 M215.192 156.464 C 215.192 156.512,215.599 156.919,216.098 157.369 L 217.003 158.188 216.185 157.282 C 215.422 156.438,215.192 156.248,215.192 156.464 M226.341 157.539 C 225.611 158.202,225.436 158.443,225.923 158.115 C 226.693 157.596,227.971 156.361,227.709 156.388 C 227.647 156.395,227.031 156.913,226.341 157.539 M175.192 159.164 C 175.498 159.296,175.937 159.403,176.167 159.403 C 176.431 159.403,176.379 159.315,176.028 159.164 C 175.721 159.032,175.282 158.924,175.052 158.924 C 174.789 158.924,174.840 159.013,175.192 159.164 M139.377 160.999 C 139.379 161.293,139.509 161.721,139.664 161.951 C 139.871 162.257,139.897 162.144,139.760 161.533 C 139.531 160.508,139.371 160.286,139.377 160.999 M260.244 161.429 C 260.146 161.918,260.117 162.371,260.181 162.434 C 260.244 162.497,260.382 162.154,260.488 161.672 C 260.594 161.191,260.622 160.738,260.551 160.667 C 260.480 160.596,260.342 160.939,260.244 161.429 M139.964 163.066 C 139.959 163.296,140.128 163.861,140.338 164.321 C 140.831 165.397,140.839 164.896,140.348 163.624 C 140.142 163.087,139.969 162.836,139.964 163.066 M258.442 166.562 C 257.975 167.587,258.065 167.806,258.570 166.874 C 258.805 166.439,258.946 166.031,258.882 165.967 C 258.819 165.903,258.621 166.171,258.442 166.562 M255.331 171.986 C 255.004 172.446,254.798 172.822,254.875 172.822 C 254.952 172.822,255.282 172.446,255.610 171.986 C 255.937 171.526,256.142 171.150,256.066 171.150 C 255.989 171.150,255.659 171.526,255.331 171.986 M175.052 172.962 C 175.436 173.181,175.875 173.360,176.028 173.360 C 176.181 173.360,175.993 173.181,175.610 172.962 C 175.226 172.743,174.787 172.563,174.634 172.563 C 174.481 172.563,174.669 172.743,175.052 172.962 M147.178 175.470 C 147.698 176.007,148.186 176.446,148.263 176.446 C 148.339 176.446,147.977 176.007,147.456 175.470 C 146.936 174.934,146.448 174.495,146.371 174.495 C 146.295 174.495,146.658 174.934,147.178 175.470 M180.488 174.774 C 180.794 174.905,181.233 175.013,181.463 175.013 C 181.727 175.013,181.675 174.925,181.324 174.774 C 181.017 174.642,180.578 174.534,180.348 174.534 C 180.085 174.534,180.136 174.623,180.488 174.774 M217.282 174.774 C 216.931 174.925,216.879 175.013,217.143 175.013 C 217.373 175.013,217.812 174.905,218.118 174.774 C 218.470 174.623,218.521 174.534,218.258 174.534 C 218.028 174.534,217.589 174.642,217.282 174.774 M252.529 175.540 L 251.568 176.585 252.613 175.625 C 253.188 175.096,253.659 174.626,253.659 174.579 C 253.659 174.367,253.423 174.567,252.529 175.540 M213.798 175.610 C 213.238 175.789,213.210 175.835,213.659 175.841 C 213.965 175.846,214.467 175.742,214.774 175.610 C 215.484 175.305,214.751 175.305,213.798 175.610 M176.434 177.631 C 177.118 178.359,177.714 178.955,177.758 178.955 C 177.968 178.955,177.746 178.704,176.516 177.549 L 175.192 176.307 176.434 177.631 M189.338 176.638 C 189.606 176.708,190.045 176.708,190.314 176.638 C 190.582 176.568,190.362 176.511,189.826 176.511 C 189.289 176.511,189.070 176.568,189.338 176.638 M208.293 176.638 C 208.561 176.708,209.000 176.708,209.268 176.638 C 209.537 176.568,209.317 176.511,208.780 176.511 C 208.244 176.511,208.024 176.568,208.293 176.638 M221.463 178.039 C 220.544 178.902,220.167 179.346,220.627 179.027 C 221.429 178.470,223.518 176.433,223.260 176.459 C 223.192 176.465,222.383 177.177,221.463 178.039 M191.851 176.925 C 192.274 176.989,192.901 176.987,193.244 176.921 C 193.587 176.855,193.240 176.802,192.474 176.804 C 191.707 176.807,191.427 176.861,191.851 176.925 M205.509 176.925 C 205.933 176.989,206.560 176.987,206.903 176.921 C 207.246 176.855,206.899 176.802,206.132 176.804 C 205.366 176.807,205.085 176.861,205.509 176.925 M197.282 177.210 C 198.394 177.263,200.213 177.263,201.324 177.210 C 202.436 177.158,201.526 177.114,199.303 177.114 C 197.080 177.114,196.171 177.158,197.282 177.210 M249.184 178.885 L 248.223 179.930 249.268 178.970 C 250.241 178.076,250.442 177.840,250.229 177.840 C 250.182 177.840,249.712 178.310,249.184 178.885 M149.965 178.206 C 149.965 178.254,150.373 178.661,150.871 179.112 L 151.777 179.930 150.958 179.024 C 150.195 178.180,149.965 177.990,149.965 178.206 M153.713 181.439 C 153.923 181.779,156.376 183.506,156.376 183.315 C 156.376 183.245,155.736 182.728,154.954 182.166 C 154.171 181.604,153.613 181.277,153.713 181.439 M243.824 182.974 C 242.179 184.113,241.787 184.512,243.001 183.813 C 243.937 183.274,245.545 182.037,245.296 182.046 C 245.220 182.049,244.557 182.467,243.824 182.974 M186.899 183.136 C 187.206 183.268,187.645 183.375,187.875 183.375 C 188.138 183.375,188.087 183.287,187.735 183.136 C 187.429 183.004,186.990 182.896,186.760 182.896 C 186.496 182.896,186.548 182.985,186.899 183.136 M210.871 183.136 C 210.520 183.287,210.468 183.375,210.732 183.375 C 210.962 183.375,211.401 183.268,211.707 183.136 C 212.059 182.985,212.110 182.896,211.847 182.896 C 211.617 182.896,211.178 183.004,210.871 183.136 M190.662 183.963 C 191.353 184.193,193.371 184.345,193.148 184.149 C 193.084 184.093,192.341 183.976,191.498 183.889 C 190.509 183.787,190.212 183.813,190.662 183.963 M205.784 184.164 C 206.052 184.234,206.491 184.234,206.760 184.164 C 207.028 184.094,206.808 184.037,206.272 184.037 C 205.735 184.037,205.516 184.094,205.784 184.164 M236.376 187.317 C 235.840 187.611,235.501 187.856,235.624 187.863 C 235.919 187.878,237.491 187.061,237.491 186.892 C 237.491 186.709,237.475 186.716,236.376 187.317 M177.143 192.613 C 177.449 192.745,177.889 192.853,178.118 192.853 C 178.382 192.853,178.330 192.764,177.979 192.613 C 177.672 192.481,177.233 192.374,177.003 192.374 C 176.740 192.374,176.791 192.462,177.143 192.613 M180.767 193.449 C 181.073 193.581,181.575 193.685,181.882 193.681 C 182.330 193.674,182.302 193.629,181.742 193.449 C 180.789 193.144,180.056 193.144,180.767 193.449 M218.258 193.449 C 217.698 193.629,217.670 193.674,218.118 193.681 C 218.425 193.685,218.927 193.581,219.233 193.449 C 219.944 193.144,219.211 193.144,218.258 193.449 M213.031 194.478 C 213.300 194.548,213.739 194.548,214.007 194.478 C 214.275 194.408,214.056 194.350,213.519 194.350 C 212.983 194.350,212.763 194.408,213.031 194.478 M191.010 195.035 C 191.279 195.105,191.718 195.105,191.986 195.035 C 192.254 194.965,192.035 194.908,191.498 194.908 C 190.962 194.908,190.742 194.965,191.010 195.035 M208.014 195.035 C 208.282 195.105,208.721 195.105,208.990 195.035 C 209.258 194.965,209.038 194.908,208.502 194.908 C 207.965 194.908,207.746 194.965,208.014 195.035 M193.244 195.322 C 193.668 195.386,194.295 195.384,194.638 195.318 C 194.981 195.252,194.634 195.200,193.868 195.202 C 193.101 195.204,192.821 195.258,193.244 195.322 M205.509 195.322 C 205.933 195.386,206.560 195.384,206.903 195.318 C 207.246 195.252,206.899 195.200,206.132 195.202 C 205.366 195.204,205.085 195.258,205.509 195.322 M198.269 195.608 C 199.311 195.661,200.941 195.661,201.893 195.607 C 202.845 195.553,201.993 195.509,200.000 195.509 C 198.007 195.509,197.228 195.554,198.269 195.608 " stroke="none" fill="#fc5d2d" fill-rule="evenodd"></path><path id="path5" d="M255.052 88.502 C 255.885 89.345,256.629 90.035,256.706 90.035 C 256.782 90.035,256.164 89.345,255.331 88.502 C 254.498 87.659,253.754 86.969,253.678 86.969 C 253.601 86.969,254.220 87.659,255.052 88.502 M234.275 88.711 L 232.892 90.174 234.355 88.791 C 235.715 87.506,235.947 87.247,235.739 87.247 C 235.695 87.247,235.036 87.906,234.275 88.711 M218.191 89.953 C 218.538 90.020,219.040 90.017,219.306 89.948 C 219.573 89.878,219.289 89.823,218.676 89.826 C 218.063 89.829,217.845 89.887,218.191 89.953 M220.700 90.232 C 221.047 90.299,221.549 90.296,221.815 90.226 C 222.082 90.157,221.798 90.102,221.185 90.105 C 220.571 90.108,220.353 90.165,220.700 90.232 M223.066 90.506 C 223.334 90.576,223.774 90.576,224.042 90.506 C 224.310 90.436,224.091 90.378,223.554 90.378 C 223.017 90.378,222.798 90.436,223.066 90.506 M213.320 94.422 C 214.207 94.478,215.587 94.477,216.386 94.421 C 217.186 94.365,216.460 94.320,214.774 94.320 C 213.087 94.321,212.433 94.367,213.320 94.422 M219.721 94.687 C 219.990 94.757,220.429 94.757,220.697 94.687 C 220.965 94.617,220.746 94.559,220.209 94.559 C 219.672 94.559,219.453 94.617,219.721 94.687 M221.951 94.966 C 222.220 95.036,222.659 95.036,222.927 94.966 C 223.195 94.896,222.976 94.838,222.439 94.838 C 221.902 94.838,221.683 94.896,221.951 94.966 M207.230 96.237 L 206.411 97.143 207.317 96.324 C 207.815 95.874,208.223 95.466,208.223 95.418 C 208.223 95.203,207.993 95.392,207.230 96.237 M230.211 97.064 C 230.339 97.838,230.378 97.878,230.466 97.320 C 230.523 96.957,230.455 96.546,230.314 96.405 C 230.160 96.250,230.119 96.510,230.211 97.064 M200.728 98.149 C 200.556 98.642,200.464 99.094,200.524 99.154 C 200.584 99.213,200.773 98.859,200.945 98.366 C 201.116 97.874,201.208 97.422,201.148 97.362 C 201.089 97.303,200.900 97.657,200.728 98.149 M230.309 100.348 C 230.309 100.885,230.366 101.105,230.436 100.836 C 230.506 100.568,230.506 100.129,230.436 99.861 C 230.366 99.592,230.309 99.812,230.309 100.348 M257.896 104.954 C 257.562 105.640,257.348 106.202,257.420 106.202 C 257.608 106.202,258.735 103.938,258.609 103.812 C 258.550 103.753,258.229 104.267,257.896 104.954 M199.089 105.645 C 199.089 106.181,199.146 106.401,199.217 106.132 C 199.287 105.864,199.287 105.425,199.217 105.157 C 199.146 104.889,199.089 105.108,199.089 105.645 M203.555 107.456 C 203.558 108.070,203.615 108.288,203.681 107.941 C 203.748 107.594,203.746 107.093,203.676 106.826 C 203.606 106.560,203.552 106.843,203.555 107.456 M198.810 107.596 C 198.810 108.132,198.868 108.352,198.938 108.084 C 199.008 107.815,199.008 107.376,198.938 107.108 C 198.868 106.840,198.810 107.059,198.810 107.596 M255.331 108.571 C 254.654 109.261,254.163 109.826,254.239 109.826 C 254.316 109.826,254.933 109.261,255.610 108.571 C 256.287 107.882,256.778 107.317,256.701 107.317 C 256.625 107.317,256.008 107.882,255.331 108.571 M234.286 108.711 C 234.885 109.324,235.437 109.826,235.514 109.826 C 235.590 109.826,235.163 109.324,234.564 108.711 C 233.966 108.098,233.413 107.596,233.336 107.596 C 233.260 107.596,233.687 108.098,234.286 108.711 M203.285 110.523 C 203.287 111.289,203.342 111.570,203.406 111.146 C 203.470 110.722,203.468 110.095,203.402 109.752 C 203.336 109.409,203.283 109.756,203.285 110.523 M198.543 110.941 C 198.543 111.631,198.597 111.913,198.664 111.568 C 198.730 111.223,198.730 110.659,198.664 110.314 C 198.597 109.969,198.543 110.251,198.543 110.941 M237.491 111.077 C 237.491 111.268,239.198 112.114,239.326 111.987 C 239.386 111.926,238.998 111.668,238.463 111.413 C 237.929 111.158,237.491 111.007,237.491 111.077 M244.116 113.094 C 244.617 113.156,245.370 113.155,245.789 113.091 C 246.208 113.028,245.798 112.977,244.878 112.978 C 243.958 112.980,243.615 113.032,244.116 113.094 M203.015 113.985 C 203.043 114.356,203.254 114.711,203.484 114.773 C 203.761 114.847,203.795 114.808,203.586 114.655 C 203.412 114.529,203.201 114.174,203.117 113.868 C 202.996 113.428,202.974 113.453,203.015 113.985 M198.188 114.239 C 198.188 114.421,197.728 114.584,197.143 114.609 L 196.098 114.654 197.039 114.769 C 197.958 114.881,198.758 114.484,198.379 114.105 C 198.274 114.000,198.188 114.060,198.188 114.239 M192.408 115.043 C 192.832 115.107,193.459 115.106,193.802 115.039 C 194.145 114.973,193.798 114.921,193.031 114.923 C 192.265 114.925,191.984 114.979,192.408 115.043 M206.345 115.043 C 206.769 115.107,207.396 115.106,207.739 115.039 C 208.082 114.973,207.735 114.921,206.969 114.923 C 206.202 114.925,205.922 114.979,206.345 115.043 M189.477 115.319 C 189.822 115.385,190.387 115.385,190.732 115.319 C 191.077 115.252,190.794 115.198,190.105 115.198 C 189.415 115.198,189.132 115.252,189.477 115.319 M209.550 115.319 C 209.897 115.386,210.399 115.383,210.665 115.313 C 210.932 115.244,210.648 115.189,210.035 115.192 C 209.422 115.195,209.204 115.252,209.550 115.319 M175.749 117.909 C 175.398 118.060,175.346 118.149,175.610 118.149 C 175.840 118.149,176.279 118.041,176.585 117.909 C 176.937 117.758,176.988 117.670,176.725 117.670 C 176.495 117.670,176.056 117.778,175.749 117.909 M223.415 117.909 C 223.721 118.041,224.160 118.149,224.390 118.149 C 224.654 118.149,224.602 118.060,224.251 117.909 C 223.944 117.778,223.505 117.670,223.275 117.670 C 223.012 117.670,223.063 117.758,223.415 117.909 M144.604 118.111 C 145.105 118.173,145.858 118.172,146.277 118.109 C 146.696 118.045,146.286 117.994,145.366 117.996 C 144.446 117.997,144.103 118.049,144.604 118.111 M254.007 118.109 C 254.429 118.173,255.118 118.173,255.540 118.109 C 255.962 118.045,255.617 117.993,254.774 117.993 C 253.930 117.993,253.585 118.045,254.007 118.109 M226.341 118.699 C 226.571 118.841,227.073 119.041,227.456 119.143 C 227.941 119.273,228.026 119.251,227.735 119.071 C 227.505 118.929,227.003 118.729,226.620 118.627 C 226.136 118.497,226.051 118.519,226.341 118.699 M153.031 119.721 C 153.415 119.940,153.854 120.120,154.007 120.120 C 154.160 120.120,153.972 119.940,153.589 119.721 C 153.206 119.502,152.767 119.323,152.613 119.323 C 152.460 119.323,152.648 119.502,153.031 119.721 M241.324 122.812 C 240.443 123.513,239.721 124.148,239.721 124.222 C 239.721 124.297,240.474 123.766,241.394 123.044 C 242.868 121.886,243.248 121.528,242.997 121.535 C 242.958 121.536,242.206 122.111,241.324 122.812 M163.275 122.667 C 162.700 122.971,162.230 123.281,162.230 123.357 C 162.230 123.481,164.432 122.453,164.715 122.196 C 165.036 121.905,164.199 122.179,163.275 122.667 M144.314 123.128 C 144.809 123.190,145.687 123.191,146.266 123.130 C 146.844 123.070,146.439 123.020,145.366 123.018 C 144.293 123.017,143.820 123.066,144.314 123.128 M253.583 123.128 C 254.077 123.190,254.956 123.191,255.534 123.130 C 256.112 123.070,255.707 123.020,254.634 123.018 C 253.561 123.017,253.088 123.066,253.583 123.128 M159.555 123.693 C 160.097 124.333,160.956 124.524,161.238 124.068 C 161.324 123.929,161.139 123.882,160.827 123.963 C 160.495 124.050,160.005 123.895,159.642 123.589 L 159.024 123.066 159.555 123.693 M139.861 124.201 C 138.780 124.788,138.902 124.990,140.000 124.432 C 141.051 123.897,141.237 123.759,140.883 123.774 C 140.742 123.780,140.282 123.973,139.861 124.201 M258.978 123.855 C 259.461 124.239,261.721 125.347,261.590 125.137 C 261.418 124.858,259.400 123.763,259.059 123.763 C 258.950 123.763,258.914 123.805,258.978 123.855 M150.825 124.147 C 151.110 124.405,153.310 125.432,153.310 125.307 C 153.310 125.149,151.206 124.042,150.905 124.042 C 150.797 124.042,150.761 124.089,150.825 124.147 M247.735 124.618 C 247.160 124.922,246.690 125.232,246.690 125.308 C 246.690 125.433,248.892 124.404,249.175 124.147 C 249.496 123.857,248.659 124.131,247.735 124.618 M136.986 126.341 L 136.167 127.247 137.073 126.429 C 137.571 125.978,137.979 125.571,137.979 125.523 C 137.979 125.307,137.749 125.497,136.986 126.341 M262.021 125.523 C 262.021 125.571,262.429 125.978,262.927 126.429 L 263.833 127.247 263.014 126.341 C 262.251 125.497,262.021 125.307,262.021 125.523 M269.183 126.686 C 269.438 127.221,269.696 127.609,269.757 127.549 C 269.884 127.421,269.038 125.714,268.848 125.714 C 268.777 125.714,268.928 126.152,269.183 126.686 M264.488 128.764 C 264.890 129.518,265.261 130.093,265.312 130.042 C 265.445 129.909,264.307 127.733,264.008 127.548 C 263.870 127.463,264.086 128.010,264.488 128.764 M135.039 129.085 C 134.794 129.559,134.643 129.997,134.703 130.057 C 134.763 130.118,135.022 129.730,135.277 129.195 C 135.850 127.993,135.651 127.901,135.039 129.085 M151.202 130.801 L 150.383 131.707 151.289 130.889 C 151.787 130.438,152.195 130.031,152.195 129.983 C 152.195 129.767,151.965 129.957,151.202 130.801 M248.780 131.010 C 249.379 131.624,249.932 132.125,250.009 132.125 C 250.085 132.125,249.658 131.624,249.059 131.010 C 248.460 130.397,247.908 129.895,247.831 129.895 C 247.754 129.895,248.182 130.397,248.780 131.010 M271.024 134.077 C 271.024 134.920,271.077 135.265,271.140 134.843 C 271.204 134.422,271.204 133.732,271.140 133.310 C 271.077 132.889,271.024 133.233,271.024 134.077 M265.999 134.077 C 265.999 134.767,266.054 135.049,266.120 134.704 C 266.187 134.359,266.187 133.794,266.120 133.449 C 266.054 133.105,265.999 133.387,265.999 134.077 M133.863 134.077 C 133.863 134.613,133.920 134.833,133.990 134.564 C 134.060 134.296,134.060 133.857,133.990 133.589 C 133.920 133.321,133.863 133.540,133.863 134.077 M147.163 134.843 L 146.202 135.889 147.247 134.928 C 148.220 134.034,148.421 133.798,148.208 133.798 C 148.161 133.798,147.691 134.268,147.163 134.843 M253.079 135.401 C 253.903 136.359,254.634 137.143,254.702 137.143 C 254.886 137.143,252.637 134.499,252.070 134.048 C 251.800 133.834,252.254 134.443,253.079 135.401 M268.767 142.863 C 268.433 143.550,268.219 144.111,268.291 144.111 C 268.479 144.111,269.606 141.847,269.480 141.721 C 269.421 141.663,269.101 142.177,268.767 142.863 M257.581 142.021 C 257.581 142.174,257.760 142.613,257.979 142.997 C 258.198 143.380,258.377 143.568,258.377 143.415 C 258.377 143.261,258.198 142.822,257.979 142.439 C 257.760 142.056,257.581 141.868,257.581 142.021 M176.794 144.032 C 177.216 144.096,177.906 144.096,178.328 144.032 C 178.749 143.969,178.404 143.916,177.561 143.916 C 176.718 143.916,176.373 143.969,176.794 144.032 M220.840 144.033 C 221.264 144.097,221.891 144.095,222.234 144.029 C 222.577 143.963,222.230 143.910,221.463 143.912 C 220.697 143.915,220.416 143.969,220.840 144.033 M173.086 145.179 C 172.404 145.613,171.662 146.208,171.437 146.503 C 171.112 146.927,171.170 146.912,171.716 146.432 C 172.094 146.098,172.969 145.504,173.659 145.111 C 174.348 144.718,174.781 144.395,174.619 144.394 C 174.457 144.392,173.768 144.745,173.086 145.179 M215.803 146.243 L 214.495 147.539 215.889 146.335 C 216.655 145.673,217.334 145.090,217.398 145.040 C 217.462 144.989,217.424 144.948,217.312 144.948 C 217.201 144.948,216.522 145.531,215.803 146.243 M225.645 145.123 C 225.798 145.258,226.425 145.806,227.038 146.342 L 228.152 147.317 227.316 146.387 C 226.857 145.876,226.230 145.327,225.923 145.168 C 225.617 145.009,225.491 144.989,225.645 145.123 M135.331 148.850 C 136.241 149.770,137.049 150.523,137.125 150.523 C 137.202 150.523,136.520 149.770,135.610 148.850 C 134.699 147.930,133.892 147.178,133.815 147.178 C 133.739 147.178,134.421 147.930,135.331 148.850 M170.632 147.548 C 170.172 148.102,169.475 149.879,169.496 150.444 C 169.506 150.717,169.682 150.404,169.887 149.749 C 170.092 149.093,170.462 148.246,170.711 147.867 C 171.192 147.132,171.143 146.932,170.632 147.548 M264.382 148.920 L 262.718 150.662 264.460 148.998 C 266.078 147.453,266.330 147.178,266.124 147.178 C 266.081 147.178,265.297 147.962,264.382 148.920 M185.455 151.916 C 185.455 152.913,185.506 153.321,185.567 152.822 C 185.629 152.324,185.629 151.509,185.567 151.010 C 185.506 150.512,185.455 150.920,185.455 151.916 M213.324 151.916 C 213.324 152.760,213.376 153.105,213.440 152.683 C 213.504 152.261,213.504 151.571,213.440 151.150 C 213.376 150.728,213.324 151.073,213.324 151.916 M229.484 151.916 C 229.484 152.606,229.538 152.889,229.604 152.544 C 229.671 152.199,229.671 151.634,229.604 151.289 C 229.538 150.944,229.484 151.226,229.484 151.916 M138.736 151.654 C 138.939 151.915,139.110 153.305,139.164 155.138 L 139.254 158.188 139.314 155.086 C 139.365 152.419,139.304 151.931,138.885 151.602 C 138.456 151.265,138.438 151.272,138.736 151.654 M260.930 151.748 C 260.717 152.005,260.638 153.120,260.698 155.023 L 260.788 157.909 260.847 154.969 C 260.884 153.127,261.031 151.903,261.240 151.693 C 261.424 151.509,261.502 151.359,261.414 151.359 C 261.325 151.359,261.108 151.534,260.930 151.748 M228.219 155.890 L 227.727 156.794 228.289 156.136 C 228.766 155.576,229.022 154.978,228.780 154.984 C 228.742 154.985,228.489 155.393,228.219 155.890 M183.121 157.422 L 182.160 158.467 183.206 157.506 C 184.179 156.612,184.379 156.376,184.166 156.376 C 184.120 156.376,183.649 156.847,183.121 157.422 M226.620 157.812 C 226.084 158.282,225.897 158.540,226.205 158.384 C 226.714 158.126,227.977 156.918,227.709 156.945 C 227.647 156.951,227.157 157.341,226.620 157.812 M180.906 158.885 C 180.369 159.179,180.031 159.424,180.153 159.431 C 180.449 159.446,182.021 158.629,182.021 158.460 C 182.021 158.277,182.005 158.284,180.906 158.885 M177.073 159.913 C 177.341 159.984,177.780 159.984,178.049 159.913 C 178.317 159.843,178.098 159.786,177.561 159.786 C 177.024 159.786,176.805 159.843,177.073 159.913 M139.969 161.672 C 139.969 161.902,140.077 162.341,140.209 162.648 C 140.360 162.999,140.449 163.051,140.449 162.787 C 140.449 162.557,140.341 162.118,140.209 161.812 C 140.058 161.460,139.969 161.409,139.969 161.672 M259.671 162.111 C 259.569 162.519,259.539 162.907,259.605 162.973 C 259.670 163.038,259.808 162.758,259.910 162.349 C 260.013 161.941,260.043 161.553,259.977 161.487 C 259.912 161.422,259.774 161.702,259.671 162.111 M256.864 168.920 C 256.626 169.380,256.494 169.756,256.571 169.756 C 256.648 169.756,256.905 169.380,257.143 168.920 C 257.381 168.460,257.513 168.084,257.436 168.084 C 257.359 168.084,257.102 168.460,256.864 168.920 M144.026 170.893 C 144.303 171.364,144.708 171.897,144.925 172.077 C 145.143 172.257,144.970 171.871,144.540 171.220 C 143.638 169.851,143.282 169.625,144.026 170.893 M255.460 171.220 C 255.030 171.871,254.857 172.257,255.075 172.077 C 255.493 171.731,256.560 170.035,256.359 170.035 C 256.294 170.035,255.890 170.568,255.460 171.220 M173.444 172.822 C 173.444 173.359,173.502 173.578,173.572 173.310 C 173.642 173.042,173.642 172.603,173.572 172.334 C 173.502 172.066,173.444 172.286,173.444 172.822 M224.888 172.822 C 224.956 173.282,225.059 173.659,225.119 173.659 C 225.178 173.659,225.226 173.282,225.226 172.822 C 225.226 172.362,225.123 171.986,224.996 171.986 C 224.869 171.986,224.821 172.362,224.888 172.822 M176.446 173.054 C 176.676 173.196,177.178 173.396,177.561 173.499 C 178.045 173.628,178.130 173.606,177.840 173.427 C 177.610 173.285,177.108 173.085,176.725 172.982 C 176.240 172.853,176.155 172.874,176.446 173.054 M221.185 173.250 C 220.488 173.586,220.464 173.625,221.045 173.483 C 221.835 173.290,222.723 172.837,222.300 172.843 C 222.146 172.846,221.645 173.029,221.185 173.250 M146.063 173.746 C 146.063 173.794,146.470 174.201,146.969 174.652 L 147.875 175.470 147.056 174.564 C 146.293 173.720,146.063 173.530,146.063 173.746 M148.990 177.003 C 149.588 177.617,150.141 178.118,150.218 178.118 C 150.294 178.118,149.867 177.617,149.268 177.003 C 148.669 176.390,148.117 175.889,148.040 175.889 C 147.964 175.889,148.391 176.390,148.990 177.003 M174.982 176.585 C 175.299 177.045,175.974 177.798,176.482 178.258 C 177.164 178.876,177.087 178.730,176.186 177.700 C 174.541 175.820,174.300 175.597,174.982 176.585 M250.719 177.073 L 249.617 178.258 250.801 177.156 C 251.453 176.550,251.986 176.017,251.986 175.971 C 251.986 175.760,251.743 175.971,250.719 177.073 M193.519 176.646 C 193.941 176.710,194.631 176.710,195.052 176.646 C 195.474 176.582,195.129 176.530,194.286 176.530 C 193.443 176.530,193.098 176.582,193.519 176.646 M203.554 176.646 C 203.976 176.710,204.666 176.710,205.087 176.646 C 205.509 176.582,205.164 176.530,204.321 176.530 C 203.477 176.530,203.132 176.582,203.554 176.646 M198.537 176.924 C 198.958 176.988,199.648 176.988,200.070 176.924 C 200.491 176.861,200.146 176.808,199.303 176.808 C 198.460 176.808,198.115 176.861,198.537 176.924 M222.145 178.049 L 221.185 179.094 222.230 178.133 C 223.203 177.239,223.403 177.003,223.191 177.003 C 223.144 177.003,222.674 177.474,222.145 178.049 M150.801 178.484 C 150.801 178.532,151.209 178.940,151.707 179.390 L 152.613 180.209 151.795 179.303 C 151.031 178.459,150.801 178.269,150.801 178.484 M248.205 179.303 L 247.387 180.209 248.293 179.390 C 249.137 178.627,249.327 178.397,249.111 178.397 C 249.063 178.397,248.656 178.805,248.205 179.303 M219.987 179.632 C 218.692 180.547,218.510 180.809,219.603 180.183 C 220.113 179.891,220.662 179.495,220.822 179.303 C 221.234 178.811,221.041 178.887,219.987 179.632 M193.101 184.726 C 193.446 184.793,194.010 184.793,194.355 184.726 C 194.700 184.660,194.418 184.606,193.728 184.606 C 193.038 184.606,192.756 184.660,193.101 184.726 M204.251 184.726 C 204.596 184.793,205.160 184.793,205.505 184.726 C 205.850 184.660,205.568 184.606,204.878 184.606 C 204.188 184.606,203.906 184.660,204.251 184.726 M197.282 185.015 C 198.394 185.068,200.213 185.068,201.324 185.015 C 202.436 184.962,201.526 184.919,199.303 184.919 C 197.080 184.919,196.171 184.962,197.282 185.015 M160.557 185.496 C 160.557 185.572,161.185 185.953,161.951 186.341 C 162.718 186.730,163.345 186.985,163.345 186.908 C 163.345 186.832,162.718 186.451,161.951 186.063 C 161.185 185.674,160.557 185.419,160.557 185.496 M237.979 186.081 C 237.251 186.460,236.655 186.833,236.655 186.909 C 236.655 186.985,237.282 186.730,238.049 186.341 C 238.815 185.953,239.443 185.575,239.443 185.501 C 239.443 185.316,239.468 185.306,237.979 186.081 M164.181 187.456 C 164.564 187.676,165.003 187.855,165.157 187.855 C 165.310 187.855,165.122 187.676,164.739 187.456 C 164.355 187.237,163.916 187.058,163.763 187.058 C 163.610 187.058,163.798 187.237,164.181 187.456 M235.261 187.456 C 234.878 187.676,234.690 187.855,234.843 187.855 C 234.997 187.855,235.436 187.676,235.819 187.456 C 236.202 187.237,236.390 187.058,236.237 187.058 C 236.084 187.058,235.645 187.237,235.261 187.456 M232.753 188.571 C 232.369 188.791,232.181 188.970,232.334 188.970 C 232.488 188.970,232.927 188.791,233.310 188.571 C 233.693 188.352,233.882 188.173,233.728 188.173 C 233.575 188.173,233.136 188.352,232.753 188.571 M189.059 194.478 C 189.328 194.548,189.767 194.548,190.035 194.478 C 190.303 194.408,190.084 194.350,189.547 194.350 C 189.010 194.350,188.791 194.408,189.059 194.478 M209.965 194.478 C 210.233 194.548,210.672 194.548,210.941 194.478 C 211.209 194.408,210.990 194.350,210.453 194.350 C 209.916 194.350,209.697 194.408,209.965 194.478 M191.429 194.761 C 191.774 194.828,192.338 194.828,192.683 194.761 C 193.028 194.695,192.746 194.640,192.056 194.640 C 191.366 194.640,191.084 194.695,191.429 194.761 M207.317 194.761 C 207.662 194.828,208.226 194.828,208.571 194.761 C 208.916 194.695,208.634 194.640,207.944 194.640 C 207.254 194.640,206.972 194.695,207.317 194.761 M194.500 195.045 C 195.001 195.107,195.753 195.106,196.172 195.042 C 196.591 194.979,196.181 194.928,195.261 194.930 C 194.341 194.931,193.999 194.983,194.500 195.045 M203.977 195.045 C 204.478 195.107,205.231 195.106,205.650 195.042 C 206.068 194.979,205.659 194.928,204.739 194.930 C 203.819 194.931,203.476 194.983,203.977 195.045 " stroke="none" fill="#fc9c84" fill-rule="evenodd"></path></g></svg>