<svg id="svg" version="1.1" xmlns="http://www.w3.org/2000/svg" xmlns:xlink="http://www.w3.org/1999/xlink" width="400" height="278.7018255578093" viewBox="0, 0, 400,278.7018255578093"><g id="svgg"><path id="path0" d="M226.481 74.310 C 215.667 76.211,206.250 83.350,201.547 93.212 C 200.604 95.189,200.217 96.259,199.018 100.209 C 198.115 103.183,198.055 107.933,198.826 115.261 C 198.896 115.921,197.450 115.919,192.892 115.251 C 168.480 111.673,146.910 100.638,131.613 83.902 C 128.120 80.081,128.368 80.130,126.934 82.989 C 123.196 90.444,122.552 99.307,125.183 107.116 C 126.940 112.331,131.746 119.419,136.425 123.695 C 137.949 125.088,138.325 125.716,137.631 125.712 C 135.332 125.698,128.231 123.791,125.643 122.492 C 124.592 121.965,123.658 121.533,123.566 121.533 C 123.246 121.533,123.741 127.276,124.290 129.914 C 126.718 141.592,135.352 150.684,147.187 154.028 C 150.193 154.878,150.607 155.124,149.659 155.500 C 147.522 156.347,142.465 156.745,138.524 156.375 C 135.485 156.090,135.530 156.071,136.008 157.429 C 138.727 165.138,144.465 171.547,152.571 175.928 C 154.895 177.184,160.994 178.920,164.878 179.431 C 167.397 179.763,166.902 180.405,161.254 184.128 C 149.201 192.075,131.485 196.574,119.373 194.764 C 117.348 194.461,117.532 194.766,120.327 196.351 C 153.417 215.115,194.617 213.117,225.151 191.269 C 250.864 172.870,265.549 145.135,266.397 113.373 L 266.558 107.304 267.983 106.129 C 274.698 100.589,281.148 94.046,282.543 91.359 C 283.042 90.398,283.183 90.383,279.333 91.692 C 272.679 93.954,264.530 95.678,264.530 94.824 C 264.530 94.699,265.502 93.829,266.690 92.892 C 272.355 88.424,276.771 82.806,278.316 78.100 C 278.957 76.149,278.925 76.141,276.057 77.577 C 271.708 79.755,259.205 84.452,257.743 84.458 C 257.460 84.459,256.394 83.695,255.374 82.760 C 247.767 75.786,236.622 72.527,226.481 74.310 " stroke="none" fill="#fbfbfc" fill-rule="evenodd"></path><path id="path1" d="M0.000 139.373 L 0.000 278.746 200.000 278.746 L 400.000 278.746 400.000 139.373 L 400.000 0.000 200.000 0.000 L 0.000 0.000 0.000 139.373 M238.746 73.854 C 244.744 75.005,251.655 78.531,255.758 82.534 C 256.529 83.287,257.413 83.902,257.721 83.902 C 258.300 83.902,264.058 82.114,264.818 81.698 C 265.053 81.570,265.647 81.376,266.138 81.268 C 266.630 81.160,267.103 80.956,267.191 80.815 C 267.278 80.673,267.538 80.557,267.767 80.557 C 267.996 80.557,268.710 80.320,269.353 80.029 C 269.996 79.738,271.338 79.162,272.334 78.749 C 273.331 78.336,275.133 77.508,276.339 76.908 C 279.531 75.322,279.715 75.413,278.836 78.136 C 277.320 82.835,272.275 89.287,267.080 93.171 C 264.571 95.048,264.999 95.043,272.613 93.104 C 277.757 91.794,279.971 91.129,281.033 90.573 C 281.700 90.224,283.763 89.920,283.763 90.171 C 283.763 91.870,275.069 101.007,268.091 106.641 L 267.053 107.479 266.911 113.182 C 266.470 130.798,262.067 146.464,253.402 161.254 C 251.718 164.129,250.885 165.410,248.238 169.199 C 242.562 177.323,230.951 188.391,222.578 193.657 C 214.468 198.757,207.983 201.921,200.279 204.536 C 183.349 210.281,165.390 211.238,147.596 207.343 C 142.465 206.220,141.185 205.864,136.725 204.316 C 126.860 200.895,112.665 193.320,117.593 194.108 C 126.015 195.455,140.833 193.575,148.195 190.225 C 148.679 190.006,149.184 189.826,149.319 189.826 C 150.469 189.826,160.519 184.240,164.006 181.662 C 166.141 180.083,166.122 180.026,163.345 179.658 C 161.683 179.438,158.218 178.641,156.655 178.119 C 147.207 174.965,137.474 165.497,135.593 157.631 C 135.483 157.171,135.266 156.632,135.109 156.434 C 134.511 155.676,135.335 155.419,137.238 155.769 C 141.186 156.497,151.449 155.603,148.117 154.822 C 141.430 153.255,134.199 148.708,130.181 143.544 C 129.649 142.860,129.139 142.237,129.049 142.160 C 126.430 139.929,122.933 129.055,122.928 123.127 C 122.926 120.757,123.117 120.672,125.599 121.925 C 128.476 123.379,136.222 125.469,136.849 124.962 C 136.918 124.907,136.026 123.893,134.868 122.709 C 127.278 114.953,123.567 107.328,123.012 98.345 C 122.808 95.044,123.807 88.316,124.638 87.401 C 124.770 87.255,124.878 86.960,124.878 86.746 C 124.878 85.847,127.650 80.269,128.202 80.056 C 128.454 79.959,129.313 80.707,130.560 82.112 C 144.712 98.047,164.601 109.267,186.341 113.578 C 192.143 114.728,192.890 114.849,195.628 115.074 C 198.569 115.316,198.558 115.321,198.133 113.841 C 197.186 110.545,197.840 102.025,199.409 97.219 C 203.312 85.263,214.217 75.754,226.194 73.865 C 227.263 73.696,228.204 73.492,228.285 73.411 C 228.537 73.159,236.984 73.516,238.746 73.854 " stroke="none" fill="#53abf4" fill-rule="evenodd"></path><path id="path2" d="M136.446 88.641 C 137.045 89.254,137.597 89.756,137.674 89.756 C 137.751 89.756,137.324 89.254,136.725 88.641 C 136.126 88.028,135.573 87.526,135.497 87.526 C 135.420 87.526,135.847 88.028,136.446 88.641 M270.226 90.105 L 269.408 91.010 270.314 90.192 C 270.812 89.741,271.220 89.334,271.220 89.286 C 271.220 89.070,270.990 89.260,270.226 90.105 M279.024 96.028 C 278.347 96.718,277.856 97.282,277.933 97.282 C 278.009 97.282,278.626 96.718,279.303 96.028 C 279.980 95.338,280.471 94.774,280.395 94.774 C 280.318 94.774,279.701 95.338,279.024 96.028 M266.572 115.540 C 266.574 116.613,266.624 117.018,266.684 116.440 C 266.745 115.861,266.744 114.983,266.682 114.489 C 266.620 113.994,266.571 114.467,266.572 115.540 M132.114 145.575 C 133.269 146.806,133.519 147.027,133.519 146.818 C 133.519 146.773,132.923 146.177,132.195 145.494 L 130.871 144.251 132.114 145.575 M140.139 156.302 C 140.791 156.360,141.857 156.360,142.509 156.302 C 143.160 156.243,142.627 156.195,141.324 156.195 C 140.021 156.195,139.488 156.243,140.139 156.302 M143.554 169.895 C 144.387 170.739,145.131 171.429,145.207 171.429 C 145.284 171.429,144.665 170.739,143.833 169.895 C 143.000 169.052,142.256 168.362,142.179 168.362 C 142.103 168.362,142.721 169.052,143.554 169.895 M240.264 178.328 L 239.303 179.373 240.348 178.412 C 241.321 177.518,241.522 177.282,241.309 177.282 C 241.262 177.282,240.792 177.753,240.264 178.328 M235.246 183.345 L 234.286 184.390 235.331 183.430 C 235.906 182.901,236.376 182.431,236.376 182.384 C 236.376 182.171,236.140 182.372,235.246 183.345 M161.463 209.251 C 161.732 209.321,162.171 209.321,162.439 209.251 C 162.707 209.181,162.488 209.124,161.951 209.124 C 161.415 209.124,161.195 209.181,161.463 209.251 M168.162 209.543 C 168.895 209.601,170.023 209.600,170.670 209.542 C 171.317 209.483,170.718 209.436,169.338 209.437 C 167.958 209.438,167.429 209.486,168.162 209.543 " stroke="none" fill="#92cbf5" fill-rule="evenodd"></path><path id="path3" d="M133.240 85.383 C 133.240 85.431,133.648 85.839,134.146 86.289 L 135.052 87.108 134.234 86.202 C 133.470 85.358,133.240 85.168,133.240 85.383 M122.439 194.764 C 122.861 194.828,123.551 194.828,123.972 194.764 C 124.394 194.700,124.049 194.648,123.206 194.648 C 122.362 194.648,122.017 194.700,122.439 194.764 M165.226 209.535 C 165.571 209.601,166.136 209.601,166.481 209.535 C 166.826 209.468,166.544 209.414,165.854 209.414 C 165.164 209.414,164.882 209.468,165.226 209.535 M172.195 209.535 C 172.540 209.601,173.105 209.601,173.449 209.535 C 173.794 209.468,173.512 209.414,172.822 209.414 C 172.132 209.414,171.850 209.468,172.195 209.535 " stroke="none" fill="#7cc4f4" fill-rule="evenodd"></path><path id="path4" d="M230.592 73.795 C 231.474 73.850,232.916 73.850,233.798 73.795 C 234.679 73.740,233.958 73.694,232.195 73.694 C 230.432 73.694,229.711 73.740,230.592 73.795 M224.808 74.438 C 224.420 74.614,224.589 74.639,225.366 74.521 C 225.979 74.428,226.533 74.305,226.597 74.249 C 226.836 74.038,225.343 74.196,224.808 74.438 M242.091 75.261 C 242.397 75.393,242.836 75.501,243.066 75.501 C 243.330 75.501,243.278 75.412,242.927 75.261 C 242.620 75.130,242.181 75.022,241.951 75.022 C 241.688 75.022,241.739 75.110,242.091 75.261 M219.791 75.968 C 219.094 76.304,219.071 76.342,219.652 76.200 C 220.441 76.007,221.329 75.555,220.906 75.561 C 220.753 75.563,220.251 75.746,219.791 75.968 M278.244 78.244 C 277.831 79.588,278.031 79.788,278.467 78.467 C 278.651 77.910,278.747 77.400,278.681 77.333 C 278.614 77.267,278.418 77.677,278.244 78.244 M249.617 78.472 C 249.923 78.722,250.425 79.049,250.732 79.200 L 251.289 79.473 250.732 79.019 C 250.425 78.770,249.923 78.442,249.617 78.292 L 249.059 78.018 249.617 78.472 M273.031 78.772 C 272.265 79.144,271.951 79.369,272.334 79.271 C 273.130 79.068,275.127 78.068,274.704 78.084 C 274.551 78.090,273.798 78.400,273.031 78.772 M212.156 80.139 C 211.219 80.828,210.453 81.455,210.453 81.532 C 210.453 81.609,211.237 81.095,212.195 80.391 C 214.143 78.960,214.233 78.885,214.014 78.885 C 213.929 78.885,213.093 79.449,212.156 80.139 M128.022 80.627 C 127.473 81.336,127.358 81.788,127.894 81.129 C 128.393 80.515,128.502 80.487,128.963 80.850 C 129.435 81.221,129.446 81.214,129.095 80.767 C 128.642 80.189,128.387 80.156,128.022 80.627 M266.899 81.264 C 266.202 81.600,266.179 81.639,266.760 81.497 C 267.549 81.304,268.437 80.851,268.014 80.857 C 267.861 80.860,267.359 81.043,266.899 81.264 M130.441 82.578 C 131.596 83.809,131.847 84.030,131.847 83.821 C 131.847 83.776,131.251 83.181,130.523 82.497 L 129.199 81.254 130.441 82.578 M276.137 82.655 C 275.750 83.348,275.553 83.841,275.699 83.751 C 275.992 83.570,277.159 81.394,276.963 81.394 C 276.897 81.394,276.525 81.961,276.137 82.655 M207.769 83.972 C 206.557 85.237,205.275 86.711,204.919 87.247 C 204.336 88.127,204.363 88.113,205.195 87.108 C 205.702 86.495,207.051 85.021,208.194 83.833 C 209.336 82.645,210.204 81.672,210.122 81.672 C 210.039 81.672,208.981 82.707,207.769 83.972 M255.877 83.136 C 256.560 83.864,257.156 84.460,257.201 84.460 C 257.410 84.460,257.189 84.210,255.958 83.055 L 254.634 81.812 255.877 83.136 M259.930 83.624 C 259.579 83.775,259.527 83.863,259.791 83.863 C 260.021 83.863,260.460 83.755,260.767 83.624 C 261.118 83.473,261.169 83.384,260.906 83.384 C 260.676 83.384,260.237 83.492,259.930 83.624 M134.495 86.969 C 136.022 88.502,137.334 89.756,137.411 89.756 C 137.488 89.756,136.301 88.502,134.774 86.969 C 133.246 85.436,131.934 84.181,131.857 84.181 C 131.780 84.181,132.967 85.436,134.495 86.969 M124.909 87.278 C 124.737 87.771,124.646 88.223,124.705 88.282 C 124.765 88.342,124.954 87.988,125.126 87.495 C 125.298 87.003,125.389 86.551,125.330 86.491 C 125.270 86.431,125.081 86.786,124.909 87.278 M272.340 87.660 C 271.666 88.346,271.170 88.949,271.237 88.998 C 271.304 89.048,271.910 88.486,272.583 87.750 C 274.126 86.062,273.966 86.003,272.340 87.660 M269.547 90.453 C 268.870 91.143,268.379 91.707,268.455 91.707 C 268.532 91.707,269.149 91.143,269.826 90.453 C 270.503 89.763,270.994 89.199,270.917 89.199 C 270.841 89.199,270.224 89.763,269.547 90.453 M123.918 90.747 C 123.813 91.307,123.783 91.820,123.851 91.888 C 123.919 91.956,124.061 91.554,124.166 90.995 C 124.271 90.436,124.301 89.922,124.233 89.854 C 124.164 89.786,124.023 90.188,123.918 90.747 M138.397 90.567 C 139.240 91.488,141.324 93.245,141.324 93.035 C 141.324 92.972,140.477 92.186,139.443 91.287 C 138.408 90.389,137.937 90.064,138.397 90.567 M202.509 90.871 C 202.271 91.331,202.139 91.707,202.216 91.707 C 202.292 91.707,202.550 91.331,202.787 90.871 C 203.025 90.411,203.157 90.035,203.081 90.035 C 203.004 90.035,202.747 90.411,202.509 90.871 M282.576 90.497 C 283.023 90.678,282.710 91.303,281.060 93.519 C 280.285 94.560,280.152 94.823,280.706 94.216 C 282.624 92.115,283.566 90.297,282.718 90.336 C 282.430 90.349,282.372 90.415,282.576 90.497 M278.328 91.856 C 277.630 92.192,277.607 92.231,278.188 92.089 C 278.978 91.896,279.866 91.443,279.443 91.450 C 279.289 91.452,278.787 91.635,278.328 91.856 M266.341 93.132 C 264.643 94.536,264.228 95.052,264.802 95.052 C 264.977 95.052,265.052 94.942,264.969 94.808 C 264.886 94.674,265.301 94.229,265.891 93.820 C 266.846 93.158,268.438 91.673,268.132 91.729 C 268.067 91.741,267.261 92.372,266.341 93.132 M123.555 93.798 C 123.558 94.411,123.615 94.629,123.681 94.282 C 123.748 93.936,123.746 93.434,123.676 93.167 C 123.606 92.901,123.552 93.185,123.555 93.798 M274.007 93.101 C 273.447 93.280,273.419 93.326,273.868 93.332 C 274.174 93.337,274.676 93.233,274.983 93.101 C 275.693 92.796,274.960 92.796,274.007 93.101 M270.662 93.937 C 270.110 94.114,270.081 94.160,270.523 94.160 C 270.829 94.160,271.394 94.060,271.777 93.937 C 272.329 93.761,272.358 93.714,271.916 93.714 C 271.610 93.714,271.045 93.815,270.662 93.937 M266.063 94.774 C 264.904 95.068,266.044 95.082,267.456 94.790 C 268.394 94.596,268.438 94.559,267.735 94.560 C 267.275 94.560,266.523 94.656,266.063 94.774 M123.297 97.143 C 123.298 98.216,123.349 98.621,123.409 98.043 C 123.469 97.464,123.468 96.586,123.407 96.091 C 123.345 95.597,123.296 96.070,123.297 97.143 M199.892 96.477 C 199.720 96.970,199.628 97.421,199.688 97.481 C 199.747 97.541,199.937 97.186,200.108 96.694 C 200.280 96.201,200.372 95.749,200.312 95.690 C 200.253 95.630,200.063 95.984,199.892 96.477 M145.693 96.468 C 146.039 96.887,147.735 97.954,147.735 97.753 C 147.735 97.688,147.202 97.283,146.551 96.854 C 145.899 96.424,145.513 96.251,145.693 96.468 M275.679 99.209 C 274.683 100.222,272.864 101.970,271.638 103.092 C 270.411 104.215,270.913 103.819,272.753 102.213 C 276.257 99.154,278.201 97.253,277.755 97.324 C 277.610 97.347,276.676 98.195,275.679 99.209 M199.057 99.280 C 199.039 99.536,198.952 99.975,198.864 100.256 C 198.712 100.740,198.720 100.741,199.022 100.270 C 199.197 99.997,199.284 99.558,199.215 99.294 C 199.102 98.863,199.086 98.861,199.057 99.280 M123.560 100.348 C 123.560 101.038,123.615 101.321,123.681 100.976 C 123.747 100.631,123.747 100.066,123.681 99.721 C 123.615 99.376,123.560 99.659,123.560 100.348 M153.728 101.688 C 153.882 101.848,155.010 102.509,156.237 103.158 C 157.463 103.806,158.341 104.212,158.188 104.059 C 157.806 103.678,153.380 101.325,153.728 101.688 M198.264 103.972 C 198.264 104.662,198.318 104.944,198.385 104.599 C 198.451 104.254,198.451 103.690,198.385 103.345 C 198.318 103.000,198.264 103.282,198.264 103.972 M198.008 107.735 C 198.008 109.115,198.055 109.715,198.113 109.068 C 198.172 108.421,198.172 107.292,198.115 106.559 C 198.057 105.826,198.009 106.355,198.008 107.735 M162.509 106.341 C 162.892 106.561,163.331 106.740,163.484 106.740 C 163.638 106.740,163.449 106.561,163.066 106.341 C 162.683 106.122,162.244 105.943,162.091 105.943 C 161.937 105.943,162.125 106.122,162.509 106.341 M266.580 111.359 C 266.579 112.739,266.626 113.338,266.685 112.691 C 266.743 112.044,266.744 110.915,266.686 110.183 C 266.628 109.450,266.581 109.979,266.580 111.359 M170.314 109.500 C 170.544 109.642,171.045 109.842,171.429 109.945 C 171.913 110.074,171.998 110.052,171.707 109.873 C 171.477 109.731,170.976 109.531,170.592 109.428 C 170.108 109.299,170.023 109.320,170.314 109.500 M126.272 110.207 C 126.272 110.509,127.657 113.171,127.814 113.171 C 127.891 113.171,127.623 112.512,127.219 111.707 C 126.441 110.159,126.272 109.891,126.272 110.207 M198.268 111.638 C 198.270 112.404,198.324 112.685,198.388 112.261 C 198.452 111.837,198.451 111.210,198.384 110.867 C 198.318 110.524,198.266 110.871,198.268 111.638 M176.864 111.777 C 177.171 111.909,177.610 112.017,177.840 112.017 C 178.103 112.017,178.052 111.928,177.700 111.777 C 177.394 111.645,176.955 111.537,176.725 111.537 C 176.461 111.537,176.513 111.626,176.864 111.777 M183.136 113.449 C 183.519 113.572,184.084 113.673,184.390 113.673 C 184.832 113.673,184.803 113.626,184.251 113.449 C 183.868 113.327,183.303 113.226,182.997 113.226 C 182.555 113.226,182.584 113.273,183.136 113.449 M187.317 114.286 C 187.700 114.408,188.265 114.509,188.571 114.509 C 189.013 114.509,188.984 114.462,188.432 114.286 C 188.049 114.163,187.484 114.063,187.178 114.063 C 186.736 114.063,186.765 114.109,187.317 114.286 M191.289 115.035 C 191.557 115.105,191.997 115.105,192.265 115.035 C 192.533 114.965,192.314 114.908,191.777 114.908 C 191.240 114.908,191.021 114.965,191.289 115.035 M193.240 115.314 C 193.509 115.384,193.948 115.384,194.216 115.314 C 194.484 115.244,194.265 115.187,193.728 115.187 C 193.192 115.187,192.972 115.244,193.240 115.314 M198.746 115.354 C 198.746 115.533,198.463 115.694,198.118 115.712 C 197.602 115.738,197.583 115.768,198.009 115.877 C 198.565 116.020,199.251 115.534,198.936 115.220 C 198.831 115.115,198.746 115.175,198.746 115.354 M195.331 115.597 C 195.676 115.664,196.240 115.664,196.585 115.597 C 196.930 115.531,196.648 115.477,195.958 115.477 C 195.268 115.477,194.986 115.531,195.331 115.597 M266.272 118.049 C 266.275 118.662,266.333 118.880,266.399 118.533 C 266.466 118.187,266.463 117.685,266.394 117.418 C 266.324 117.152,266.269 117.436,266.272 118.049 M132.366 119.582 C 133.290 120.732,134.771 122.362,135.658 123.206 C 137.117 124.593,137.085 124.540,135.324 122.648 C 134.254 121.498,132.773 119.868,132.032 119.024 C 131.172 118.045,131.293 118.246,132.366 119.582 M265.801 122.387 C 265.694 123.480,265.664 124.432,265.734 124.503 C 265.805 124.574,265.953 123.739,266.063 122.648 C 266.172 121.557,266.202 120.604,266.130 120.531 C 266.057 120.459,265.909 121.294,265.801 122.387 M123.322 121.632 C 123.242 121.840,123.222 122.812,123.277 123.792 L 123.377 125.575 123.431 123.524 C 123.476 121.798,123.553 121.500,123.917 121.639 C 124.165 121.735,124.277 121.688,124.179 121.530 C 123.936 121.137,123.492 121.190,123.322 121.632 M127.108 123.159 C 127.338 123.301,127.840 123.501,128.223 123.603 C 128.707 123.733,128.792 123.711,128.502 123.531 C 128.272 123.389,127.770 123.189,127.387 123.087 C 126.902 122.957,126.817 122.979,127.108 123.159 M129.617 124.042 C 130.570 124.347,131.303 124.347,130.592 124.042 C 130.286 123.910,129.784 123.806,129.477 123.810 C 129.029 123.817,129.057 123.862,129.617 124.042 M137.498 124.954 C 137.618 125.265,137.484 125.437,137.058 125.520 C 136.552 125.618,136.579 125.645,137.213 125.676 C 138.007 125.716,138.287 125.101,137.653 124.709 C 137.436 124.575,137.384 124.658,137.498 124.954 M134.983 125.349 C 135.251 125.419,135.690 125.419,135.958 125.349 C 136.226 125.279,136.007 125.221,135.470 125.221 C 134.934 125.221,134.714 125.279,134.983 125.349 M264.960 128.375 C 264.854 129.086,264.824 129.725,264.893 129.795 C 264.963 129.864,265.107 129.339,265.214 128.628 C 265.320 127.917,265.351 127.279,265.281 127.209 C 265.211 127.139,265.067 127.664,264.960 128.375 M124.061 129.919 C 124.072 130.289,124.195 130.843,124.334 131.150 C 124.510 131.538,124.535 131.369,124.416 130.592 C 124.219 129.298,124.033 128.945,124.061 129.919 M263.038 137.044 C 262.769 138.053,262.599 138.929,262.661 138.990 C 262.722 139.052,262.995 138.279,263.267 137.274 C 263.539 136.269,263.709 135.393,263.644 135.328 C 263.579 135.263,263.306 136.036,263.038 137.044 M126.272 136.689 C 126.272 136.990,127.379 139.094,127.537 139.094 C 127.614 139.094,127.408 138.561,127.079 137.909 C 126.433 136.628,126.272 136.384,126.272 136.689 M262.180 140.090 C 262.078 140.498,262.048 140.886,262.113 140.952 C 262.179 141.018,262.317 140.737,262.419 140.329 C 262.522 139.920,262.552 139.532,262.486 139.466 C 262.420 139.401,262.283 139.681,262.180 140.090 M128.647 141.045 C 129.499 142.615,132.859 146.322,134.774 147.806 C 135.387 148.281,134.914 147.757,133.723 146.641 C 132.531 145.525,130.975 143.841,130.263 142.898 C 128.841 141.015,128.283 140.376,128.647 141.045 M259.698 147.224 C 259.446 147.866,259.285 148.437,259.341 148.493 C 259.397 148.549,259.652 148.072,259.907 147.433 C 260.163 146.794,260.323 146.223,260.264 146.164 C 260.205 146.105,259.950 146.582,259.698 147.224 M136.446 149.074 C 136.753 149.373,137.631 149.953,138.397 150.364 C 139.896 151.166,139.611 150.925,137.329 149.457 C 136.537 148.947,136.139 148.775,136.446 149.074 M258.721 149.559 C 258.254 150.584,258.343 150.803,258.848 149.871 C 259.084 149.436,259.225 149.027,259.161 148.964 C 259.097 148.900,258.899 149.168,258.721 149.559 M257.885 151.510 C 257.418 152.535,257.507 152.754,258.012 151.822 C 258.248 151.387,258.389 150.979,258.325 150.915 C 258.261 150.851,258.063 151.119,257.885 151.510 M139.930 151.217 C 139.930 151.408,141.637 152.254,141.765 152.126 C 141.825 152.066,141.437 151.808,140.902 151.553 C 140.368 151.298,139.930 151.147,139.930 151.217 M149.126 154.819 L 150.100 155.170 149.266 155.472 C 148.807 155.639,148.628 155.785,148.867 155.797 C 149.106 155.809,149.545 155.640,149.842 155.422 C 150.393 155.017,149.507 154.381,148.484 154.446 C 148.302 154.458,148.591 154.626,149.126 154.819 M135.503 156.446 C 135.526 156.890,135.571 156.936,135.659 156.603 C 135.728 156.344,135.995 156.076,136.254 156.008 C 136.588 155.920,136.542 155.874,136.098 155.851 C 135.615 155.826,135.478 155.963,135.503 156.446 M145.226 156.098 L 143.415 156.280 145.087 156.309 C 146.007 156.324,147.010 156.229,147.317 156.098 C 147.932 155.833,147.851 155.833,145.226 156.098 M137.352 156.294 C 137.697 156.361,138.261 156.361,138.606 156.294 C 138.951 156.228,138.669 156.173,137.979 156.173 C 137.289 156.173,137.007 156.228,137.352 156.294 M140.697 156.573 C 141.042 156.639,141.606 156.639,141.951 156.573 C 142.296 156.507,142.014 156.452,141.324 156.452 C 140.634 156.452,140.352 156.507,140.697 156.573 M135.765 157.300 C 135.741 157.640,136.924 160.312,137.045 160.191 C 137.102 160.133,136.842 159.408,136.465 158.580 C 136.089 157.751,135.774 157.175,135.765 157.300 M254.077 159.164 C 253.839 159.624,253.707 160.000,253.784 160.000 C 253.860 160.000,254.118 159.624,254.355 159.164 C 254.593 158.704,254.725 158.328,254.648 158.328 C 254.572 158.328,254.314 158.704,254.077 159.164 M250.214 165.436 C 249.347 166.739,248.697 167.805,248.770 167.805 C 248.843 167.805,249.512 166.895,250.256 165.784 C 251.861 163.386,252.055 163.066,251.905 163.066 C 251.842 163.066,251.081 164.132,250.214 165.436 M140.189 165.659 C 140.962 166.778,142.000 168.064,142.495 168.516 C 143.361 169.307,143.357 169.295,142.399 168.196 C 141.851 167.568,140.879 166.283,140.238 165.339 C 139.598 164.396,139.008 163.624,138.928 163.624 C 138.848 163.624,139.415 164.539,140.189 165.659 M247.767 168.990 C 247.419 169.488,246.464 170.742,245.646 171.777 C 244.827 172.812,244.220 173.659,244.297 173.659 C 244.449 173.659,247.027 170.448,248.046 168.990 C 248.394 168.491,248.616 168.084,248.540 168.084 C 248.463 168.084,248.115 168.491,247.767 168.990 M144.657 170.662 C 145.341 171.390,145.937 171.986,145.981 171.986 C 146.191 171.986,145.969 171.736,144.739 170.581 L 143.415 169.338 144.657 170.662 M146.442 172.201 C 146.662 172.558,148.293 173.765,148.293 173.571 C 148.293 173.502,147.832 173.095,147.269 172.665 C 146.707 172.236,146.334 172.027,146.442 172.201 M241.798 176.376 C 240.590 177.718,239.894 178.564,240.251 178.258 C 241.019 177.597,244.293 173.937,244.116 173.937 C 244.048 173.937,243.005 175.035,241.798 176.376 M153.589 176.536 C 153.589 176.738,156.698 177.890,156.846 177.742 C 156.911 177.677,156.424 177.435,155.764 177.204 C 155.104 176.973,154.345 176.694,154.077 176.585 C 153.808 176.476,153.589 176.453,153.589 176.536 M159.721 178.676 C 160.674 178.981,161.407 178.981,160.697 178.676 C 160.390 178.544,159.889 178.440,159.582 178.445 C 159.134 178.451,159.161 178.497,159.721 178.676 M164.688 179.552 C 166.150 179.795,166.420 179.923,166.275 180.306 C 166.134 180.675,166.169 180.697,166.450 180.418 C 167.007 179.866,166.427 179.546,164.596 179.395 L 162.927 179.258 164.688 179.552 M237.562 180.811 C 236.757 181.630,236.197 182.300,236.317 182.300 C 236.437 182.300,237.216 181.610,238.049 180.767 C 238.882 179.923,239.442 179.254,239.294 179.278 C 239.146 179.303,238.366 179.993,237.562 180.811 M163.494 182.332 C 162.030 183.432,161.893 183.615,163.015 182.970 C 163.806 182.516,165.050 181.425,164.712 181.483 C 164.650 181.493,164.102 181.875,163.494 182.332 M234.425 183.833 C 233.748 184.523,233.257 185.087,233.333 185.087 C 233.410 185.087,234.027 184.523,234.704 183.833 C 235.381 183.143,235.872 182.578,235.796 182.578 C 235.719 182.578,235.102 183.143,234.425 183.833 M160.893 184.092 C 159.598 185.007,159.416 185.269,160.509 184.643 C 161.019 184.351,161.568 183.955,161.728 183.763 C 162.140 183.271,161.947 183.347,160.893 184.092 M231.359 186.530 C 230.291 187.518,230.164 187.693,230.941 187.106 C 231.975 186.324,233.264 185.071,233.005 185.099 C 232.943 185.106,232.202 185.750,231.359 186.530 M155.192 187.334 C 154.003 187.942,153.031 188.501,153.031 188.578 C 153.031 188.654,154.035 188.212,155.261 187.596 C 156.488 186.979,157.491 186.413,157.491 186.338 C 157.491 186.151,157.596 186.105,155.192 187.334 M151.638 189.129 C 151.254 189.348,151.066 189.527,151.220 189.527 C 151.373 189.527,151.812 189.348,152.195 189.129 C 152.578 188.910,152.767 188.731,152.613 188.731 C 152.460 188.731,152.021 188.910,151.638 189.129 M227.178 189.860 C 226.206 190.711,226.206 190.713,227.100 190.118 C 227.593 189.790,228.071 189.401,228.161 189.255 C 228.430 188.820,228.207 188.957,227.178 189.860 M149.686 189.965 C 149.303 190.184,149.115 190.364,149.268 190.364 C 149.422 190.364,149.861 190.184,150.244 189.965 C 150.627 189.746,150.815 189.567,150.662 189.567 C 150.509 189.567,150.070 189.746,149.686 189.965 M224.405 191.798 C 222.585 193.130,222.286 193.426,223.415 192.777 C 224.278 192.280,226.310 190.673,226.063 190.682 C 225.986 190.685,225.240 191.187,224.405 191.798 M138.537 193.449 C 137.976 193.629,137.949 193.674,138.397 193.681 C 138.704 193.685,139.206 193.581,139.512 193.449 C 140.223 193.144,139.490 193.144,138.537 193.449 M117.352 194.548 C 117.352 195.010,117.759 195.076,118.129 194.675 C 118.428 194.352,118.393 194.286,117.920 194.286 C 117.608 194.286,117.352 194.404,117.352 194.548 M133.031 194.478 C 133.300 194.548,133.739 194.548,134.007 194.478 C 134.275 194.408,134.056 194.350,133.519 194.350 C 132.983 194.350,132.763 194.408,133.031 194.478 M119.515 194.762 C 119.862 194.828,120.364 194.826,120.630 194.756 C 120.897 194.686,120.613 194.632,120.000 194.635 C 119.387 194.638,119.169 194.695,119.515 194.762 M130.526 194.764 C 130.950 194.829,131.577 194.827,131.920 194.761 C 132.263 194.695,131.916 194.642,131.150 194.644 C 130.383 194.646,130.103 194.700,130.526 194.764 M123.415 195.050 C 124.373 195.104,125.941 195.104,126.899 195.050 C 127.857 194.995,127.073 194.951,125.157 194.951 C 123.240 194.951,122.456 194.995,123.415 195.050 M219.024 195.281 C 217.982 195.847,218.046 196.082,219.094 195.540 C 219.554 195.302,219.930 195.048,219.930 194.975 C 219.930 194.796,219.900 194.806,219.024 195.281 M119.582 196.083 C 119.582 196.160,119.958 196.417,120.418 196.655 C 120.878 196.893,121.254 197.025,121.254 196.948 C 121.254 196.871,120.878 196.614,120.418 196.376 C 119.958 196.138,119.582 196.007,119.582 196.083 M215.679 197.233 C 214.637 197.798,214.701 198.033,215.749 197.491 C 216.209 197.253,216.585 196.999,216.585 196.927 C 216.585 196.747,216.555 196.757,215.679 197.233 M125.714 199.443 C 127.324 200.270,128.767 200.947,128.920 200.947 C 129.073 200.947,127.882 200.270,126.272 199.443 C 124.662 198.615,123.220 197.938,123.066 197.938 C 122.913 197.938,124.105 198.615,125.714 199.443 M209.895 200.139 C 209.359 200.433,209.045 200.673,209.199 200.673 C 209.352 200.673,209.916 200.433,210.453 200.139 C 210.990 199.846,211.303 199.605,211.150 199.605 C 210.997 199.605,210.432 199.846,209.895 200.139 M206.551 201.672 C 206.167 201.892,205.979 202.071,206.132 202.071 C 206.286 202.071,206.725 201.892,207.108 201.672 C 207.491 201.453,207.679 201.274,207.526 201.274 C 207.373 201.274,206.934 201.453,206.551 201.672 M139.360 204.899 C 140.656 205.347,141.911 205.709,142.148 205.704 C 142.385 205.698,141.449 205.323,140.070 204.871 C 138.690 204.419,137.436 204.056,137.282 204.066 C 137.129 204.076,138.064 204.451,139.360 204.899 M196.655 205.157 C 196.304 205.308,196.252 205.396,196.516 205.396 C 196.746 205.396,197.185 205.289,197.491 205.157 C 197.843 205.006,197.894 204.917,197.631 204.917 C 197.401 204.917,196.962 205.025,196.655 205.157 M194.704 205.714 C 194.352 205.865,194.301 205.954,194.564 205.954 C 194.794 205.954,195.233 205.846,195.540 205.714 C 195.891 205.563,195.943 205.475,195.679 205.475 C 195.449 205.475,195.010 205.583,194.704 205.714 M144.251 206.272 C 144.557 206.404,144.997 206.511,145.226 206.511 C 145.490 206.511,145.439 206.423,145.087 206.272 C 144.780 206.140,144.341 206.032,144.111 206.032 C 143.848 206.032,143.899 206.121,144.251 206.272 M192.613 206.272 C 192.053 206.451,192.026 206.497,192.474 206.503 C 192.780 206.508,193.282 206.404,193.589 206.272 C 194.299 205.967,193.566 205.967,192.613 206.272 M147.456 207.108 C 147.840 207.231,148.404 207.331,148.711 207.331 C 149.152 207.331,149.123 207.285,148.571 207.108 C 148.188 206.985,147.624 206.885,147.317 206.885 C 146.876 206.885,146.905 206.931,147.456 207.108 M188.990 207.108 C 188.438 207.285,188.409 207.331,188.850 207.331 C 189.157 207.331,189.721 207.231,190.105 207.108 C 190.656 206.931,190.685 206.885,190.244 206.885 C 189.937 206.885,189.373 206.985,188.990 207.108 M184.530 207.944 C 183.593 208.244,184.605 208.244,185.784 207.944 C 186.535 207.753,186.549 207.731,185.923 207.726 C 185.540 207.723,184.913 207.822,184.530 207.944 M156.678 208.607 C 156.742 208.665,157.798 208.782,159.024 208.866 C 160.701 208.981,160.943 208.960,160.000 208.781 C 158.711 208.536,156.471 208.419,156.678 208.607 M177.700 208.780 C 176.370 208.963,176.357 208.973,177.422 208.991 C 178.035 209.002,179.164 208.913,179.930 208.793 C 181.811 208.500,179.826 208.489,177.700 208.780 M163.972 209.264 C 164.700 209.322,165.892 209.322,166.620 209.264 C 167.348 209.207,166.753 209.160,165.296 209.160 C 163.840 209.160,163.244 209.207,163.972 209.264 M171.220 209.264 C 171.948 209.322,173.139 209.322,173.868 209.264 C 174.596 209.207,174.000 209.160,172.544 209.160 C 171.087 209.160,170.491 209.207,171.220 209.264 " stroke="none" fill="#acd4fc" fill-rule="evenodd"></path><path id="path5" d="M229.059 73.512 C 229.557 73.574,230.373 73.574,230.871 73.512 C 231.369 73.450,230.962 73.399,229.965 73.399 C 228.969 73.399,228.561 73.450,229.059 73.512 M233.798 73.512 C 234.296 73.574,235.111 73.574,235.610 73.512 C 236.108 73.450,235.700 73.399,234.704 73.399 C 233.707 73.399,233.300 73.450,233.798 73.512 M137.143 89.059 C 137.663 89.596,138.151 90.035,138.228 90.035 C 138.304 90.035,137.942 89.596,137.422 89.059 C 136.902 88.523,136.413 88.084,136.337 88.084 C 136.260 88.084,136.623 88.523,137.143 89.059 M123.029 96.864 C 123.029 98.397,123.076 98.989,123.133 98.179 C 123.189 97.369,123.189 96.114,123.131 95.391 C 123.074 94.668,123.028 95.331,123.029 96.864 M277.625 97.770 L 274.983 100.488 277.700 97.845 C 280.225 95.391,280.545 95.052,280.343 95.052 C 280.302 95.052,279.079 96.275,277.625 97.770 M197.701 106.341 C 197.704 106.955,197.761 107.173,197.828 106.826 C 197.894 106.479,197.892 105.978,197.822 105.711 C 197.752 105.445,197.698 105.728,197.701 106.341 M266.867 111.498 C 266.867 113.415,266.912 114.199,266.966 113.240 C 267.020 112.282,267.020 110.714,266.966 109.756 C 266.912 108.798,266.867 109.582,266.867 111.498 M197.695 109.268 C 197.695 109.805,197.753 110.024,197.823 109.756 C 197.893 109.488,197.893 109.049,197.823 108.780 C 197.753 108.512,197.695 108.732,197.695 109.268 M196.449 115.319 C 196.796 115.386,197.298 115.383,197.564 115.313 C 197.831 115.244,197.547 115.189,196.934 115.192 C 196.321 115.195,196.103 115.252,196.449 115.319 M266.546 119.024 C 266.546 119.561,266.603 119.780,266.673 119.512 C 266.743 119.244,266.743 118.805,266.673 118.537 C 266.603 118.268,266.546 118.488,266.546 119.024 M266.267 121.533 C 266.267 122.070,266.324 122.289,266.394 122.021 C 266.464 121.753,266.464 121.314,266.394 121.045 C 266.324 120.777,266.267 120.997,266.267 121.533 M123.010 124.321 C 123.010 125.164,123.063 125.509,123.126 125.087 C 123.190 124.666,123.190 123.976,123.126 123.554 C 123.063 123.132,123.010 123.477,123.010 124.321 M136.331 124.214 C 136.701 124.692,137.060 125.033,137.128 124.972 C 137.197 124.911,136.894 124.520,136.455 124.103 L 135.658 123.345 136.331 124.214 M135.099 155.726 C 134.997 155.828,134.915 156.048,134.917 156.214 C 134.920 156.412,134.992 156.405,135.127 156.192 C 135.240 156.015,135.709 155.814,136.168 155.746 L 137.003 155.624 136.144 155.582 C 135.671 155.559,135.201 155.624,135.099 155.726 M143.275 169.895 C 144.108 170.739,144.852 171.429,144.929 171.429 C 145.005 171.429,144.387 170.739,143.554 169.895 C 142.721 169.052,141.977 168.362,141.901 168.362 C 141.824 168.362,142.443 169.052,143.275 169.895 M239.850 179.024 L 238.467 180.488 239.930 179.105 C 240.735 178.344,241.394 177.685,241.394 177.641 C 241.394 177.433,241.135 177.665,239.850 179.024 M165.369 179.984 C 165.639 180.054,165.777 180.247,165.675 180.413 C 165.564 180.591,165.619 180.633,165.811 180.514 C 166.346 180.183,166.172 179.789,165.505 179.823 C 165.028 179.848,164.995 179.886,165.369 179.984 M235.948 182.927 L 234.564 184.390 236.028 183.007 C 237.388 181.722,237.619 181.463,237.411 181.463 C 237.367 181.463,236.708 182.122,235.948 182.927 M116.516 194.252 C 116.516 194.386,116.735 194.668,117.003 194.879 C 117.441 195.222,117.453 195.213,117.127 194.795 C 116.811 194.391,116.848 194.312,117.405 194.206 C 117.977 194.097,117.963 194.079,117.282 194.045 C 116.861 194.024,116.516 194.117,116.516 194.252 M129.129 194.478 C 129.397 194.548,129.836 194.548,130.105 194.478 C 130.373 194.408,130.153 194.350,129.617 194.350 C 129.080 194.350,128.861 194.408,129.129 194.478 M125.371 194.766 C 125.872 194.829,126.624 194.827,127.043 194.764 C 127.462 194.700,127.052 194.649,126.132 194.651 C 125.213 194.652,124.870 194.704,125.371 194.766 M156.446 208.973 C 156.714 209.043,157.153 209.043,157.422 208.973 C 157.690 208.903,157.470 208.845,156.934 208.845 C 156.397 208.845,156.178 208.903,156.446 208.973 M162.861 209.538 C 163.285 209.602,163.912 209.600,164.255 209.534 C 164.598 209.468,164.251 209.416,163.484 209.418 C 162.718 209.420,162.437 209.474,162.861 209.538 M168.008 209.818 C 168.503 209.879,169.381 209.880,169.959 209.820 C 170.537 209.760,170.132 209.709,169.059 209.708 C 167.986 209.707,167.513 209.756,168.008 209.818 " stroke="none" fill="#71baf4" fill-rule="evenodd"></path></g></svg>