<svg id="svg" version="1.1" xmlns="http://www.w3.org/2000/svg" xmlns:xlink="http://www.w3.org/1999/xlink" width="400" height="278.7018255578093" viewBox="0, 0, 400,278.7018255578093"><g id="svgg"><path id="path0" d="M0.000 139.373 L 0.000 278.746 200.000 278.746 L 400.000 278.746 400.000 139.373 L 400.000 0.000 200.000 0.000 L 0.000 0.000 0.000 139.373 M209.895 73.126 C 211.812 73.388,213.693 73.717,214.077 73.857 C 214.460 73.997,215.213 74.192,215.749 74.291 C 216.286 74.390,217.101 74.584,217.561 74.722 C 220.714 75.667,222.335 76.218,222.564 76.421 C 222.710 76.550,223.024 76.656,223.261 76.657 C 223.499 76.658,224.053 76.846,224.492 77.075 C 224.931 77.304,225.404 77.491,225.542 77.491 C 225.961 77.491,231.618 80.285,232.854 81.103 C 233.488 81.522,234.571 82.167,235.259 82.536 C 237.125 83.533,242.425 87.516,244.759 89.673 C 252.403 96.740,257.123 103.390,261.829 113.728 C 262.501 115.205,263.983 119.526,264.410 121.254 C 266.407 129.338,266.818 132.359,266.837 139.094 C 266.846 142.118,266.697 145.581,266.501 146.899 C 265.672 152.489,263.487 161.414,262.774 162.128 C 262.666 162.235,262.578 162.497,262.578 162.710 C 262.578 164.158,255.323 177.603,253.963 178.676 C 253.865 178.753,253.107 179.693,252.278 180.767 C 249.028 184.972,244.924 188.938,239.647 192.974 C 238.303 194.002,237.091 194.843,236.953 194.843 C 236.814 194.843,236.660 194.939,236.609 195.055 C 236.468 195.375,231.485 198.239,229.268 199.275 C 225.902 200.847,225.705 200.931,222.997 201.969 C 213.391 205.651,199.635 206.959,189.268 205.178 C 184.860 204.420,180.170 203.240,178.258 202.408 C 177.951 202.274,176.948 201.879,176.028 201.530 C 175.108 201.181,173.829 200.662,173.186 200.378 C 172.543 200.093,171.964 199.861,171.901 199.861 C 171.837 199.861,170.858 199.351,169.725 198.727 C 168.506 198.057,167.438 197.649,167.108 197.728 C 166.801 197.801,165.045 198.264,163.206 198.756 C 159.886 199.643,158.858 199.903,154.564 200.933 C 153.338 201.227,151.394 201.723,150.244 202.035 C 145.133 203.420,142.471 204.128,141.045 204.480 C 132.630 206.555,133.240 206.449,133.240 205.830 C 133.240 205.552,133.553 204.252,133.936 202.941 C 134.318 201.630,134.814 199.930,135.037 199.164 C 135.261 198.397,135.701 196.902,136.014 195.842 C 136.328 194.781,136.585 193.760,136.585 193.574 C 136.585 193.387,136.770 192.625,136.997 191.879 C 137.223 191.133,137.787 189.206,138.251 187.596 C 138.715 185.986,139.277 184.042,139.500 183.275 C 140.475 179.931,141.022 177.912,141.199 177.003 C 141.303 176.467,141.488 175.902,141.609 175.749 C 142.574 174.528,142.262 172.905,140.280 168.852 C 138.253 164.705,137.026 161.582,136.034 158.049 C 135.711 156.899,135.324 155.519,135.174 154.983 C 133.586 149.306,132.936 141.065,133.520 134.013 C 133.781 130.862,134.800 124.450,135.123 123.928 C 135.209 123.789,135.438 122.973,135.632 122.116 C 136.350 118.944,137.893 114.493,139.167 111.916 C 139.546 111.150,140.205 109.770,140.632 108.850 C 141.806 106.318,145.066 101.311,148.008 97.519 C 150.711 94.035,156.973 87.943,159.710 86.132 C 160.663 85.503,162.908 83.819,163.066 83.616 C 163.143 83.517,163.953 83.030,164.867 82.532 C 165.781 82.034,166.847 81.407,167.236 81.137 C 169.897 79.297,179.258 75.476,183.275 74.591 C 184.502 74.321,185.819 73.988,186.202 73.851 C 186.585 73.714,188.524 73.407,190.509 73.168 C 192.495 72.928,194.185 72.668,194.264 72.589 C 194.590 72.263,206.604 72.676,209.895 73.126 M193.449 84.708 C 193.220 84.841,192.153 85.037,191.080 85.142 C 188.574 85.389,185.059 86.344,180.669 87.970 C 176.981 89.337,171.182 92.257,170.918 92.882 C 170.866 93.002,170.711 93.101,170.572 93.101 C 169.044 93.101,159.291 101.975,156.634 105.784 C 155.993 106.704,155.368 107.521,155.246 107.599 C 154.967 107.779,151.360 113.655,151.355 113.938 C 151.353 114.053,150.964 114.899,150.491 115.819 C 150.017 116.739,149.527 117.805,149.400 118.188 C 149.274 118.571,148.898 119.575,148.564 120.418 C 148.231 121.261,147.796 122.600,147.598 123.392 C 147.400 124.185,147.166 124.950,147.077 125.093 C 146.651 125.784,145.469 134.081,145.315 137.469 C 144.945 145.598,146.712 154.524,150.178 162.039 C 151.450 164.799,153.063 167.716,154.596 170.033 L 155.348 171.169 154.571 173.877 C 153.639 177.127,153.078 178.991,152.583 180.488 C 152.380 181.101,152.130 182.139,152.028 182.794 C 151.927 183.449,151.734 184.052,151.601 184.134 C 151.468 184.216,151.359 184.513,151.359 184.793 C 151.359 185.073,151.061 186.331,150.697 187.588 L 150.035 189.872 150.627 189.688 C 150.953 189.586,152.098 189.276,153.171 188.999 C 154.244 188.721,156.314 188.176,157.770 187.788 C 159.226 187.399,161.986 186.692,163.902 186.216 C 165.819 185.741,167.833 185.217,168.378 185.053 C 169.314 184.772,169.509 184.840,171.862 186.265 C 174.308 187.746,178.353 189.826,178.789 189.826 C 178.910 189.826,179.405 190.006,179.888 190.226 C 181.203 190.825,185.670 192.263,186.919 192.489 C 187.521 192.598,188.211 192.788,188.451 192.911 C 189.434 193.417,199.150 194.347,201.533 194.163 C 212.365 193.330,221.212 190.730,228.153 186.338 C 228.767 185.950,229.456 185.548,229.686 185.444 C 229.916 185.340,230.230 185.154,230.383 185.031 C 230.537 184.908,231.805 183.947,233.201 182.896 C 234.598 181.845,235.987 180.747,236.288 180.457 C 236.589 180.168,237.328 179.476,237.930 178.921 C 239.657 177.328,241.446 175.354,243.079 173.240 C 243.909 172.167,244.653 171.226,244.733 171.150 C 246.000 169.942,250.221 162.020,251.566 158.328 C 255.929 146.343,255.932 132.323,251.574 120.139 C 250.029 115.820,247.432 111.127,243.707 105.923 C 241.863 103.348,236.155 97.694,233.167 95.485 C 232.556 95.033,231.993 94.583,231.916 94.485 C 231.648 94.140,224.241 89.835,223.553 89.623 C 223.170 89.505,222.713 89.294,222.536 89.153 C 222.359 89.012,221.857 88.785,221.421 88.648 C 220.984 88.512,219.561 88.002,218.258 87.516 C 212.340 85.308,208.580 84.691,200.279 84.564 C 196.753 84.510,193.679 84.575,193.449 84.708 M183.122 108.925 C 183.540 109.426,184.016 110.241,184.180 110.737 C 184.344 111.232,185.065 112.955,185.782 114.564 C 187.333 118.045,187.236 117.819,188.835 121.630 C 190.619 125.880,190.745 125.384,186.690 130.096 C 183.498 133.805,183.415 134.128,184.995 136.719 C 186.315 138.886,189.366 142.863,190.666 144.111 C 193.410 146.747,196.348 149.261,197.315 149.801 C 197.565 149.940,198.585 150.577,199.582 151.215 C 202.455 153.054,207.252 155.261,208.376 155.261 C 209.047 155.261,210.377 153.848,212.680 150.689 C 216.181 145.884,216.446 145.794,220.911 147.881 C 222.441 148.596,224.195 149.410,224.808 149.688 C 235.100 154.366,234.984 154.236,233.573 159.425 C 230.727 169.892,218.731 174.411,207.526 169.236 C 207.220 169.095,206.341 168.761,205.575 168.495 C 192.228 163.867,175.948 149.162,169.317 135.746 C 166.327 129.694,165.207 119.769,167.227 117.224 C 167.354 117.064,167.553 116.620,167.668 116.237 C 168.232 114.368,172.935 108.826,174.515 108.169 C 174.887 108.014,176.805 107.916,178.777 107.951 L 182.362 108.014 183.122 108.925 " stroke="none" fill="#1bd443" fill-rule="evenodd"></path><path id="path1" d="M197.631 72.955 C 192.140 73.121,183.287 74.748,178.955 76.386 C 178.111 76.705,176.598 77.270,175.591 77.642 C 140.084 90.737,123.472 134.683,140.980 169.199 C 143.166 173.508,143.518 170.970,138.099 189.965 C 136.586 195.267,134.562 202.556,134.315 203.590 C 134.174 204.185,133.932 204.906,133.779 205.193 C 133.384 205.931,133.400 205.928,141.045 203.942 C 142.502 203.564,147.206 202.355,151.498 201.256 C 159.403 199.232,161.455 198.701,165.389 197.661 L 167.572 197.084 169.988 198.327 C 207.423 217.592,253.854 196.616,264.283 155.728 C 275.226 112.823,242.042 71.613,197.631 72.955 M208.502 84.455 C 233.474 89.099,250.967 106.840,254.914 131.527 C 256.714 142.785,253.607 158.315,247.742 167.379 C 243.212 174.381,239.178 178.916,233.868 182.978 C 215.568 196.975,192.349 198.432,171.946 186.865 L 169.258 185.341 163.166 186.907 C 159.815 187.769,155.631 188.843,153.868 189.294 C 152.105 189.746,150.443 190.184,150.174 190.268 C 149.556 190.462,149.519 189.518,150.079 187.815 C 150.295 187.158,150.938 184.927,151.508 182.857 C 152.078 180.787,152.854 178.028,153.232 176.725 C 153.611 175.422,154.097 173.624,154.314 172.729 L 154.708 171.103 153.157 168.595 C 135.036 139.300,148.289 99.099,179.791 87.806 C 180.787 87.449,181.733 87.058,181.892 86.939 C 182.417 86.542,189.641 84.805,192.195 84.461 C 193.575 84.275,194.829 84.076,194.983 84.019 C 195.616 83.782,206.828 84.143,208.502 84.455 M175.465 108.412 C 174.223 108.710,173.276 109.415,171.552 111.323 C 162.207 121.663,166.117 135.709,183.282 153.461 C 191.868 162.341,208.596 170.871,217.423 170.871 C 224.673 170.871,230.958 166.654,232.730 160.602 C 234.247 155.423,234.109 154.552,231.583 153.359 C 228.485 151.895,224.895 150.244,224.809 150.244 C 224.763 150.244,223.142 149.491,221.207 148.571 C 216.265 146.222,216.732 146.052,212.411 151.777 C 208.637 156.777,209.263 156.674,202.658 153.377 C 195.742 149.924,190.423 145.348,185.893 138.955 C 182.907 134.739,182.778 133.522,185.083 131.289 C 185.872 130.524,188.977 126.830,189.225 126.360 C 189.774 125.322,189.624 124.806,186.873 118.270 C 183.329 109.850,182.910 108.995,182.201 108.733 C 181.323 108.409,176.444 108.177,175.465 108.412 " stroke="none" fill="#fafbfa" fill-rule="evenodd"></path><path id="path2" d="M194.634 72.945 C 194.902 73.015,195.341 73.015,195.610 72.945 C 195.878 72.875,195.659 72.817,195.122 72.817 C 194.585 72.817,194.366 72.875,194.634 72.945 M204.669 72.945 C 204.937 73.015,205.376 73.015,205.645 72.945 C 205.913 72.875,205.693 72.817,205.157 72.817 C 204.620 72.817,204.401 72.875,204.669 72.945 M199.515 84.100 C 199.862 84.166,200.364 84.164,200.630 84.094 C 200.897 84.024,200.613 83.970,200.000 83.973 C 199.387 83.976,199.169 84.033,199.515 84.100 M195.052 84.378 C 195.397 84.444,195.962 84.444,196.307 84.378 C 196.652 84.311,196.369 84.257,195.679 84.257 C 194.990 84.257,194.707 84.311,195.052 84.378 M203.972 84.378 C 204.317 84.444,204.882 84.444,205.226 84.378 C 205.571 84.311,205.289 84.257,204.599 84.257 C 203.909 84.257,203.627 84.311,203.972 84.378 M246.690 91.795 C 246.690 91.843,247.098 92.250,247.596 92.700 L 248.502 93.519 247.683 92.613 C 246.920 91.769,246.690 91.579,246.690 91.795 M160.122 101.254 L 159.303 102.160 160.209 101.342 C 160.707 100.891,161.115 100.484,161.115 100.436 C 161.115 100.220,160.885 100.410,160.122 101.254 M178.052 108.072 C 178.399 108.138,178.901 108.136,179.167 108.066 C 179.434 107.996,179.150 107.942,178.537 107.945 C 177.923 107.948,177.705 108.005,178.052 108.072 M145.012 136.307 C 145.012 136.843,145.070 137.063,145.140 136.794 C 145.210 136.526,145.210 136.087,145.140 135.819 C 145.070 135.551,145.012 135.770,145.012 136.307 M133.584 136.585 C 133.584 137.122,133.641 137.341,133.711 137.073 C 133.781 136.805,133.781 136.366,133.711 136.098 C 133.641 135.829,133.584 136.049,133.584 136.585 M266.585 139.233 C 266.586 140.920,266.632 141.574,266.687 140.687 C 266.743 139.800,266.742 138.420,266.686 137.620 C 266.630 136.821,266.584 137.547,266.585 139.233 M255.144 139.233 C 255.145 140.307,255.195 140.711,255.256 140.133 C 255.316 139.555,255.315 138.677,255.253 138.182 C 255.192 137.687,255.142 138.160,255.144 139.233 M133.584 142.997 C 133.584 143.533,133.641 143.753,133.711 143.484 C 133.781 143.216,133.781 142.777,133.711 142.509 C 133.641 142.240,133.584 142.460,133.584 142.997 M191.220 145.087 C 192.207 146.084,193.078 146.899,193.155 146.899 C 193.231 146.899,192.486 146.084,191.498 145.087 C 190.511 144.091,189.640 143.275,189.563 143.275 C 189.486 143.275,190.232 144.091,191.220 145.087 M182.439 153.031 C 183.349 153.951,184.157 154.704,184.233 154.704 C 184.310 154.704,183.628 153.951,182.718 153.031 C 181.808 152.111,181.000 151.359,180.923 151.359 C 180.847 151.359,181.529 152.111,182.439 153.031 M185.645 155.906 C 185.645 155.954,186.052 156.362,186.551 156.812 L 187.456 157.631 186.638 156.725 C 185.875 155.880,185.645 155.691,185.645 155.906 M247.090 186.272 L 246.272 187.178 247.178 186.359 C 247.676 185.909,248.084 185.501,248.084 185.453 C 248.084 185.238,247.854 185.427,247.090 186.272 M205.090 205.633 C 205.437 205.699,205.939 205.697,206.205 205.627 C 206.472 205.557,206.188 205.503,205.575 205.506 C 204.962 205.509,204.744 205.566,205.090 205.633 " stroke="none" fill="#70e687" fill-rule="evenodd"></path><path id="path3" d="M197.425 72.674 C 197.849 72.738,198.476 72.736,198.819 72.670 C 199.162 72.604,198.815 72.552,198.049 72.554 C 197.282 72.556,197.002 72.610,197.425 72.674 M201.328 72.674 C 201.752 72.738,202.379 72.736,202.722 72.670 C 203.064 72.604,202.718 72.552,201.951 72.554 C 201.185 72.556,200.904 72.610,201.328 72.674 M197.285 84.378 C 197.632 84.445,198.134 84.442,198.400 84.373 C 198.667 84.303,198.383 84.248,197.770 84.251 C 197.157 84.255,196.939 84.312,197.285 84.378 M202.024 84.378 C 202.371 84.445,202.873 84.442,203.139 84.373 C 203.406 84.303,203.122 84.248,202.509 84.251 C 201.895 84.255,201.677 84.312,202.024 84.378 M155.104 90.105 L 154.286 91.010 155.192 90.192 C 155.690 89.741,156.098 89.334,156.098 89.286 C 156.098 89.070,155.868 89.260,155.104 90.105 M239.721 101.272 C 239.721 101.320,240.129 101.728,240.627 102.178 L 241.533 102.997 240.714 102.091 C 239.951 101.246,239.721 101.057,239.721 101.272 M180.003 108.072 C 180.350 108.138,180.852 108.136,181.118 108.066 C 181.385 107.996,181.101 107.942,180.488 107.945 C 179.875 107.948,179.657 108.005,180.003 108.072 M254.853 134.774 C 254.855 135.540,254.909 135.821,254.974 135.397 C 255.038 134.973,255.036 134.346,254.970 134.003 C 254.904 133.660,254.851 134.007,254.853 134.774 M133.589 134.774 C 133.593 135.387,133.650 135.605,133.716 135.258 C 133.783 134.911,133.780 134.410,133.711 134.143 C 133.641 133.877,133.586 134.160,133.589 134.774 M266.561 135.052 C 266.563 135.819,266.617 136.099,266.681 135.676 C 266.745 135.252,266.743 134.625,266.677 134.282 C 266.611 133.939,266.558 134.286,266.561 135.052 M145.048 139.652 C 145.048 141.108,145.095 141.704,145.153 140.976 C 145.210 140.247,145.210 139.056,145.153 138.328 C 145.095 137.599,145.048 138.195,145.048 139.652 M133.332 139.512 C 133.333 140.585,133.384 140.990,133.444 140.412 C 133.504 139.834,133.503 138.956,133.442 138.461 C 133.380 137.966,133.331 138.439,133.332 139.512 M266.561 143.415 C 266.563 144.181,266.617 144.462,266.681 144.038 C 266.745 143.614,266.743 142.987,266.677 142.644 C 266.611 142.301,266.558 142.648,266.561 143.415 M254.849 143.554 C 254.849 144.244,254.904 144.526,254.970 144.181 C 255.037 143.836,255.037 143.272,254.970 142.927 C 254.904 142.582,254.849 142.864,254.849 143.554 M133.329 205.572 C 133.363 205.897,133.616 206.150,133.940 206.183 C 134.342 206.224,134.365 206.201,134.024 206.099 C 133.765 206.022,133.490 205.747,133.413 205.488 C 133.311 205.147,133.288 205.170,133.329 205.572 M197.983 205.914 C 198.407 205.978,199.034 205.977,199.377 205.911 C 199.719 205.844,199.373 205.792,198.606 205.794 C 197.840 205.796,197.559 205.850,197.983 205.914 " stroke="none" fill="#46de64" fill-rule="evenodd"></path><path id="path4" d="M196.719 72.954 C 197.213 73.015,198.091 73.016,198.670 72.956 C 199.248 72.896,198.843 72.845,197.770 72.844 C 196.697 72.843,196.224 72.892,196.719 72.954 M201.457 72.954 C 201.952 73.015,202.830 73.016,203.408 72.956 C 203.987 72.896,203.582 72.845,202.509 72.844 C 201.436 72.843,200.962 72.892,201.457 72.954 M191.359 73.324 C 190.809 73.474,191.095 73.498,192.195 73.396 C 193.115 73.310,193.920 73.193,193.984 73.136 C 194.191 72.949,192.219 73.091,191.359 73.324 M206.620 73.224 C 206.889 73.294,207.328 73.294,207.596 73.224 C 207.864 73.153,207.645 73.096,207.108 73.096 C 206.571 73.096,206.352 73.153,206.620 73.224 M186.202 74.146 C 185.650 74.323,185.621 74.370,186.063 74.370 C 186.369 74.370,186.934 74.269,187.317 74.146 C 187.869 73.970,187.898 73.923,187.456 73.923 C 187.150 73.923,186.585 74.024,186.202 74.146 M213.659 74.305 C 214.425 74.519,215.178 74.682,215.331 74.669 C 215.803 74.629,213.416 73.910,212.822 73.914 C 212.516 73.916,212.892 74.092,213.659 74.305 M181.882 75.261 C 181.171 75.567,181.904 75.567,182.857 75.261 C 183.417 75.082,183.445 75.037,182.997 75.030 C 182.690 75.025,182.188 75.130,181.882 75.261 M176.585 77.083 C 175.888 77.419,175.865 77.457,176.446 77.315 C 177.236 77.122,178.124 76.670,177.700 76.676 C 177.547 76.678,177.045 76.861,176.585 77.083 M226.899 78.606 C 227.436 78.900,228.000 79.140,228.153 79.140 C 228.307 79.140,227.993 78.900,227.456 78.606 C 226.920 78.313,226.355 78.072,226.202 78.072 C 226.049 78.072,226.362 78.313,226.899 78.606 M196.028 84.105 C 196.603 84.166,197.544 84.166,198.118 84.105 C 198.693 84.045,198.223 83.996,197.073 83.996 C 195.923 83.996,195.453 84.045,196.028 84.105 M202.028 84.107 C 202.684 84.166,203.687 84.165,204.258 84.105 C 204.829 84.045,204.293 83.997,203.066 83.998 C 201.840 83.999,201.373 84.048,202.028 84.107 M193.240 84.373 C 193.509 84.443,193.948 84.443,194.216 84.373 C 194.484 84.303,194.265 84.246,193.728 84.246 C 193.192 84.246,192.972 84.303,193.240 84.373 M206.063 84.373 C 206.331 84.443,206.770 84.443,207.038 84.373 C 207.307 84.303,207.087 84.246,206.551 84.246 C 206.014 84.246,205.794 84.303,206.063 84.373 M159.373 86.700 C 158.031 87.770,156.934 88.707,156.934 88.783 C 156.934 88.858,158.063 88.028,159.443 86.938 C 161.618 85.220,162.183 84.712,161.882 84.747 C 161.843 84.751,160.714 85.630,159.373 86.700 M182.369 86.699 C 181.436 87.074,181.610 87.264,182.578 86.927 C 183.038 86.767,183.415 86.585,183.415 86.523 C 183.415 86.358,183.075 86.415,182.369 86.699 M243.066 88.780 C 243.586 89.317,244.075 89.756,244.151 89.756 C 244.228 89.756,243.865 89.317,243.345 88.780 C 242.825 88.244,242.337 87.805,242.260 87.805 C 242.183 87.805,242.546 88.244,243.066 88.780 M176.446 89.199 C 175.603 89.644,175.038 90.009,175.192 90.009 C 175.345 90.009,176.160 89.644,177.003 89.199 C 177.847 88.753,178.411 88.389,178.258 88.389 C 178.105 88.389,177.289 88.753,176.446 89.199 M154.579 90.781 C 153.667 91.641,153.165 92.210,153.464 92.047 C 153.993 91.758,156.619 89.189,156.365 89.209 C 156.294 89.214,155.491 89.922,154.579 90.781 M246.829 92.265 C 248.203 93.645,249.389 94.774,249.466 94.774 C 249.542 94.774,248.481 93.645,247.108 92.265 C 245.735 90.885,244.548 89.756,244.472 89.756 C 244.395 89.756,245.456 90.885,246.829 92.265 M172.613 91.182 C 171.663 91.790,171.356 92.199,172.195 91.738 C 172.835 91.386,173.837 90.611,173.659 90.606 C 173.582 90.604,173.111 90.863,172.613 91.182 M151.289 94.090 C 150.561 94.877,149.965 95.596,149.965 95.688 C 149.965 95.780,150.612 95.171,151.402 94.336 C 152.193 93.500,152.788 92.781,152.726 92.737 C 152.664 92.694,152.017 93.303,151.289 94.090 M168.683 93.660 C 168.047 94.121,167.526 94.567,167.526 94.650 C 167.526 94.781,169.097 93.712,169.882 93.047 C 170.542 92.487,169.726 92.905,168.683 93.660 M231.080 93.467 C 231.080 93.536,231.541 93.944,232.103 94.373 C 232.666 94.802,233.039 95.011,232.931 94.837 C 232.711 94.480,231.080 93.273,231.080 93.467 M234.286 95.932 C 234.899 96.443,236.039 97.425,236.818 98.116 C 238.161 99.306,238.152 99.291,236.662 97.827 C 235.796 96.976,234.657 95.993,234.129 95.642 C 233.297 95.089,233.318 95.127,234.286 95.932 M250.483 96.151 C 250.960 96.697,251.884 97.864,252.538 98.746 C 253.191 99.627,253.781 100.348,253.849 100.348 C 254.103 100.348,252.077 97.699,250.871 96.454 C 250.181 95.742,250.007 95.606,250.483 96.151 M163.750 97.631 L 162.648 98.815 163.833 97.713 C 164.934 96.689,165.146 96.446,164.935 96.446 C 164.889 96.446,164.356 96.979,163.750 97.631 M160.836 100.209 C 160.159 100.899,159.668 101.463,159.745 101.463 C 159.821 101.463,160.438 100.899,161.115 100.209 C 161.792 99.519,162.283 98.955,162.207 98.955 C 162.130 98.955,161.513 99.519,160.836 100.209 M145.627 101.093 C 145.198 101.656,144.989 102.028,145.163 101.921 C 145.520 101.700,146.727 100.070,146.533 100.070 C 146.464 100.070,146.056 100.530,145.627 101.093 M254.617 101.555 C 255.046 102.118,255.454 102.578,255.522 102.578 C 255.716 102.578,254.509 100.948,254.152 100.727 C 253.978 100.620,254.187 100.992,254.617 101.555 M240.825 102.091 C 241.508 102.819,242.104 103.415,242.149 103.415 C 242.358 103.415,242.137 103.164,240.906 102.009 L 239.582 100.767 240.825 102.091 M158.175 103.206 L 157.073 104.390 158.258 103.288 C 159.360 102.264,159.571 102.021,159.360 102.021 C 159.314 102.021,158.781 102.554,158.175 103.206 M244.060 105.993 C 244.930 107.181,245.698 108.153,245.765 108.153 C 245.939 108.153,244.271 105.859,243.295 104.757 C 242.845 104.249,243.189 104.805,244.060 105.993 M155.780 106.132 C 154.896 107.200,154.577 107.695,154.900 107.502 C 155.256 107.288,156.494 105.645,156.299 105.645 C 156.236 105.645,156.002 105.864,155.780 106.132 M178.885 108.355 C 179.383 108.417,180.199 108.417,180.697 108.355 C 181.195 108.293,180.787 108.243,179.791 108.243 C 178.794 108.243,178.387 108.293,178.885 108.355 M246.654 109.686 C 246.805 109.993,247.132 110.495,247.382 110.801 L 247.836 111.359 247.562 110.801 C 247.411 110.495,247.084 109.993,246.834 109.686 L 246.380 109.129 246.654 109.686 M171.990 110.518 C 171.472 111.053,171.103 111.533,171.169 111.585 C 171.235 111.638,171.711 111.200,172.227 110.614 C 173.400 109.281,173.249 109.220,171.990 110.518 M139.704 111.372 C 138.864 113.101,138.958 113.343,139.823 111.680 C 140.210 110.937,140.479 110.281,140.420 110.223 C 140.362 110.164,140.040 110.682,139.704 111.372 M151.066 113.476 C 150.746 114.105,150.532 114.666,150.590 114.725 C 150.648 114.783,150.969 114.269,151.303 113.583 C 152.062 112.019,151.857 111.927,151.066 113.476 M138.289 114.595 C 138.117 115.088,138.025 115.540,138.085 115.599 C 138.145 115.659,138.334 115.305,138.506 114.812 C 138.677 114.320,138.769 113.868,138.709 113.808 C 138.650 113.749,138.461 114.103,138.289 114.595 M262.181 115.958 C 262.283 116.341,262.483 116.843,262.625 117.073 C 262.805 117.364,262.827 117.279,262.697 116.794 C 262.595 116.411,262.395 115.909,262.253 115.679 C 262.073 115.389,262.051 115.474,262.181 115.958 M137.453 116.825 C 137.281 117.318,137.189 117.770,137.249 117.829 C 137.308 117.889,137.498 117.535,137.669 117.042 C 137.841 116.550,137.933 116.098,137.873 116.038 C 137.814 115.979,137.624 116.333,137.453 116.825 M250.333 116.376 C 250.333 116.530,250.513 116.969,250.732 117.352 C 250.951 117.735,251.130 117.923,251.130 117.770 C 251.130 117.617,250.951 117.178,250.732 116.794 C 250.513 116.411,250.333 116.223,250.333 116.376 M166.503 123.345 C 166.504 124.418,166.554 124.823,166.615 124.245 C 166.675 123.666,166.674 122.788,166.612 122.293 C 166.551 121.799,166.501 122.272,166.503 123.345 M253.140 124.042 C 253.140 124.272,253.248 124.711,253.380 125.017 C 253.531 125.369,253.619 125.420,253.619 125.157 C 253.619 124.927,253.512 124.488,253.380 124.181 C 253.229 123.830,253.140 123.778,253.140 124.042 M146.501 125.316 C 146.398 125.725,146.368 126.113,146.434 126.178 C 146.499 126.244,146.637 125.964,146.740 125.555 C 146.842 125.146,146.872 124.759,146.807 124.693 C 146.741 124.627,146.603 124.908,146.501 125.316 M254.120 128.084 C 254.214 128.697,254.336 129.251,254.392 129.315 C 254.604 129.554,254.445 128.061,254.203 127.526 C 254.027 127.138,254.002 127.307,254.120 128.084 M187.718 128.293 L 186.899 129.199 187.805 128.380 C 188.303 127.930,188.711 127.522,188.711 127.474 C 188.711 127.259,188.481 127.448,187.718 128.293 M145.570 129.895 C 145.570 130.432,145.627 130.652,145.697 130.383 C 145.767 130.115,145.767 129.676,145.697 129.408 C 145.627 129.139,145.570 129.359,145.570 129.895 M265.710 129.756 C 265.710 130.216,265.806 130.969,265.923 131.429 C 266.218 132.588,266.231 131.447,265.939 130.035 C 265.745 129.097,265.709 129.053,265.710 129.756 M186.045 130.244 L 185.226 131.150 186.132 130.331 C 186.631 129.881,187.038 129.473,187.038 129.425 C 187.038 129.210,186.808 129.399,186.045 130.244 M184.275 132.232 L 183.602 133.101 184.399 132.343 C 184.838 131.926,185.141 131.535,185.072 131.474 C 185.004 131.413,184.645 131.754,184.275 132.232 M133.892 134.077 C 133.892 135.226,133.941 135.697,134.001 135.122 C 134.061 134.547,134.061 133.606,134.001 133.031 C 133.941 132.456,133.892 132.927,133.892 134.077 M145.024 134.355 C 145.024 135.045,145.078 135.328,145.144 134.983 C 145.211 134.638,145.211 134.073,145.144 133.728 C 145.078 133.383,145.024 133.666,145.024 134.355 M255.148 135.331 C 255.149 136.557,255.198 137.025,255.257 136.369 C 255.316 135.713,255.315 134.710,255.255 134.139 C 255.195 133.568,255.147 134.105,255.148 135.331 M266.282 135.052 C 266.284 135.819,266.338 136.099,266.402 135.676 C 266.466 135.252,266.464 134.625,266.398 134.282 C 266.332 133.939,266.280 134.286,266.282 135.052 M144.777 139.791 C 144.778 141.784,144.822 142.563,144.876 141.522 C 144.930 140.480,144.929 138.850,144.875 137.898 C 144.821 136.946,144.777 137.798,144.777 139.791 M185.002 137.722 C 185.279 138.193,185.683 138.727,185.901 138.906 C 186.119 139.086,185.945 138.700,185.516 138.049 C 184.613 136.681,184.257 136.454,185.002 137.722 M133.618 139.791 C 133.617 141.171,133.664 141.770,133.723 141.123 C 133.781 140.476,133.782 139.348,133.724 138.615 C 133.667 137.882,133.619 138.411,133.618 139.791 M186.728 140.164 C 187.037 140.599,187.511 141.132,187.781 141.349 C 188.050 141.565,187.847 141.209,187.329 140.557 C 186.266 139.219,185.871 138.961,186.728 140.164 M255.148 143.136 C 255.149 144.362,255.198 144.829,255.257 144.174 C 255.316 143.518,255.315 142.515,255.255 141.944 C 255.195 141.373,255.147 141.909,255.148 143.136 M266.282 143.415 C 266.284 144.181,266.338 144.462,266.402 144.038 C 266.466 143.614,266.464 142.987,266.398 142.644 C 266.332 142.301,266.280 142.648,266.282 143.415 M190.650 144.739 C 191.805 145.969,192.056 146.191,192.056 145.981 C 192.056 145.937,191.460 145.341,190.732 144.657 L 189.408 143.415 190.650 144.739 M133.862 144.808 C 133.853 145.422,133.944 146.551,134.064 147.317 C 134.238 148.434,134.283 148.517,134.291 147.735 C 134.296 147.199,134.205 146.070,134.088 145.226 C 133.904 143.892,133.874 143.838,133.862 144.808 M265.784 147.735 C 265.676 148.521,265.646 149.223,265.718 149.295 C 265.790 149.367,265.935 148.780,266.039 147.991 C 266.144 147.201,266.174 146.499,266.105 146.430 C 266.037 146.362,265.892 146.949,265.784 147.735 M177.561 147.361 C 177.561 147.514,177.906 147.942,178.328 148.314 L 179.094 148.990 178.397 148.153 C 178.014 147.693,177.669 147.265,177.631 147.201 C 177.592 147.137,177.561 147.209,177.561 147.361 M223.275 149.547 C 223.965 149.916,224.655 150.219,224.808 150.219 C 224.962 150.219,224.523 149.916,223.833 149.547 C 223.143 149.178,222.453 148.875,222.300 148.875 C 222.146 148.875,222.585 149.178,223.275 149.547 M180.627 150.941 C 181.615 151.937,182.486 152.753,182.562 152.753 C 182.639 152.753,181.894 151.937,180.906 150.941 C 179.918 149.944,179.047 149.129,178.971 149.129 C 178.894 149.129,179.640 149.944,180.627 150.941 M196.214 149.509 C 196.585 149.966,197.631 150.657,197.631 150.446 C 197.631 150.392,197.223 150.050,196.725 149.686 C 196.164 149.275,195.969 149.208,196.214 149.509 M254.250 149.547 C 254.227 149.854,254.144 150.418,254.065 150.801 L 253.922 151.498 254.220 150.814 C 254.384 150.438,254.468 149.874,254.405 149.560 C 254.295 149.004,254.291 149.004,254.250 149.547 M226.341 150.941 C 226.725 151.160,227.164 151.339,227.317 151.339 C 227.470 151.339,227.282 151.160,226.899 150.941 C 226.516 150.722,226.077 150.542,225.923 150.542 C 225.770 150.542,225.958 150.722,226.341 150.941 M199.455 151.658 C 199.636 151.950,201.812 153.117,201.812 152.921 C 201.812 152.855,201.244 152.483,200.551 152.096 C 199.857 151.708,199.364 151.511,199.455 151.658 M253.260 153.748 C 253.158 154.157,253.128 154.545,253.193 154.610 C 253.259 154.676,253.397 154.396,253.499 153.987 C 253.602 153.579,253.632 153.191,253.566 153.125 C 253.501 153.059,253.363 153.340,253.260 153.748 M183.972 154.234 C 183.972 154.282,184.380 154.689,184.878 155.139 L 185.784 155.958 184.965 155.052 C 184.202 154.208,183.972 154.018,183.972 154.234 M209.698 155.013 C 209.529 155.182,208.970 155.420,208.458 155.541 C 207.624 155.739,207.603 155.765,208.262 155.790 C 208.847 155.813,210.725 154.747,210.160 154.713 C 210.076 154.708,209.868 154.843,209.698 155.013 M147.337 156.098 C 147.440 156.481,147.640 156.983,147.782 157.213 C 147.962 157.503,147.984 157.418,147.854 156.934 C 147.752 156.551,147.552 156.049,147.409 155.819 C 147.230 155.528,147.208 155.613,147.337 156.098 M233.763 155.969 C 233.667 156.218,233.602 156.694,233.617 157.026 C 233.635 157.408,233.730 157.273,233.875 156.657 C 234.118 155.621,234.052 155.215,233.763 155.969 M187.468 157.352 C 188.618 158.458,191.220 160.426,191.220 160.190 C 191.220 160.122,190.498 159.532,189.617 158.879 C 188.735 158.225,187.630 157.363,187.161 156.964 C 186.693 156.564,186.830 156.739,187.468 157.352 M149.002 160.627 C 149.106 160.972,149.306 161.377,149.447 161.527 C 149.587 161.677,149.560 161.394,149.388 160.900 C 149.035 159.887,148.709 159.657,149.002 160.627 M262.331 161.982 C 262.159 162.475,262.067 162.927,262.127 162.986 C 262.186 163.046,262.376 162.692,262.547 162.199 C 262.719 161.706,262.811 161.255,262.751 161.195 C 262.692 161.135,262.502 161.490,262.331 161.982 M230.801 164.530 C 230.390 165.090,230.323 165.285,230.624 165.040 C 231.081 164.669,231.772 163.624,231.560 163.624 C 231.507 163.624,231.165 164.031,230.801 164.530 M138.835 165.157 C 138.835 165.310,139.014 165.749,139.233 166.132 C 139.453 166.516,139.632 166.704,139.632 166.551 C 139.632 166.397,139.453 165.958,139.233 165.575 C 139.014 165.192,138.835 165.003,138.835 165.157 M228.571 167.006 L 227.317 168.143 228.498 167.257 C 229.525 166.486,230.184 165.836,229.912 165.862 C 229.865 165.867,229.261 166.382,228.571 167.006 M246.866 168.432 L 246.365 169.338 246.939 168.641 C 247.449 168.023,247.675 167.526,247.447 167.526 C 247.403 167.526,247.142 167.934,246.866 168.432 M224.111 169.617 C 223.728 169.836,223.540 170.015,223.693 170.015 C 223.847 170.015,224.286 169.836,224.669 169.617 C 225.052 169.398,225.240 169.218,225.087 169.218 C 224.934 169.218,224.495 169.398,224.111 169.617 M210.035 169.756 C 210.341 169.888,210.780 169.996,211.010 169.996 C 211.274 169.996,211.222 169.907,210.871 169.756 C 210.564 169.624,210.125 169.517,209.895 169.517 C 209.632 169.517,209.683 169.605,210.035 169.756 M220.767 170.592 C 220.215 170.769,220.186 170.816,220.627 170.816 C 220.934 170.816,221.498 170.715,221.882 170.592 C 222.433 170.416,222.462 170.369,222.021 170.369 C 221.714 170.369,221.150 170.470,220.767 170.592 M243.937 172.613 C 242.988 173.878,242.624 174.457,243.127 173.900 C 244.125 172.796,245.957 170.314,245.775 170.314 C 245.712 170.314,244.885 171.348,243.937 172.613 M154.549 171.233 C 154.540 171.571,154.451 172.286,154.350 172.822 C 154.229 173.469,154.313 173.341,154.600 172.443 C 154.838 171.698,154.927 170.983,154.798 170.854 C 154.670 170.725,154.557 170.896,154.549 171.233 M142.075 171.843 C 142.330 172.378,142.588 172.766,142.649 172.705 C 142.776 172.578,141.930 170.871,141.740 170.871 C 141.669 170.871,141.820 171.309,142.075 171.843 M216.799 171.073 C 217.300 171.135,218.053 171.134,218.472 171.070 C 218.891 171.007,218.481 170.956,217.561 170.957 C 216.641 170.959,216.298 171.011,216.799 171.073 M240.836 176.307 C 240.159 176.997,239.668 177.561,239.745 177.561 C 239.821 177.561,240.438 176.997,241.115 176.307 C 241.792 175.617,242.283 175.052,242.207 175.052 C 242.130 175.052,241.513 175.617,240.836 176.307 M141.762 176.048 C 141.660 176.456,141.629 176.844,141.695 176.910 C 141.761 176.976,141.898 176.695,142.001 176.287 C 142.104 175.878,142.134 175.490,142.068 175.425 C 142.002 175.359,141.865 175.639,141.762 176.048 M254.617 176.912 C 254.187 177.475,253.978 177.847,254.152 177.740 C 254.509 177.519,255.716 175.889,255.522 175.889 C 255.454 175.889,255.046 176.349,254.617 176.912 M152.633 178.556 C 152.531 178.965,152.500 179.353,152.566 179.419 C 152.632 179.484,152.770 179.204,152.872 178.795 C 152.975 178.387,153.005 177.999,152.939 177.933 C 152.873 177.868,152.736 178.148,152.633 178.556 M140.926 179.114 C 140.823 179.522,140.793 179.910,140.859 179.976 C 140.925 180.042,141.062 179.761,141.165 179.353 C 141.267 178.944,141.297 178.556,141.232 178.491 C 141.166 178.425,141.028 178.705,140.926 179.114 M236.934 180.209 C 236.257 180.899,235.765 181.463,235.842 181.463 C 235.919 181.463,236.535 180.899,237.213 180.209 C 237.890 179.519,238.381 178.955,238.304 178.955 C 238.228 178.955,237.611 179.519,236.934 180.209 M252.116 180.279 C 251.691 180.854,250.893 181.826,250.341 182.439 L 249.338 183.553 250.357 182.618 C 251.316 181.739,253.281 179.233,253.012 179.233 C 252.944 179.233,252.541 179.704,252.116 180.279 M151.797 181.623 C 151.694 182.031,151.664 182.419,151.730 182.485 C 151.796 182.551,151.933 182.270,152.036 181.862 C 152.138 181.453,152.168 181.065,152.103 180.999 C 152.037 180.934,151.899 181.214,151.797 181.623 M246.632 186.349 C 245.297 187.648,244.297 188.711,244.408 188.711 C 244.520 188.711,245.672 187.645,246.969 186.341 C 248.265 185.038,249.266 183.976,249.192 183.980 C 249.119 183.984,247.967 185.050,246.632 186.349 M163.902 186.481 C 163.342 186.660,163.315 186.706,163.763 186.712 C 164.070 186.717,164.571 186.613,164.878 186.481 C 165.588 186.176,164.856 186.176,163.902 186.481 M227.038 187.317 C 226.578 187.622,226.328 187.869,226.481 187.867 C 226.760 187.862,228.276 186.776,228.014 186.768 C 227.937 186.765,227.498 187.012,227.038 187.317 M149.993 188.042 C 149.833 188.622,149.752 189.148,149.813 189.209 C 149.874 189.270,150.056 188.845,150.216 188.265 C 150.376 187.684,150.457 187.159,150.396 187.098 C 150.335 187.036,150.153 187.461,149.993 188.042 M138.417 188.034 C 138.315 188.442,138.284 188.830,138.350 188.896 C 138.416 188.962,138.554 188.681,138.656 188.273 C 138.759 187.864,138.789 187.476,138.723 187.411 C 138.657 187.345,138.520 187.625,138.417 188.034 M156.376 188.432 C 155.816 188.611,155.789 188.657,156.237 188.663 C 156.544 188.668,157.045 188.564,157.352 188.432 C 158.062 188.127,157.329 188.127,156.376 188.432 M242.909 189.895 L 242.091 190.801 242.997 189.983 C 243.495 189.532,243.902 189.125,243.902 189.077 C 243.902 188.861,243.672 189.051,242.909 189.895 M177.840 189.965 C 178.223 190.184,178.662 190.364,178.815 190.364 C 178.969 190.364,178.780 190.184,178.397 189.965 C 178.014 189.746,177.575 189.567,177.422 189.567 C 177.268 189.567,177.456 189.746,177.840 189.965 M185.366 192.601 C 185.596 192.756,186.024 192.885,186.318 192.888 C 187.031 192.893,186.809 192.734,185.784 192.505 C 185.173 192.368,185.060 192.394,185.366 192.601 M213.380 192.763 C 212.281 193.143,212.279 193.147,213.240 192.984 C 214.378 192.792,215.540 192.368,214.913 192.374 C 214.683 192.376,213.993 192.551,213.380 192.763 M193.519 194.199 C 193.787 194.269,194.226 194.269,194.495 194.199 C 194.763 194.129,194.544 194.072,194.007 194.072 C 193.470 194.072,193.251 194.129,193.519 194.199 M197.714 194.493 C 199.063 194.545,201.195 194.544,202.453 194.493 C 203.710 194.441,202.606 194.399,200.000 194.400 C 197.394 194.400,196.365 194.442,197.714 194.493 M166.551 197.334 C 166.149 197.494,166.320 197.548,167.159 197.529 C 167.801 197.514,168.177 197.407,167.996 197.292 C 167.593 197.036,167.277 197.045,166.551 197.334 M163.345 198.201 C 163.040 198.408,163.152 198.433,163.763 198.297 C 164.788 198.068,165.010 197.908,164.297 197.914 C 164.003 197.916,163.575 198.045,163.345 198.201 M160.139 199.024 C 159.788 199.175,159.736 199.264,160.000 199.264 C 160.230 199.264,160.669 199.156,160.976 199.024 C 161.327 198.873,161.379 198.785,161.115 198.785 C 160.885 198.785,160.446 198.893,160.139 199.024 M226.620 200.000 C 226.237 200.219,226.049 200.398,226.202 200.398 C 226.355 200.398,226.794 200.219,227.178 200.000 C 227.561 199.781,227.749 199.602,227.596 199.602 C 227.443 199.602,227.003 199.781,226.620 200.000 M134.793 200.856 C 134.691 201.265,134.661 201.653,134.726 201.718 C 134.792 201.784,134.930 201.504,135.032 201.095 C 135.135 200.687,135.165 200.299,135.099 200.233 C 135.034 200.167,134.896 200.448,134.793 200.856 M222.300 201.682 C 221.603 202.018,221.579 202.057,222.160 201.915 C 222.950 201.722,223.838 201.269,223.415 201.275 C 223.261 201.278,222.760 201.461,222.300 201.682 M220.070 202.519 C 219.373 202.854,219.349 202.893,219.930 202.751 C 220.720 202.558,221.608 202.105,221.185 202.112 C 221.031 202.114,220.530 202.297,220.070 202.519 M145.923 202.648 C 145.213 202.953,145.946 202.953,146.899 202.648 C 147.459 202.469,147.486 202.423,147.038 202.417 C 146.732 202.412,146.230 202.516,145.923 202.648 M133.957 203.922 C 133.855 204.331,133.825 204.719,133.890 204.785 C 133.956 204.850,134.094 204.570,134.196 204.161 C 134.299 203.753,134.329 203.365,134.263 203.299 C 134.197 203.233,134.060 203.514,133.957 203.922 M142.857 203.484 C 142.506 203.635,142.454 203.724,142.718 203.724 C 142.948 203.724,143.387 203.616,143.693 203.484 C 144.045 203.333,144.096 203.245,143.833 203.245 C 143.603 203.245,143.164 203.353,142.857 203.484 M182.718 203.484 C 183.024 203.616,183.463 203.724,183.693 203.724 C 183.957 203.724,183.905 203.635,183.554 203.484 C 183.247 203.353,182.808 203.245,182.578 203.245 C 182.315 203.245,182.366 203.333,182.718 203.484 M139.133 204.362 C 138.618 204.510,138.251 204.685,138.317 204.751 C 138.383 204.817,138.993 204.697,139.672 204.484 C 141.058 204.049,140.589 203.943,139.133 204.362 M186.341 204.308 C 186.877 204.550,188.370 204.708,188.130 204.497 C 188.066 204.441,187.512 204.318,186.899 204.225 C 186.122 204.106,185.953 204.132,186.341 204.308 M212.683 204.321 C 211.730 204.521,211.727 204.526,212.544 204.543 C 213.003 204.552,213.631 204.452,213.937 204.321 C 214.608 204.033,214.051 204.033,212.683 204.321 M192.826 205.354 C 193.172 205.421,193.674 205.418,193.941 205.348 C 194.207 205.279,193.923 205.224,193.310 205.227 C 192.697 205.230,192.479 205.287,192.826 205.354 M205.923 205.354 C 206.268 205.420,206.833 205.420,207.178 205.354 C 207.523 205.287,207.240 205.233,206.551 205.233 C 205.861 205.233,205.578 205.287,205.923 205.354 M195.889 205.640 C 196.540 205.698,197.606 205.698,198.258 205.640 C 198.909 205.581,198.376 205.533,197.073 205.533 C 195.770 205.533,195.237 205.581,195.889 205.640 M201.603 205.639 C 202.178 205.699,203.118 205.699,203.693 205.639 C 204.268 205.578,203.798 205.529,202.648 205.529 C 201.498 205.529,201.028 205.578,201.603 205.639 " stroke="none" fill="#8ceca4" fill-rule="evenodd"></path><path id="path5" d="M194.917 72.674 C 195.340 72.738,195.968 72.736,196.310 72.670 C 196.653 72.604,196.307 72.552,195.540 72.554 C 194.774 72.556,194.493 72.610,194.917 72.674 M203.833 72.674 C 204.254 72.737,204.944 72.737,205.366 72.674 C 205.787 72.610,205.443 72.557,204.599 72.557 C 203.756 72.557,203.411 72.610,203.833 72.674 M199.373 84.381 C 199.794 84.445,200.484 84.445,200.906 84.381 C 201.328 84.317,200.983 84.265,200.139 84.265 C 199.296 84.265,198.951 84.317,199.373 84.381 M238.606 100.209 C 239.126 100.746,239.615 101.185,239.691 101.185 C 239.768 101.185,239.405 100.746,238.885 100.209 C 238.365 99.672,237.877 99.233,237.800 99.233 C 237.723 99.233,238.086 99.672,238.606 100.209 M166.224 123.345 C 166.225 124.418,166.275 124.823,166.336 124.245 C 166.396 123.666,166.395 122.788,166.334 122.293 C 166.272 121.799,166.223 122.272,166.224 123.345 M133.584 132.962 C 133.584 133.498,133.641 133.718,133.711 133.449 C 133.781 133.181,133.781 132.742,133.711 132.474 C 133.641 132.206,133.584 132.425,133.584 132.962 M145.291 135.192 C 145.291 135.728,145.349 135.948,145.419 135.679 C 145.489 135.411,145.489 134.972,145.419 134.704 C 145.349 134.436,145.291 134.655,145.291 135.192 M133.305 136.864 C 133.305 137.401,133.362 137.620,133.433 137.352 C 133.503 137.084,133.503 136.645,133.433 136.376 C 133.362 136.108,133.305 136.328,133.305 136.864 M254.844 137.003 C 254.847 137.617,254.904 137.835,254.971 137.488 C 255.037 137.141,255.035 136.640,254.965 136.373 C 254.895 136.107,254.841 136.390,254.844 137.003 M266.851 139.233 C 266.852 140.307,266.903 140.711,266.963 140.133 C 267.023 139.555,267.022 138.677,266.961 138.182 C 266.899 137.687,266.850 138.160,266.851 139.233 M254.844 141.463 C 254.847 142.077,254.904 142.295,254.971 141.948 C 255.037 141.601,255.035 141.099,254.965 140.833 C 254.895 140.566,254.841 140.850,254.844 141.463 M133.320 142.578 C 133.322 143.345,133.376 143.625,133.440 143.202 C 133.505 142.778,133.503 142.151,133.437 141.808 C 133.370 141.465,133.318 141.812,133.320 142.578 M215.961 171.347 C 216.308 171.414,216.810 171.411,217.076 171.341 C 217.343 171.272,217.059 171.217,216.446 171.220 C 215.833 171.223,215.615 171.280,215.961 171.347 M193.798 193.920 C 194.066 193.990,194.505 193.990,194.774 193.920 C 195.042 193.850,194.822 193.793,194.286 193.793 C 193.749 193.793,193.530 193.850,193.798 193.920 M205.226 193.920 C 205.495 193.990,205.934 193.990,206.202 193.920 C 206.470 193.850,206.251 193.793,205.714 193.793 C 205.178 193.793,204.958 193.850,205.226 193.920 " stroke="none" fill="#30dc51" fill-rule="evenodd"></path></g></svg>