<svg id="svg" version="1.1" xmlns="http://www.w3.org/2000/svg" xmlns:xlink="http://www.w3.org/1999/xlink" width="400" height="278.7018255578093" viewBox="0, 0, 400,278.7018255578093"><g id="svgg"><path id="path0" d="M177.999 89.750 C 156.283 90.286,144.950 91.462,140.345 93.660 C 130.705 98.261,128.107 107.963,128.105 139.373 C 128.103 176.953,131.720 185.147,149.268 187.323 C 169.953 189.888,229.233 189.882,250.871 187.313 C 268.041 185.275,272.037 176.223,272.037 139.373 C 272.037 118.999,270.372 105.764,267.129 100.355 C 262.550 92.718,257.448 91.279,230.523 90.027 C 222.694 89.663,188.777 89.484,177.999 89.750 M187.139 119.121 C 188.080 119.634,191.422 121.497,194.564 123.260 C 202.439 127.678,207.321 130.416,208.641 131.154 C 212.181 133.135,215.304 134.875,217.143 135.891 C 222.202 138.686,222.997 139.158,222.997 139.369 C 222.997 139.564,220.705 140.928,216.307 143.352 C 213.609 144.838,207.461 148.273,202.230 151.216 C 200.390 152.251,197.756 153.725,196.376 154.492 C 194.997 155.259,193.303 156.204,192.613 156.591 C 187.082 159.693,185.490 160.557,185.303 160.557 C 185.184 160.557,185.087 151.024,185.087 139.373 C 185.087 127.721,185.164 118.188,185.258 118.188 C 185.351 118.188,186.198 118.608,187.139 119.121 " stroke="none" fill="#fcfbfb" fill-rule="evenodd"></path><path id="path1" d="M0.000 139.373 L 0.000 278.746 200.000 278.746 L 400.000 278.746 400.000 139.373 L 400.000 0.000 200.000 0.000 L 0.000 0.000 0.000 139.373 M220.204 89.204 C 246.251 89.852,260.693 91.608,261.696 94.250 C 261.747 94.385,261.959 94.495,262.166 94.495 C 263.470 94.495,267.951 100.116,269.054 103.136 C 273.729 115.933,273.729 162.813,269.054 175.610 C 266.972 181.310,262.051 185.472,255.598 186.993 C 243.004 189.961,176.588 190.795,153.310 188.278 C 144.875 187.366,140.399 186.241,138.118 184.460 C 137.965 184.341,137.250 183.804,136.529 183.268 C 133.688 181.157,131.050 176.879,130.174 172.962 C 126.486 156.479,126.480 123.227,130.162 106.070 C 131.700 98.903,136.970 93.475,143.972 91.847 C 153.628 89.602,188.116 88.406,220.204 89.204 M185.645 139.403 C 185.645 158.695,185.671 159.771,186.132 159.596 C 186.401 159.494,189.031 158.038,191.978 156.360 C 194.924 154.683,197.404 153.310,197.488 153.310 C 197.573 153.310,198.110 153.017,198.681 152.659 C 199.630 152.066,202.658 150.387,204.942 149.189 C 205.443 148.926,205.895 148.617,205.947 148.502 C 205.998 148.387,206.167 148.293,206.323 148.293 C 206.478 148.293,207.816 147.597,209.296 146.746 C 210.775 145.895,212.178 145.095,212.413 144.969 C 212.648 144.843,214.748 143.658,217.080 142.335 C 219.412 141.012,221.439 139.930,221.584 139.930 C 222.939 139.930,221.807 139.005,217.840 136.871 C 216.613 136.211,215.484 135.579,215.331 135.466 C 215.033 135.248,208.824 131.766,206.272 130.386 C 205.429 129.930,204.613 129.462,204.460 129.346 C 204.307 129.230,203.178 128.597,201.951 127.938 C 200.725 127.280,199.408 126.566,199.024 126.351 C 196.717 125.059,195.915 124.611,194.286 123.707 C 193.289 123.154,191.038 121.875,189.283 120.863 C 187.527 119.852,185.991 119.024,185.868 119.024 C 185.745 119.024,185.645 128.195,185.645 139.403 " stroke="none" fill="#fc0404" fill-rule="evenodd"></path><path id="path2" d="M187.534 89.403 C 188.189 89.462,189.193 89.461,189.763 89.401 C 190.334 89.341,189.798 89.293,188.571 89.294 C 187.345 89.295,186.878 89.344,187.534 89.403 M210.391 89.403 C 211.046 89.462,212.050 89.461,212.621 89.401 C 213.191 89.341,212.655 89.293,211.429 89.294 C 210.202 89.295,209.735 89.344,210.391 89.403 M176.103 89.679 C 176.604 89.741,177.356 89.740,177.775 89.677 C 178.194 89.613,177.784 89.562,176.864 89.564 C 175.944 89.565,175.602 89.617,176.103 89.679 M222.369 89.679 C 222.868 89.741,223.683 89.741,224.181 89.679 C 224.679 89.617,224.272 89.567,223.275 89.567 C 222.279 89.567,221.871 89.617,222.369 89.679 M185.220 139.512 C 185.220 151.010,185.254 155.755,185.296 150.055 C 185.338 144.356,185.338 134.948,185.296 129.150 C 185.254 123.351,185.220 128.014,185.220 139.512 M272.120 131.010 C 272.120 131.547,272.178 131.767,272.248 131.498 C 272.318 131.230,272.318 130.791,272.248 130.523 C 272.178 130.254,272.120 130.474,272.120 131.010 M127.736 131.707 C 127.739 132.321,127.796 132.539,127.863 132.192 C 127.929 131.845,127.927 131.343,127.857 131.077 C 127.787 130.810,127.733 131.094,127.736 131.707 M127.736 147.038 C 127.739 147.652,127.796 147.870,127.863 147.523 C 127.929 147.176,127.927 146.674,127.857 146.408 C 127.787 146.141,127.733 146.425,127.736 147.038 M272.120 147.735 C 272.120 148.272,272.178 148.491,272.248 148.223 C 272.318 147.955,272.318 147.516,272.248 147.247 C 272.178 146.979,272.120 147.199,272.120 147.735 M174.847 189.190 C 175.271 189.254,175.898 189.252,176.241 189.186 C 176.584 189.120,176.237 189.067,175.470 189.069 C 174.704 189.071,174.423 189.125,174.847 189.190 M223.906 189.190 C 224.330 189.254,224.957 189.252,225.300 189.186 C 225.643 189.120,225.296 189.067,224.530 189.069 C 223.763 189.071,223.483 189.125,223.906 189.190 M185.993 189.471 C 186.568 189.531,187.509 189.531,188.084 189.471 C 188.659 189.411,188.188 189.362,187.038 189.362 C 185.889 189.362,185.418 189.411,185.993 189.471 M211.916 189.471 C 212.491 189.531,213.432 189.531,214.007 189.471 C 214.582 189.411,214.111 189.362,212.962 189.362 C 211.812 189.362,211.341 189.411,211.916 189.471 " stroke="none" fill="#fc7c7c" fill-rule="evenodd"></path><path id="path3" d="M182.237 89.403 C 182.893 89.462,183.896 89.461,184.467 89.401 C 185.038 89.341,184.502 89.293,183.275 89.294 C 182.049 89.295,181.582 89.344,182.237 89.403 M215.687 89.403 C 216.342 89.462,217.346 89.461,217.917 89.401 C 218.488 89.341,217.951 89.293,216.725 89.294 C 215.498 89.295,215.031 89.344,215.687 89.403 M172.202 89.682 C 172.858 89.741,173.862 89.740,174.432 89.680 C 175.003 89.620,174.467 89.572,173.240 89.573 C 172.014 89.574,171.547 89.623,172.202 89.682 M225.854 89.680 C 226.429 89.741,227.369 89.741,227.944 89.680 C 228.519 89.620,228.049 89.571,226.899 89.571 C 225.749 89.571,225.279 89.620,225.854 89.680 M166.620 89.953 C 166.965 90.019,167.530 90.019,167.875 89.953 C 168.220 89.886,167.937 89.832,167.247 89.832 C 166.557 89.832,166.275 89.886,166.620 89.953 M232.125 89.953 C 232.470 90.019,233.035 90.019,233.380 89.953 C 233.725 89.886,233.443 89.832,232.753 89.832 C 232.063 89.832,231.780 89.886,232.125 89.953 M238.955 90.227 C 239.223 90.297,239.662 90.297,239.930 90.227 C 240.199 90.157,239.979 90.100,239.443 90.100 C 238.906 90.100,238.686 90.157,238.955 90.227 M156.031 90.511 C 156.378 90.577,156.880 90.575,157.146 90.505 C 157.413 90.435,157.129 90.381,156.516 90.384 C 155.902 90.387,155.684 90.444,156.031 90.511 M243.136 90.506 C 243.404 90.576,243.843 90.576,244.111 90.506 C 244.380 90.436,244.160 90.378,243.624 90.378 C 243.087 90.378,242.868 90.436,243.136 90.506 M135.042 97.073 L 133.659 98.537 135.122 97.153 C 135.927 96.393,136.585 95.734,136.585 95.690 C 136.585 95.482,136.327 95.713,135.042 97.073 M271.853 123.763 C 271.853 124.453,271.907 124.735,271.974 124.390 C 272.040 124.045,272.040 123.481,271.974 123.136 C 271.907 122.791,271.853 123.073,271.853 123.763 M128.024 124.460 C 128.026 125.226,128.080 125.507,128.144 125.083 C 128.208 124.660,128.207 124.032,128.140 123.690 C 128.074 123.347,128.022 123.693,128.024 124.460 M272.135 128.920 C 272.138 129.686,272.192 129.967,272.256 129.543 C 272.320 129.119,272.318 128.492,272.252 128.149 C 272.186 127.807,272.133 128.153,272.135 128.920 M127.749 129.338 C 127.749 130.181,127.801 130.526,127.865 130.105 C 127.929 129.683,127.929 128.993,127.865 128.571 C 127.801 128.150,127.749 128.495,127.749 129.338 M272.428 139.373 C 272.428 140.523,272.477 140.993,272.538 140.418 C 272.598 139.843,272.598 138.902,272.538 138.328 C 272.477 137.753,272.428 138.223,272.428 139.373 M127.749 149.408 C 127.749 150.251,127.801 150.596,127.865 150.174 C 127.929 149.753,127.929 149.063,127.865 148.641 C 127.801 148.220,127.749 148.564,127.749 149.408 M272.135 149.826 C 272.138 150.592,272.192 150.873,272.256 150.449 C 272.320 150.025,272.318 149.398,272.252 149.055 C 272.186 148.713,272.133 149.059,272.135 149.826 M128.024 154.286 C 128.026 155.052,128.080 155.333,128.144 154.909 C 128.208 154.485,128.207 153.858,128.140 153.515 C 128.074 153.172,128.022 153.519,128.024 154.286 M271.853 154.983 C 271.853 155.672,271.907 155.955,271.974 155.610 C 272.040 155.265,272.040 154.700,271.974 154.355 C 271.907 154.010,271.853 154.293,271.853 154.983 M155.610 188.345 C 155.878 188.416,156.317 188.416,156.585 188.345 C 156.854 188.275,156.634 188.218,156.098 188.218 C 155.561 188.218,155.341 188.275,155.610 188.345 M243.415 188.345 C 243.683 188.416,244.122 188.416,244.390 188.345 C 244.659 188.275,244.439 188.218,243.902 188.218 C 243.366 188.218,243.146 188.275,243.415 188.345 M166.206 188.911 C 166.630 188.975,167.257 188.973,167.600 188.907 C 167.942 188.841,167.596 188.788,166.829 188.791 C 166.063 188.793,165.782 188.847,166.206 188.911 M232.547 188.911 C 232.971 188.975,233.598 188.973,233.941 188.907 C 234.284 188.841,233.937 188.788,233.171 188.791 C 232.404 188.793,232.124 188.847,232.547 188.911 M171.353 189.191 C 171.848 189.252,172.726 189.253,173.304 189.193 C 173.882 189.133,173.477 189.082,172.404 189.081 C 171.331 189.080,170.858 189.129,171.353 189.191 M226.544 189.191 C 227.039 189.252,227.917 189.253,228.496 189.193 C 229.074 189.133,228.669 189.082,227.596 189.081 C 226.523 189.080,226.049 189.129,226.544 189.191 M181.542 189.474 C 182.274 189.531,183.403 189.530,184.050 189.472 C 184.697 189.414,184.098 189.366,182.718 189.367 C 181.338 189.368,180.809 189.416,181.542 189.474 M216.106 189.474 C 216.839 189.531,217.968 189.530,218.615 189.472 C 219.262 189.414,218.662 189.366,217.282 189.367 C 215.902 189.368,215.373 189.416,216.106 189.474 " stroke="none" fill="#fc5555" fill-rule="evenodd"></path><path id="path4" d="M195.174 89.407 C 197.732 89.453,201.997 89.453,204.651 89.407 C 207.306 89.361,205.213 89.324,200.000 89.324 C 194.787 89.324,192.616 89.361,195.174 89.407 M180.571 89.685 C 181.843 89.737,183.850 89.736,185.031 89.684 C 186.212 89.632,185.171 89.590,182.718 89.590 C 180.265 89.591,179.299 89.633,180.571 89.685 M215.135 89.685 C 216.407 89.737,218.414 89.736,219.595 89.684 C 220.776 89.632,219.735 89.590,217.282 89.590 C 214.829 89.591,213.863 89.633,215.135 89.685 M170.523 89.958 C 171.021 90.020,171.836 90.020,172.334 89.958 C 172.833 89.896,172.425 89.845,171.429 89.845 C 170.432 89.845,170.024 89.896,170.523 89.958 M227.666 89.958 C 228.164 90.020,228.979 90.020,229.477 89.958 C 229.976 89.896,229.568 89.845,228.571 89.845 C 227.575 89.845,227.167 89.896,227.666 89.958 M163.275 90.236 C 163.774 90.298,164.589 90.298,165.087 90.236 C 165.585 90.175,165.178 90.124,164.181 90.124 C 163.185 90.124,162.777 90.175,163.275 90.236 M234.913 90.236 C 235.411 90.298,236.226 90.298,236.725 90.236 C 237.223 90.175,236.815 90.124,235.819 90.124 C 234.822 90.124,234.415 90.175,234.913 90.236 M159.378 90.516 C 159.879 90.578,160.631 90.576,161.050 90.513 C 161.469 90.449,161.059 90.398,160.139 90.400 C 159.220 90.402,158.877 90.454,159.378 90.516 M239.099 90.516 C 239.600 90.578,240.353 90.576,240.772 90.513 C 241.190 90.449,240.780 90.398,239.861 90.400 C 238.941 90.402,238.598 90.454,239.099 90.516 M155.331 90.784 C 155.599 90.855,156.038 90.855,156.307 90.784 C 156.575 90.714,156.355 90.657,155.819 90.657 C 155.282 90.657,155.063 90.714,155.331 90.784 M243.693 90.784 C 243.962 90.855,244.401 90.855,244.669 90.784 C 244.937 90.714,244.718 90.657,244.181 90.657 C 243.645 90.657,243.425 90.714,243.693 90.784 M149.756 91.342 C 150.024 91.412,150.463 91.412,150.732 91.342 C 151.000 91.272,150.780 91.214,150.244 91.214 C 149.707 91.214,149.488 91.272,149.756 91.342 M249.690 91.347 C 250.036 91.414,250.538 91.411,250.805 91.341 C 251.071 91.272,250.787 91.217,250.174 91.220 C 249.561 91.223,249.343 91.280,249.690 91.347 M254.355 91.986 C 254.662 92.118,255.164 92.222,255.470 92.217 C 255.919 92.211,255.891 92.165,255.331 91.986 C 254.378 91.681,253.645 91.681,254.355 91.986 M262.857 95.418 C 262.857 95.466,263.265 95.874,263.763 96.324 L 264.669 97.143 263.850 96.237 C 263.087 95.392,262.857 95.203,262.857 95.418 M135.321 97.073 L 133.937 98.537 135.401 97.153 C 136.206 96.393,136.864 95.734,136.864 95.690 C 136.864 95.482,136.606 95.713,135.321 97.073 M269.307 105.645 C 269.307 105.875,269.415 106.314,269.547 106.620 C 269.698 106.972,269.787 107.023,269.787 106.760 C 269.787 106.530,269.679 106.091,269.547 105.784 C 269.396 105.433,269.307 105.381,269.307 105.645 M130.314 106.481 C 130.208 106.963,130.179 107.415,130.250 107.486 C 130.321 107.557,130.460 107.214,130.557 106.725 C 130.790 105.563,130.565 105.338,130.314 106.481 M129.403 111.777 C 129.403 112.314,129.460 112.533,129.530 112.265 C 129.600 111.997,129.600 111.557,129.530 111.289 C 129.460 111.021,129.403 111.240,129.403 111.777 M271.017 116.516 C 271.017 117.206,271.071 117.488,271.137 117.143 C 271.204 116.798,271.204 116.233,271.137 115.889 C 271.071 115.544,271.017 115.826,271.017 116.516 M128.845 116.794 C 128.845 117.331,128.903 117.551,128.973 117.282 C 129.043 117.014,129.043 116.575,128.973 116.307 C 128.903 116.038,128.845 116.258,128.845 116.794 M271.295 119.024 C 271.295 119.714,271.350 119.997,271.416 119.652 C 271.483 119.307,271.483 118.742,271.416 118.397 C 271.350 118.052,271.295 118.334,271.295 119.024 M128.578 119.582 C 128.578 120.272,128.632 120.554,128.698 120.209 C 128.765 119.864,128.765 119.300,128.698 118.955 C 128.632 118.610,128.578 118.892,128.578 119.582 M271.574 122.648 C 271.574 123.338,271.629 123.620,271.695 123.275 C 271.761 122.930,271.761 122.366,271.695 122.021 C 271.629 121.676,271.574 121.958,271.574 122.648 M128.299 122.927 C 128.299 123.617,128.353 123.899,128.420 123.554 C 128.486 123.209,128.486 122.645,128.420 122.300 C 128.353 121.955,128.299 122.237,128.299 122.927 M271.873 128.362 C 271.874 129.589,271.923 130.056,271.981 129.400 C 272.040 128.745,272.040 127.741,271.980 127.170 C 271.920 126.599,271.872 127.136,271.873 128.362 M128.038 128.780 C 128.038 129.930,128.087 130.401,128.147 129.826 C 128.207 129.251,128.207 128.310,128.147 127.735 C 128.087 127.160,128.038 127.631,128.038 128.780 M202.927 128.069 C 202.927 128.146,203.303 128.403,203.763 128.641 C 204.223 128.879,204.599 129.011,204.599 128.934 C 204.599 128.858,204.223 128.600,203.763 128.362 C 203.303 128.125,202.927 127.993,202.927 128.069 M272.178 139.373 C 272.178 143.589,272.217 145.314,272.264 143.206 C 272.311 141.098,272.311 137.648,272.264 135.540 C 272.217 133.432,272.178 135.157,272.178 139.373 M127.786 139.373 C 127.786 143.129,127.826 144.666,127.874 142.787 C 127.922 140.909,127.922 137.836,127.874 135.958 C 127.826 134.080,127.786 135.617,127.786 139.373 M217.422 136.153 C 217.422 136.230,217.798 136.487,218.258 136.725 C 218.718 136.963,219.094 137.094,219.094 137.018 C 219.094 136.941,218.718 136.684,218.258 136.446 C 217.798 136.208,217.422 136.076,217.422 136.153 M128.038 149.965 C 128.038 151.115,128.087 151.585,128.147 151.010 C 128.207 150.436,128.207 149.495,128.147 148.920 C 128.087 148.345,128.038 148.815,128.038 149.965 M271.873 150.383 C 271.874 151.610,271.923 152.077,271.981 151.421 C 272.040 150.766,272.040 149.762,271.980 149.191 C 271.920 148.620,271.872 149.157,271.873 150.383 M201.742 151.240 C 200.700 151.805,200.764 152.040,201.812 151.498 C 202.272 151.260,202.648 151.006,202.648 150.934 C 202.648 150.754,202.618 150.764,201.742 151.240 M197.003 153.887 C 196.429 154.190,195.958 154.501,195.958 154.577 C 195.958 154.653,196.460 154.459,197.073 154.146 C 197.686 153.833,198.188 153.517,198.188 153.444 C 198.188 153.261,198.186 153.262,197.003 153.887 M128.299 155.819 C 128.299 156.509,128.353 156.791,128.420 156.446 C 128.486 156.101,128.486 155.537,128.420 155.192 C 128.353 154.847,128.299 155.129,128.299 155.819 M271.574 156.098 C 271.574 156.787,271.629 157.070,271.695 156.725 C 271.761 156.380,271.761 155.815,271.695 155.470 C 271.629 155.125,271.574 155.408,271.574 156.098 M128.581 159.303 C 128.584 160.070,128.638 160.350,128.702 159.926 C 128.766 159.503,128.764 158.876,128.698 158.533 C 128.632 158.190,128.579 158.537,128.581 159.303 M271.290 159.582 C 271.293 160.195,271.350 160.413,271.417 160.066 C 271.483 159.720,271.481 159.218,271.411 158.951 C 271.341 158.685,271.287 158.969,271.290 159.582 M128.845 161.951 C 128.845 162.488,128.903 162.707,128.973 162.439 C 129.043 162.171,129.043 161.732,128.973 161.463 C 128.903 161.195,128.845 161.415,128.845 161.951 M271.011 162.091 C 271.014 162.704,271.071 162.922,271.138 162.575 C 271.205 162.228,271.202 161.727,271.132 161.460 C 271.063 161.194,271.008 161.477,271.011 162.091 M267.790 177.146 C 267.535 177.681,267.384 178.118,267.454 178.118 C 267.645 178.118,268.491 176.412,268.363 176.284 C 268.303 176.224,268.045 176.612,267.790 177.146 M263.536 182.648 L 262.718 183.554 263.624 182.735 C 264.122 182.285,264.530 181.877,264.530 181.829 C 264.530 181.614,264.300 181.804,263.536 182.648 M149.341 187.514 C 149.688 187.581,150.190 187.578,150.456 187.509 C 150.723 187.439,150.439 187.384,149.826 187.387 C 149.213 187.390,148.994 187.448,149.341 187.514 M249.690 187.514 C 250.036 187.581,250.538 187.578,250.805 187.509 C 251.071 187.439,250.787 187.384,250.174 187.387 C 249.561 187.390,249.343 187.448,249.690 187.514 M155.052 188.067 C 155.321 188.137,155.760 188.137,156.028 188.067 C 156.296 187.997,156.077 187.939,155.540 187.939 C 155.003 187.939,154.784 187.997,155.052 188.067 M243.972 188.067 C 244.240 188.137,244.679 188.137,244.948 188.067 C 245.216 187.997,244.997 187.939,244.460 187.939 C 243.923 187.939,243.704 187.997,243.972 188.067 M158.815 188.355 C 159.314 188.417,160.129 188.417,160.627 188.355 C 161.125 188.293,160.718 188.243,159.721 188.243 C 158.725 188.243,158.317 188.293,158.815 188.355 M239.373 188.355 C 239.871 188.417,240.686 188.417,241.185 188.355 C 241.683 188.293,241.275 188.243,240.279 188.243 C 239.282 188.243,238.875 188.293,239.373 188.355 M163.002 188.634 C 163.503 188.696,164.255 188.695,164.674 188.631 C 165.093 188.568,164.683 188.517,163.763 188.518 C 162.843 188.520,162.501 188.572,163.002 188.634 M235.475 188.634 C 235.976 188.696,236.729 188.695,237.148 188.631 C 237.567 188.568,237.157 188.517,236.237 188.518 C 235.317 188.520,234.974 188.572,235.475 188.634 M170.238 188.912 C 170.733 188.974,171.611 188.975,172.189 188.914 C 172.767 188.854,172.362 188.804,171.289 188.802 C 170.216 188.801,169.743 188.850,170.238 188.912 M227.944 188.912 C 228.443 188.974,229.258 188.974,229.756 188.912 C 230.254 188.851,229.847 188.800,228.850 188.800 C 227.854 188.800,227.446 188.851,227.944 188.912 M178.885 189.197 C 180.150 189.249,182.220 189.249,183.484 189.197 C 184.749 189.145,183.714 189.103,181.185 189.103 C 178.655 189.103,177.620 189.145,178.885 189.197 M216.516 189.197 C 217.780 189.249,219.850 189.249,221.115 189.197 C 222.380 189.145,221.345 189.103,218.815 189.103 C 216.286 189.103,215.251 189.145,216.516 189.197 M194.337 189.477 C 197.354 189.522,202.372 189.522,205.487 189.477 C 208.601 189.432,206.132 189.395,200.000 189.395 C 193.868 189.395,191.319 189.432,194.337 189.477 " stroke="none" fill="#fc8484" fill-rule="evenodd"></path><path id="path5" d="M193.519 89.129 C 197.160 89.173,203.118 89.173,206.760 89.129 C 210.401 89.085,207.422 89.049,200.139 89.049 C 192.857 89.049,189.878 89.085,193.519 89.129 M175.389 89.405 C 176.417 89.459,178.173 89.459,179.291 89.406 C 180.409 89.353,179.568 89.309,177.422 89.309 C 175.275 89.308,174.360 89.352,175.389 89.405 M220.545 89.405 C 221.573 89.459,223.330 89.459,224.448 89.406 C 225.566 89.353,224.725 89.309,222.578 89.309 C 220.432 89.308,219.517 89.352,220.545 89.405 M168.021 89.682 C 168.677 89.741,169.680 89.740,170.251 89.680 C 170.822 89.620,170.286 89.572,169.059 89.573 C 167.833 89.574,167.366 89.623,168.021 89.682 M229.895 89.681 C 230.547 89.740,231.613 89.740,232.265 89.681 C 232.916 89.623,232.383 89.575,231.080 89.575 C 229.777 89.575,229.244 89.623,229.895 89.681 M163.136 89.959 C 163.711 90.019,164.652 90.019,165.226 89.959 C 165.801 89.899,165.331 89.850,164.181 89.850 C 163.031 89.850,162.561 89.899,163.136 89.959 M234.774 89.959 C 235.348 90.019,236.289 90.019,236.864 89.959 C 237.439 89.899,236.969 89.850,235.819 89.850 C 234.669 89.850,234.199 89.899,234.774 89.959 M157.840 90.234 C 158.261 90.298,158.951 90.298,159.373 90.234 C 159.794 90.171,159.449 90.118,158.606 90.118 C 157.763 90.118,157.418 90.171,157.840 90.234 M240.910 90.235 C 241.333 90.299,241.961 90.297,242.303 90.231 C 242.646 90.165,242.300 90.112,241.533 90.115 C 240.767 90.117,240.486 90.171,240.910 90.235 M154.080 90.511 C 154.427 90.577,154.928 90.575,155.195 90.505 C 155.461 90.435,155.178 90.381,154.564 90.384 C 153.951 90.387,153.733 90.444,154.080 90.511 M244.951 90.511 C 245.298 90.577,245.799 90.575,246.066 90.505 C 246.332 90.435,246.049 90.381,245.436 90.384 C 244.822 90.387,244.604 90.444,244.951 90.511 M151.850 90.789 C 152.197 90.856,152.698 90.854,152.965 90.784 C 153.231 90.714,152.948 90.660,152.334 90.663 C 151.721 90.666,151.503 90.723,151.850 90.789 M247.178 90.789 C 247.523 90.855,248.087 90.855,248.432 90.789 C 248.777 90.723,248.495 90.668,247.805 90.668 C 247.115 90.668,246.833 90.723,247.178 90.789 M253.101 91.429 C 253.484 91.551,254.049 91.652,254.355 91.652 C 254.797 91.652,254.768 91.605,254.216 91.429 C 253.833 91.306,253.268 91.205,252.962 91.205 C 252.520 91.205,252.549 91.252,253.101 91.429 M142.021 92.414 C 141.324 92.750,141.301 92.788,141.882 92.646 C 142.671 92.453,143.559 92.001,143.136 92.007 C 142.983 92.009,142.481 92.192,142.021 92.414 M135.039 96.794 L 133.937 97.979 135.122 96.877 C 136.224 95.853,136.435 95.610,136.224 95.610 C 136.178 95.610,135.645 96.143,135.039 96.794 M264.797 96.794 C 265.480 97.523,266.076 98.118,266.121 98.118 C 266.330 98.118,266.109 97.868,264.878 96.713 L 263.554 95.470 264.797 96.794 M271.284 115.401 C 271.284 115.937,271.342 116.157,271.412 115.889 C 271.482 115.620,271.482 115.181,271.412 114.913 C 271.342 114.645,271.284 114.864,271.284 115.401 M128.566 115.679 C 128.566 116.216,128.624 116.436,128.694 116.167 C 128.764 115.899,128.764 115.460,128.694 115.192 C 128.624 114.923,128.566 115.143,128.566 115.679 M128.299 118.746 C 128.299 119.436,128.353 119.718,128.420 119.373 C 128.486 119.028,128.486 118.463,128.420 118.118 C 128.353 117.774,128.299 118.056,128.299 118.746 M271.574 118.746 C 271.574 119.436,271.629 119.718,271.695 119.373 C 271.761 119.028,271.761 118.463,271.695 118.118 C 271.629 117.774,271.574 118.056,271.574 118.746 M185.366 139.373 C 185.366 150.718,185.460 160.000,185.575 160.000 C 185.690 160.000,185.784 150.718,185.784 139.373 C 185.784 128.028,185.690 118.746,185.575 118.746 C 185.460 118.746,185.366 128.028,185.366 139.373 M271.853 121.533 C 271.853 122.223,271.907 122.505,271.974 122.160 C 272.040 121.815,272.040 121.251,271.974 120.906 C 271.907 120.561,271.853 120.843,271.853 121.533 M128.024 121.951 C 128.026 122.718,128.080 122.998,128.144 122.575 C 128.208 122.151,128.207 121.524,128.140 121.181 C 128.074 120.838,128.022 121.185,128.024 121.951 M272.149 125.714 C 272.149 126.864,272.199 127.334,272.259 126.760 C 272.319 126.185,272.319 125.244,272.259 124.669 C 272.199 124.094,272.149 124.564,272.149 125.714 M127.759 125.993 C 127.759 127.143,127.808 127.613,127.869 127.038 C 127.929 126.463,127.929 125.523,127.869 124.948 C 127.808 124.373,127.759 124.843,127.759 125.993 M272.444 133.659 C 272.445 135.805,272.489 136.646,272.542 135.528 C 272.595 134.410,272.594 132.654,272.541 131.625 C 272.487 130.597,272.444 131.512,272.444 133.659 M127.512 139.373 C 127.512 144.509,127.549 146.610,127.595 144.042 C 127.641 141.474,127.641 137.272,127.595 134.704 C 127.549 132.136,127.512 134.237,127.512 139.373 M272.444 145.087 C 272.445 147.233,272.489 148.075,272.542 146.956 C 272.595 145.838,272.594 144.082,272.541 143.054 C 272.487 142.026,272.444 142.941,272.444 145.087 M127.759 152.753 C 127.759 153.902,127.808 154.373,127.869 153.798 C 127.929 153.223,127.929 152.282,127.869 151.707 C 127.808 151.132,127.759 151.603,127.759 152.753 M272.149 153.031 C 272.149 154.181,272.199 154.652,272.259 154.077 C 272.319 153.502,272.319 152.561,272.259 151.986 C 272.199 151.411,272.149 151.882,272.149 153.031 M128.024 156.794 C 128.026 157.561,128.080 157.841,128.144 157.418 C 128.208 156.994,128.207 156.367,128.140 156.024 C 128.074 155.681,128.022 156.028,128.024 156.794 M192.544 155.978 C 191.501 156.544,191.565 156.779,192.613 156.237 C 193.073 155.999,193.449 155.745,193.449 155.672 C 193.449 155.493,193.420 155.503,192.544 155.978 M271.853 157.213 C 271.853 157.902,271.907 158.185,271.974 157.840 C 272.040 157.495,272.040 156.930,271.974 156.585 C 271.907 156.240,271.853 156.523,271.853 157.213 M128.299 160.000 C 128.299 160.690,128.353 160.972,128.420 160.627 C 128.486 160.282,128.486 159.718,128.420 159.373 C 128.353 159.028,128.299 159.310,128.299 160.000 M271.574 160.000 C 271.574 160.690,271.629 160.972,271.695 160.627 C 271.761 160.282,271.761 159.718,271.695 159.373 C 271.629 159.028,271.574 159.310,271.574 160.000 M271.284 163.345 C 271.284 163.882,271.342 164.101,271.412 163.833 C 271.482 163.564,271.482 163.125,271.412 162.857 C 271.342 162.589,271.284 162.808,271.284 163.345 M129.621 170.755 C 129.623 171.049,129.753 171.477,129.908 171.707 C 130.115 172.013,130.141 171.900,130.004 171.289 C 129.775 170.264,129.615 170.042,129.621 170.755 M264.808 181.882 C 264.131 182.571,263.640 183.136,263.717 183.136 C 263.793 183.136,264.410 182.571,265.087 181.882 C 265.764 181.192,266.255 180.627,266.179 180.627 C 266.102 180.627,265.485 181.192,264.808 181.882 M135.052 182.021 C 135.651 182.634,136.204 183.136,136.280 183.136 C 136.357 183.136,135.930 182.634,135.331 182.021 C 134.732 181.408,134.180 180.906,134.103 180.906 C 134.026 180.906,134.453 181.408,135.052 182.021 M151.292 188.072 C 151.639 188.138,152.141 188.136,152.407 188.066 C 152.674 187.996,152.390 187.942,151.777 187.945 C 151.164 187.948,150.946 188.005,151.292 188.072 M247.738 188.072 C 248.085 188.138,248.587 188.136,248.853 188.066 C 249.120 187.996,248.836 187.942,248.223 187.945 C 247.610 187.948,247.392 188.005,247.738 188.072 M153.937 188.345 C 154.206 188.416,154.645 188.416,154.913 188.345 C 155.181 188.275,154.962 188.218,154.425 188.218 C 153.889 188.218,153.669 188.275,153.937 188.345 M245.230 188.350 C 245.576 188.417,246.078 188.415,246.345 188.345 C 246.611 188.275,246.328 188.221,245.714 188.224 C 245.101 188.227,244.883 188.284,245.230 188.350 M157.561 188.632 C 157.983 188.696,158.672 188.696,159.094 188.632 C 159.516 188.568,159.171 188.516,158.328 188.516 C 157.484 188.516,157.139 188.568,157.561 188.632 M240.906 188.632 C 241.328 188.696,242.017 188.696,242.439 188.632 C 242.861 188.568,242.516 188.516,241.672 188.516 C 240.829 188.516,240.484 188.568,240.906 188.632 M162.446 188.915 C 163.102 188.974,164.105 188.973,164.676 188.913 C 165.247 188.854,164.711 188.805,163.484 188.806 C 162.258 188.807,161.791 188.856,162.446 188.915 M235.478 188.915 C 236.133 188.974,237.137 188.973,237.708 188.913 C 238.279 188.854,237.742 188.805,236.516 188.806 C 235.289 188.807,234.822 188.856,235.478 188.915 M167.464 189.194 C 168.119 189.253,169.123 189.252,169.694 189.192 C 170.265 189.132,169.728 189.084,168.502 189.085 C 167.275 189.086,166.808 189.135,167.464 189.194 M230.460 189.194 C 231.116 189.253,232.119 189.252,232.690 189.192 C 233.261 189.132,232.725 189.084,231.498 189.085 C 230.272 189.086,229.805 189.135,230.460 189.194 M174.843 189.475 C 175.878 189.529,177.571 189.529,178.606 189.475 C 179.641 189.421,178.794 189.377,176.725 189.377 C 174.655 189.377,173.808 189.421,174.843 189.475 M221.394 189.475 C 222.429 189.529,224.122 189.529,225.157 189.475 C 226.192 189.421,225.345 189.377,223.275 189.377 C 221.206 189.377,220.359 189.421,221.394 189.475 M193.538 189.756 C 197.190 189.800,203.086 189.800,206.639 189.756 C 210.193 189.712,207.206 189.676,200.000 189.676 C 192.794 189.676,189.887 189.712,193.538 189.756 " stroke="none" fill="#fc2b2b" fill-rule="evenodd"></path></g></svg>